G04 #@! TF.GenerationSoftware,KiCad,Pcbnew,5.0.0*
G04 #@! TF.CreationDate,2018-07-31T16:36:44-05:00*
G04 #@! TF.ProjectId,Header_Board,4865616465725F426F6172642E6B6963,rev?*
G04 #@! TF.SameCoordinates,Original*
G04 #@! TF.FileFunction,Copper,L3,Inr,Signal*
G04 #@! TF.FilePolarity,Positive*
%FSLAX46Y46*%
G04 Gerber Fmt 4.6, Leading zero omitted, Abs format (unit mm)*
G04 Created by KiCad (PCBNEW 5.0.0) date Tue Jul 31 16:36:44 2018*
%MOMM*%
%LPD*%
G01*
G04 APERTURE LIST*
G04 #@! TA.AperFunction,ViaPad*
%ADD10C,1.500000*%
G04 #@! TD*
G04 #@! TA.AperFunction,ViaPad*
%ADD11R,1.700000X1.700000*%
G04 #@! TD*
G04 #@! TA.AperFunction,ViaPad*
%ADD12O,1.700000X1.700000*%
G04 #@! TD*
G04 #@! TA.AperFunction,ViaPad*
%ADD13C,6.350000*%
G04 #@! TD*
G04 #@! TA.AperFunction,ViaPad*
%ADD14C,0.600000*%
G04 #@! TD*
G04 #@! TA.AperFunction,Conductor*
%ADD15C,0.250000*%
G04 #@! TD*
G04 APERTURE END LIST*
D10*
G04 #@! TO.N,*
G04 #@! TO.C,P3*
X87782400Y-128983200D03*
X87782400Y-84783200D03*
G04 #@! TD*
D11*
G04 #@! TO.N,/SGPIO0*
G04 #@! TO.C,P1*
X95257081Y-66040935D03*
D12*
G04 #@! TO.N,/SGPIO1*
X95257081Y-63500935D03*
G04 #@! TO.N,/SGPIO2*
X97797081Y-66040935D03*
G04 #@! TO.N,/SGPIO3*
X97797081Y-63500935D03*
G04 #@! TO.N,/I2C3_SDA*
X100337081Y-66040935D03*
G04 #@! TO.N,/I2C3_SCL*
X100337081Y-63500935D03*
G04 #@! TO.N,/SGPIO4*
X102877081Y-66040935D03*
G04 #@! TO.N,Net-(P1-Pad8)*
X102877081Y-63500935D03*
G04 #@! TO.N,GND*
X105417081Y-66040935D03*
G04 #@! TO.N,Net-(P1-Pad10)*
X105417081Y-63500935D03*
G04 #@! TO.N,Net-(P1-Pad11)*
X107957081Y-66040935D03*
G04 #@! TO.N,Net-(P1-Pad12)*
X107957081Y-63500935D03*
G04 #@! TO.N,Net-(P1-Pad13)*
X110497081Y-66040935D03*
G04 #@! TO.N,GND*
X110497081Y-63500935D03*
G04 #@! TO.N,Net-(P1-Pad15)*
X113037081Y-66040935D03*
G04 #@! TO.N,Net-(P1-Pad16)*
X113037081Y-63500935D03*
G04 #@! TO.N,GND*
X115577081Y-66040935D03*
G04 #@! TO.N,Net-(P1-Pad18)*
X115577081Y-63500935D03*
G04 #@! TO.N,Net-(P1-Pad19)*
X118117081Y-66040935D03*
G04 #@! TO.N,Net-(P1-Pad20)*
X118117081Y-63500935D03*
G04 #@! TO.N,GND*
X120657081Y-66040935D03*
X120657081Y-63500935D03*
G04 #@! TO.N,Net-(P1-Pad23)*
X123197081Y-66040935D03*
G04 #@! TO.N,Net-(P1-Pad24)*
X123197081Y-63500935D03*
G04 #@! TO.N,+5V*
X125737081Y-66040935D03*
X125737081Y-63500935D03*
G04 #@! TO.N,Net-(P1-Pad27)*
X128277081Y-66040935D03*
G04 #@! TO.N,Net-(P1-Pad28)*
X128277081Y-63500935D03*
G04 #@! TO.N,GND*
X130817081Y-66040935D03*
X130817081Y-63500935D03*
G04 #@! TO.N,Net-(P1-Pad31)*
X133357081Y-66040935D03*
G04 #@! TO.N,GND*
X133357081Y-63500935D03*
G04 #@! TO.N,Net-(P1-Pad33)*
X135897081Y-66040935D03*
G04 #@! TO.N,Net-(P1-Pad34)*
X135897081Y-63500935D03*
G04 #@! TO.N,Net-(P1-Pad35)*
X138437081Y-66040935D03*
G04 #@! TO.N,Net-(P1-Pad36)*
X138437081Y-63500935D03*
G04 #@! TO.N,Net-(P1-Pad37)*
X140977081Y-66040935D03*
G04 #@! TO.N,Net-(P1-Pad38)*
X140977081Y-63500935D03*
G04 #@! TO.N,Net-(P1-Pad39)*
X143517081Y-66040935D03*
G04 #@! TO.N,Net-(P1-Pad40)*
X143517081Y-63500935D03*
G04 #@! TO.N,Net-(P1-Pad41)*
X146057081Y-66040935D03*
G04 #@! TO.N,Net-(P1-Pad42)*
X146057081Y-63500935D03*
G04 #@! TO.N,Net-(P1-Pad43)*
X148597081Y-66040935D03*
G04 #@! TO.N,Net-(P1-Pad44)*
X148597081Y-63500935D03*
G04 #@! TO.N,Net-(P1-Pad45)*
X151137081Y-66040935D03*
G04 #@! TO.N,Net-(P1-Pad46)*
X151137081Y-63500935D03*
G04 #@! TO.N,GND*
X153677081Y-66040935D03*
X153677081Y-63500935D03*
G04 #@! TO.N,/SPI2_NSS*
X156217081Y-66040935D03*
G04 #@! TO.N,/SPI2_SCK*
X156217081Y-63500935D03*
G04 #@! TO.N,/SPI2_MISO*
X158757081Y-66040935D03*
G04 #@! TO.N,/SPI2_MOSI*
X158757081Y-63500935D03*
G04 #@! TD*
D11*
G04 #@! TO.N,/GPIO0*
G04 #@! TO.C,P2*
X95257081Y-71120935D03*
D12*
G04 #@! TO.N,/GPIO1*
X95257081Y-68580935D03*
G04 #@! TO.N,/GPIO2*
X97797081Y-71120935D03*
G04 #@! TO.N,/GPIO3*
X97797081Y-68580935D03*
G04 #@! TO.N,/RADIO_TR*
X100337081Y-71120935D03*
G04 #@! TO.N,/RADIO_RR*
X100337081Y-68580935D03*
G04 #@! TO.N,/GPIO4*
X102877081Y-71120935D03*
G04 #@! TO.N,/GPIO5*
X102877081Y-68580935D03*
G04 #@! TO.N,/GPIO6*
X105417081Y-71120935D03*
G04 #@! TO.N,/GPIO7*
X105417081Y-68580935D03*
G04 #@! TO.N,/GPIO8*
X107957081Y-71120935D03*
G04 #@! TO.N,/GPIO9*
X107957081Y-68580935D03*
G04 #@! TO.N,/GPIO10*
X110497081Y-71120935D03*
G04 #@! TO.N,/GPIO11*
X110497081Y-68580935D03*
G04 #@! TO.N,/GPIO12*
X113037081Y-71120935D03*
G04 #@! TO.N,/GPIO13*
X113037081Y-68580935D03*
G04 #@! TO.N,/RADIO_RX*
X115577081Y-71120935D03*
G04 #@! TO.N,/RADIO_TX*
X115577081Y-68580935D03*
G04 #@! TO.N,/12C2_SDA*
X118117081Y-71120935D03*
G04 #@! TO.N,/I2C2_SCL*
X118117081Y-68580935D03*
G04 #@! TO.N,/SYS_SPI_SCK*
X120657081Y-71120935D03*
G04 #@! TO.N,/SYS_SPI_MISO*
X120657081Y-68580935D03*
G04 #@! TO.N,/SYS_SPI_MOSI*
X123197081Y-71120935D03*
G04 #@! TO.N,/SYS_SPI_NSS*
X123197081Y-68580935D03*
G04 #@! TO.N,Net-(P2-Pad25)*
X125737081Y-71120935D03*
G04 #@! TO.N,Net-(P2-Pad26)*
X125737081Y-68580935D03*
G04 #@! TO.N,Net-(P2-Pad27)*
X128277081Y-71120935D03*
G04 #@! TO.N,Net-(P2-Pad28)*
X128277081Y-68580935D03*
G04 #@! TO.N,/SYS_RESET*
X130817081Y-71120935D03*
G04 #@! TO.N,Net-(P2-Pad30)*
X130817081Y-68580935D03*
G04 #@! TO.N,Net-(P2-Pad31)*
X133357081Y-71120935D03*
G04 #@! TO.N,Net-(P2-Pad32)*
X133357081Y-68580935D03*
G04 #@! TO.N,/SGPIO7*
X135897081Y-71120935D03*
G04 #@! TO.N,/SGPIO8*
X135897081Y-68580935D03*
G04 #@! TO.N,/SGPIO9*
X138437081Y-71120935D03*
G04 #@! TO.N,/SGPIO10*
X138437081Y-68580935D03*
G04 #@! TO.N,/SGPIO11*
X140977081Y-71120935D03*
G04 #@! TO.N,/SGPIO12*
X140977081Y-68580935D03*
G04 #@! TO.N,/SGPIO13*
X143517081Y-71120935D03*
G04 #@! TO.N,/SGPIO14*
X143517081Y-68580935D03*
G04 #@! TO.N,/SYS_SDA*
X146057081Y-71120935D03*
G04 #@! TO.N,Net-(P2-Pad42)*
X146057081Y-68580935D03*
G04 #@! TO.N,/SYS_SCL*
X148597081Y-71120935D03*
G04 #@! TO.N,Net-(P2-Pad44)*
X148597081Y-68580935D03*
G04 #@! TO.N,Net-(P2-Pad45)*
X151137081Y-71120935D03*
G04 #@! TO.N,Net-(P2-Pad46)*
X151137081Y-68580935D03*
G04 #@! TO.N,/NBUFEN_PRI*
X153677081Y-71120935D03*
G04 #@! TO.N,/NBUFEN_SEC*
X153677081Y-68580935D03*
G04 #@! TO.N,Net-(P2-Pad49)*
X156217081Y-71120935D03*
G04 #@! TO.N,/SGPIO5*
X156217081Y-68580935D03*
G04 #@! TO.N,Net-(P2-Pad51)*
X158757081Y-71120935D03*
G04 #@! TO.N,/SGPIO6*
X158757081Y-68580935D03*
G04 #@! TD*
D13*
G04 #@! TO.N,N/C*
G04 #@! TO.C,REF\002A\002A*
X90170000Y-63500000D03*
G04 #@! TD*
G04 #@! TO.N,N/C*
G04 #@! TO.C,REF\002A\002A*
X163830000Y-63500000D03*
G04 #@! TD*
G04 #@! TO.N,N/C*
G04 #@! TO.C,REF\002A\002A*
X86360000Y-149225000D03*
G04 #@! TD*
G04 #@! TO.N,N/C*
G04 #@! TO.C,REF\002A\002A*
X166370000Y-149225000D03*
G04 #@! TD*
D10*
G04 #@! TO.N,*
G04 #@! TO.C,P3*
X87757000Y-128957800D03*
X87757000Y-84757800D03*
G04 #@! TD*
D14*
G04 #@! TO.N,/SYS_SDA*
X91033600Y-107492800D03*
G04 #@! TO.N,/SYS_SCL*
X88366600Y-103708200D03*
X92608400Y-103759000D03*
X91211400Y-110058200D03*
G04 #@! TO.N,GND*
X88315800Y-118922800D03*
X88341200Y-121462800D03*
X88265000Y-98602800D03*
X88163400Y-93522800D03*
X90322400Y-88442800D03*
X88265000Y-96088200D03*
X88290400Y-125272800D03*
X88290400Y-124002800D03*
G04 #@! TO.N,+5V*
X88442800Y-111302800D03*
X87147400Y-111302800D03*
X87122000Y-108788200D03*
X88392000Y-108788200D03*
X87147400Y-104952800D03*
X87147400Y-102412800D03*
X88290400Y-102412800D03*
X88417400Y-104952800D03*
X123418600Y-138658600D03*
X135458200Y-107086400D03*
X151638000Y-78460600D03*
G04 #@! TD*
D15*
G04 #@! TO.N,/SYS_SDA*
X91033600Y-107492800D02*
X91897200Y-107492800D01*
X87772401Y-104652799D02*
X83820000Y-100700398D01*
X87772401Y-105232803D02*
X87772401Y-104652799D01*
X91033600Y-107492800D02*
X90032398Y-107492800D01*
X90032398Y-107492800D02*
X87772401Y-105232803D01*
X83820000Y-100700398D02*
X83820000Y-81915000D01*
X144882080Y-72295936D02*
X145207082Y-71970934D01*
X93439064Y-72295936D02*
X144882080Y-72295936D01*
X145207082Y-71970934D02*
X146057081Y-71120935D01*
X83820000Y-81915000D02*
X93439064Y-72295936D01*
G04 #@! TO.N,/SYS_SCL*
X88417400Y-103759000D02*
X88366600Y-103708200D01*
X92608400Y-103759000D02*
X88417400Y-103759000D01*
X92608400Y-103759000D02*
X92608400Y-83286600D01*
X92608400Y-83286600D02*
X102870000Y-73025000D01*
X146693016Y-73025000D02*
X148597081Y-71120935D01*
X102870000Y-73025000D02*
X146693016Y-73025000D01*
G04 #@! TD*
M02*
