G04 #@! TF.GenerationSoftware,KiCad,Pcbnew,5.0.0*
G04 #@! TF.CreationDate,2018-07-31T16:36:44-05:00*
G04 #@! TF.ProjectId,Header_Board,4865616465725F426F6172642E6B6963,rev?*
G04 #@! TF.SameCoordinates,Original*
G04 #@! TF.FileFunction,Soldermask,Top*
G04 #@! TF.FilePolarity,Negative*
%FSLAX46Y46*%
G04 Gerber Fmt 4.6, Leading zero omitted, Abs format (unit mm)*
G04 Created by KiCad (PCBNEW 5.0.0) date Tue Jul 31 16:36:44 2018*
%MOMM*%
%LPD*%
G01*
G04 APERTURE LIST*
%ADD10C,1.900000*%
%ADD11C,0.400000*%
%ADD12R,2.600000X2.400000*%
%ADD13R,1.920000X1.920000*%
%ADD14R,2.100000X2.100000*%
%ADD15O,2.100000X2.100000*%
%ADD16C,6.750000*%
%ADD17R,1.750000X1.060000*%
%ADD18C,1.400000*%
%ADD19C,0.100000*%
%ADD20C,0.900000*%
%ADD21R,2.310000X2.750000*%
%ADD22R,7.510000X1.910000*%
%ADD23C,2.130000*%
%ADD24R,1.695400X1.289000*%
%ADD25R,1.695400X1.593800*%
%ADD26R,1.289000X1.695400*%
%ADD27R,1.593800X1.695400*%
G04 APERTURE END LIST*
D10*
G04 #@! TO.C,P3*
X87782400Y-128983200D03*
X87782400Y-84783200D03*
D11*
X88782400Y-127078200D03*
X87782400Y-86688200D03*
G04 #@! TD*
D12*
G04 #@! TO.C,U10*
X139938000Y-84064000D03*
X140038000Y-88864000D03*
X143138000Y-89064000D03*
X145688000Y-89064000D03*
X148588000Y-89064000D03*
X151138000Y-89064000D03*
X154738000Y-84064000D03*
X154516000Y-79264000D03*
X151538000Y-79064000D03*
X143038000Y-79064000D03*
X140038000Y-79264000D03*
G04 #@! TD*
D13*
G04 #@! TO.C,U8*
X161931000Y-93069000D03*
X159137000Y-93069000D03*
X155857000Y-93093000D03*
X153697000Y-95863000D03*
X153697000Y-98403000D03*
X153697000Y-100943000D03*
X153697000Y-103483000D03*
X153697000Y-106023000D03*
X155857000Y-108793000D03*
X159137000Y-108793000D03*
X161927000Y-108793000D03*
X164217000Y-106023000D03*
X164217000Y-103483000D03*
X164217000Y-100943000D03*
X164217000Y-98403000D03*
X164217000Y-95863000D03*
G04 #@! TD*
D14*
G04 #@! TO.C,P1*
X95257081Y-66040935D03*
D15*
X95257081Y-63500935D03*
X97797081Y-66040935D03*
X97797081Y-63500935D03*
X100337081Y-66040935D03*
X100337081Y-63500935D03*
X102877081Y-66040935D03*
X102877081Y-63500935D03*
X105417081Y-66040935D03*
X105417081Y-63500935D03*
X107957081Y-66040935D03*
X107957081Y-63500935D03*
X110497081Y-66040935D03*
X110497081Y-63500935D03*
X113037081Y-66040935D03*
X113037081Y-63500935D03*
X115577081Y-66040935D03*
X115577081Y-63500935D03*
X118117081Y-66040935D03*
X118117081Y-63500935D03*
X120657081Y-66040935D03*
X120657081Y-63500935D03*
X123197081Y-66040935D03*
X123197081Y-63500935D03*
X125737081Y-66040935D03*
X125737081Y-63500935D03*
X128277081Y-66040935D03*
X128277081Y-63500935D03*
X130817081Y-66040935D03*
X130817081Y-63500935D03*
X133357081Y-66040935D03*
X133357081Y-63500935D03*
X135897081Y-66040935D03*
X135897081Y-63500935D03*
X138437081Y-66040935D03*
X138437081Y-63500935D03*
X140977081Y-66040935D03*
X140977081Y-63500935D03*
X143517081Y-66040935D03*
X143517081Y-63500935D03*
X146057081Y-66040935D03*
X146057081Y-63500935D03*
X148597081Y-66040935D03*
X148597081Y-63500935D03*
X151137081Y-66040935D03*
X151137081Y-63500935D03*
X153677081Y-66040935D03*
X153677081Y-63500935D03*
X156217081Y-66040935D03*
X156217081Y-63500935D03*
X158757081Y-66040935D03*
X158757081Y-63500935D03*
G04 #@! TD*
D14*
G04 #@! TO.C,P2*
X95257081Y-71120935D03*
D15*
X95257081Y-68580935D03*
X97797081Y-71120935D03*
X97797081Y-68580935D03*
X100337081Y-71120935D03*
X100337081Y-68580935D03*
X102877081Y-71120935D03*
X102877081Y-68580935D03*
X105417081Y-71120935D03*
X105417081Y-68580935D03*
X107957081Y-71120935D03*
X107957081Y-68580935D03*
X110497081Y-71120935D03*
X110497081Y-68580935D03*
X113037081Y-71120935D03*
X113037081Y-68580935D03*
X115577081Y-71120935D03*
X115577081Y-68580935D03*
X118117081Y-71120935D03*
X118117081Y-68580935D03*
X120657081Y-71120935D03*
X120657081Y-68580935D03*
X123197081Y-71120935D03*
X123197081Y-68580935D03*
X125737081Y-71120935D03*
X125737081Y-68580935D03*
X128277081Y-71120935D03*
X128277081Y-68580935D03*
X130817081Y-71120935D03*
X130817081Y-68580935D03*
X133357081Y-71120935D03*
X133357081Y-68580935D03*
X135897081Y-71120935D03*
X135897081Y-68580935D03*
X138437081Y-71120935D03*
X138437081Y-68580935D03*
X140977081Y-71120935D03*
X140977081Y-68580935D03*
X143517081Y-71120935D03*
X143517081Y-68580935D03*
X146057081Y-71120935D03*
X146057081Y-68580935D03*
X148597081Y-71120935D03*
X148597081Y-68580935D03*
X151137081Y-71120935D03*
X151137081Y-68580935D03*
X153677081Y-71120935D03*
X153677081Y-68580935D03*
X156217081Y-71120935D03*
X156217081Y-68580935D03*
X158757081Y-71120935D03*
X158757081Y-68580935D03*
G04 #@! TD*
D16*
G04 #@! TO.C,REF\002A\002A*
X90170000Y-63500000D03*
G04 #@! TD*
G04 #@! TO.C,REF\002A\002A*
X163830000Y-63500000D03*
G04 #@! TD*
G04 #@! TO.C,REF\002A\002A*
X86360000Y-149225000D03*
G04 #@! TD*
G04 #@! TO.C,REF\002A\002A*
X166370000Y-149225000D03*
G04 #@! TD*
D17*
G04 #@! TO.C,P3*
X89662000Y-125272800D03*
X85852000Y-125272800D03*
X89662000Y-124002800D03*
X85852000Y-124002800D03*
X89662000Y-122732800D03*
X85852000Y-122732800D03*
X89662000Y-121462800D03*
X85852000Y-121462800D03*
X89662000Y-120192800D03*
X85852000Y-120192800D03*
X89662000Y-118922800D03*
X85852000Y-118922800D03*
X89662000Y-117652800D03*
X85852000Y-117652800D03*
X89662000Y-116382800D03*
X85852000Y-116382800D03*
X89662000Y-115112800D03*
X85852000Y-115112800D03*
X89662000Y-113842800D03*
X85852000Y-113842800D03*
X89662000Y-112572800D03*
X85852000Y-112572800D03*
X89662000Y-111302800D03*
X85852000Y-111302800D03*
X89662000Y-110032800D03*
X85852000Y-110032800D03*
X89662000Y-108762800D03*
X85852000Y-108762800D03*
X89662000Y-107492800D03*
X85852000Y-107492800D03*
X89662000Y-106222800D03*
X85852000Y-106222800D03*
X89662000Y-104952800D03*
X85852000Y-104952800D03*
X89662000Y-103682800D03*
X85852000Y-103682800D03*
X89662000Y-102412800D03*
X85852000Y-102412800D03*
X89662000Y-101142800D03*
X85852000Y-101142800D03*
X89662000Y-99872800D03*
X85852000Y-99872800D03*
X89662000Y-98602800D03*
X85852000Y-98602800D03*
X89662000Y-97332800D03*
X85852000Y-97332800D03*
X89662000Y-96062800D03*
X85852000Y-96062800D03*
X89662000Y-94792800D03*
X85852000Y-94792800D03*
X89662000Y-93522800D03*
X85852000Y-93522800D03*
X89662000Y-92252800D03*
X85852000Y-92252800D03*
X89662000Y-90982800D03*
X85852000Y-90982800D03*
X89662000Y-89712800D03*
X85852000Y-89712800D03*
X89662000Y-88442800D03*
X85852000Y-88442800D03*
D11*
X87757000Y-127052800D03*
X88757000Y-86662800D03*
D10*
X87757000Y-128957800D03*
X87757000Y-84757800D03*
G04 #@! TD*
D18*
G04 #@! TO.C,J1*
X111721000Y-86454000D03*
D19*
G36*
X110832783Y-87522209D02*
X110353955Y-86206639D01*
X112609217Y-85385791D01*
X113088045Y-86701361D01*
X110832783Y-87522209D01*
X110832783Y-87522209D01*
G37*
D18*
X110021000Y-86454000D03*
D19*
G36*
X108653955Y-86701361D02*
X109132783Y-85385791D01*
X111388045Y-86206639D01*
X110909217Y-87522209D01*
X108653955Y-86701361D01*
X108653955Y-86701361D01*
G37*
D18*
X111721000Y-81694000D03*
D19*
G36*
X110353955Y-81941361D02*
X110832783Y-80625791D01*
X113088045Y-81446639D01*
X112609217Y-82762209D01*
X110353955Y-81941361D01*
X110353955Y-81941361D01*
G37*
D18*
X110021000Y-81694000D03*
D19*
G36*
X109132783Y-82762209D02*
X108653955Y-81446639D01*
X110909217Y-80625791D01*
X111388045Y-81941361D01*
X109132783Y-82762209D01*
X109132783Y-82762209D01*
G37*
D20*
X112386000Y-85823000D03*
D19*
G36*
X112280769Y-86648486D02*
X111591329Y-86069977D01*
X112491231Y-84997514D01*
X113180671Y-85576023D01*
X112280769Y-86648486D01*
X112280769Y-86648486D01*
G37*
D20*
X109356000Y-85823000D03*
D19*
G36*
X108561329Y-85576023D02*
X109250769Y-84997514D01*
X110150671Y-86069977D01*
X109461231Y-86648486D01*
X108561329Y-85576023D01*
X108561329Y-85576023D01*
G37*
D20*
X112386000Y-82325000D03*
D19*
G36*
X111591329Y-82078023D02*
X112280769Y-81499514D01*
X113180671Y-82571977D01*
X112491231Y-83150486D01*
X111591329Y-82078023D01*
X111591329Y-82078023D01*
G37*
D20*
X109356000Y-82325000D03*
D19*
G36*
X109250769Y-83150486D02*
X108561329Y-82571977D01*
X109461231Y-81499514D01*
X110150671Y-82078023D01*
X109250769Y-83150486D01*
X109250769Y-83150486D01*
G37*
D21*
X113471000Y-86454000D03*
D22*
X110871000Y-86874000D03*
D21*
X108271000Y-86454000D03*
X113471000Y-81694000D03*
D23*
X110871000Y-84074000D03*
D22*
X110871000Y-81274000D03*
D21*
X108271000Y-81694000D03*
G04 #@! TD*
D18*
G04 #@! TO.C,J2*
X111975000Y-140429000D03*
D19*
G36*
X111086783Y-141497209D02*
X110607955Y-140181639D01*
X112863217Y-139360791D01*
X113342045Y-140676361D01*
X111086783Y-141497209D01*
X111086783Y-141497209D01*
G37*
D18*
X110275000Y-140429000D03*
D19*
G36*
X108907955Y-140676361D02*
X109386783Y-139360791D01*
X111642045Y-140181639D01*
X111163217Y-141497209D01*
X108907955Y-140676361D01*
X108907955Y-140676361D01*
G37*
D18*
X111975000Y-135669000D03*
D19*
G36*
X110607955Y-135916361D02*
X111086783Y-134600791D01*
X113342045Y-135421639D01*
X112863217Y-136737209D01*
X110607955Y-135916361D01*
X110607955Y-135916361D01*
G37*
D18*
X110275000Y-135669000D03*
D19*
G36*
X109386783Y-136737209D02*
X108907955Y-135421639D01*
X111163217Y-134600791D01*
X111642045Y-135916361D01*
X109386783Y-136737209D01*
X109386783Y-136737209D01*
G37*
D20*
X112640000Y-139798000D03*
D19*
G36*
X112534769Y-140623486D02*
X111845329Y-140044977D01*
X112745231Y-138972514D01*
X113434671Y-139551023D01*
X112534769Y-140623486D01*
X112534769Y-140623486D01*
G37*
D20*
X109610000Y-139798000D03*
D19*
G36*
X108815329Y-139551023D02*
X109504769Y-138972514D01*
X110404671Y-140044977D01*
X109715231Y-140623486D01*
X108815329Y-139551023D01*
X108815329Y-139551023D01*
G37*
D20*
X112640000Y-136300000D03*
D19*
G36*
X111845329Y-136053023D02*
X112534769Y-135474514D01*
X113434671Y-136546977D01*
X112745231Y-137125486D01*
X111845329Y-136053023D01*
X111845329Y-136053023D01*
G37*
D20*
X109610000Y-136300000D03*
D19*
G36*
X109504769Y-137125486D02*
X108815329Y-136546977D01*
X109715231Y-135474514D01*
X110404671Y-136053023D01*
X109504769Y-137125486D01*
X109504769Y-137125486D01*
G37*
D21*
X113725000Y-140429000D03*
D22*
X111125000Y-140849000D03*
D21*
X108525000Y-140429000D03*
X113725000Y-135669000D03*
D23*
X111125000Y-138049000D03*
D22*
X111125000Y-135249000D03*
D21*
X108525000Y-135669000D03*
G04 #@! TD*
D12*
G04 #@! TO.C,U1*
X146828000Y-101483000D03*
X146728000Y-96683000D03*
X143628000Y-96483000D03*
X141078000Y-96483000D03*
X138178000Y-96483000D03*
X135628000Y-96483000D03*
X132028000Y-101483000D03*
X132250000Y-106283000D03*
X135228000Y-106483000D03*
X143728000Y-106483000D03*
X146728000Y-106283000D03*
G04 #@! TD*
D13*
G04 #@! TO.C,U2*
X119612000Y-84068000D03*
X119612000Y-86862000D03*
X119636000Y-90142000D03*
X122406000Y-92302000D03*
X124946000Y-92302000D03*
X127486000Y-92302000D03*
X130026000Y-92302000D03*
X132566000Y-92302000D03*
X135336000Y-90142000D03*
X135336000Y-86862000D03*
X135336000Y-84072000D03*
X132566000Y-81782000D03*
X130026000Y-81782000D03*
X127486000Y-81782000D03*
X124946000Y-81782000D03*
X122406000Y-81782000D03*
G04 #@! TD*
D24*
G04 #@! TO.C,U3*
X154012900Y-113601500D03*
X156222700Y-113601500D03*
X156222700Y-111696500D03*
D25*
X154012900Y-111848900D03*
G04 #@! TD*
D24*
G04 #@! TO.C,U4*
X159600900Y-113474500D03*
X161810700Y-113474500D03*
X161810700Y-111569500D03*
D25*
X159600900Y-111721900D03*
G04 #@! TD*
D24*
G04 #@! TO.C,U5*
X126072900Y-103187500D03*
X128282700Y-103187500D03*
X128282700Y-101282500D03*
D25*
X126072900Y-101434900D03*
G04 #@! TD*
D26*
G04 #@! TO.C,U6*
X121475500Y-100926900D03*
X121475500Y-103136700D03*
X123380500Y-103136700D03*
D27*
X123228100Y-100926900D03*
G04 #@! TD*
D24*
G04 #@! TO.C,U7*
X116928900Y-103187500D03*
X119138700Y-103187500D03*
X119138700Y-101282500D03*
D25*
X116928900Y-101434900D03*
G04 #@! TD*
D24*
G04 #@! TO.C,U9*
X111975900Y-105219500D03*
X114185700Y-105219500D03*
X114185700Y-103314500D03*
D25*
X111975900Y-103466900D03*
G04 #@! TD*
D24*
G04 #@! TO.C,U11*
X106768900Y-107124500D03*
X108978700Y-107124500D03*
X108978700Y-105219500D03*
D25*
X106768900Y-105371900D03*
G04 #@! TD*
D12*
G04 #@! TO.C,U12*
X135017000Y-132979000D03*
X134917000Y-128179000D03*
X131817000Y-127979000D03*
X129267000Y-127979000D03*
X126367000Y-127979000D03*
X123817000Y-127979000D03*
X120217000Y-132979000D03*
X120439000Y-137779000D03*
X123417000Y-137979000D03*
X131917000Y-137979000D03*
X134917000Y-137779000D03*
G04 #@! TD*
D26*
G04 #@! TO.C,U13*
X108648500Y-111671100D03*
X108648500Y-109461300D03*
X106743500Y-109461300D03*
D27*
X106895900Y-111671100D03*
G04 #@! TD*
D26*
G04 #@! TO.C,U14*
X160337500Y-86271100D03*
X160337500Y-84061300D03*
X158432500Y-84061300D03*
D27*
X158584900Y-86271100D03*
G04 #@! TD*
D26*
G04 #@! TO.C,U15*
X136588500Y-124117100D03*
X136588500Y-121907300D03*
X134683500Y-121907300D03*
D27*
X134835900Y-124117100D03*
G04 #@! TD*
D13*
G04 #@! TO.C,U16*
X112119000Y-111754000D03*
X112119000Y-114548000D03*
X112143000Y-117828000D03*
X114913000Y-119988000D03*
X117453000Y-119988000D03*
X119993000Y-119988000D03*
X122533000Y-119988000D03*
X125073000Y-119988000D03*
X127843000Y-117828000D03*
X127843000Y-114548000D03*
X127843000Y-111758000D03*
X125073000Y-109468000D03*
X122533000Y-109468000D03*
X119993000Y-109468000D03*
X117453000Y-109468000D03*
X114913000Y-109468000D03*
G04 #@! TD*
D26*
G04 #@! TO.C,U17*
X134683500Y-119418100D03*
X134683500Y-117208300D03*
X132778500Y-117208300D03*
D27*
X132930900Y-119418100D03*
G04 #@! TD*
D26*
G04 #@! TO.C,U18*
X132651500Y-113957100D03*
X132651500Y-111747300D03*
X130746500Y-111747300D03*
D27*
X130898900Y-113957100D03*
G04 #@! TD*
M02*
