M48
;DRILL file {KiCad 5.0.0} date Tue Jul 31 16:36:46 2018
;FORMAT={-:-/ absolute / inch / decimal}
FMAT,2
INCH,TZ
T1C0.0157
T2C0.0394
T3C0.1250
%
G90
G05
M72
T1
X3.43Y-4.283
X3.431Y-4.032
X3.431Y-4.132
X3.431Y-4.382
X3.471Y-3.682
X3.475Y-3.783
X3.475Y-3.882
X3.476Y-4.032
X3.476Y-4.882
X3.476Y-4.932
X3.477Y-4.682
X3.478Y-4.782
X3.479Y-4.083
X3.48Y-4.283
X3.481Y-4.132
X3.482Y-4.382
X3.556Y-3.482
X3.584Y-4.232
X3.591Y-4.333
X3.646Y-4.085
X4.859Y-5.459
X5.333Y-4.216
X5.97Y-3.089
T2
X3.7503Y-2.7
X3.7503Y-2.8
X3.8503Y-2.7
X3.8503Y-2.8
X3.9503Y-2.7
X3.9503Y-2.8
X4.0503Y-2.7
X4.0503Y-2.8
X4.1503Y-2.7
X4.1503Y-2.8
X4.2503Y-2.7
X4.2503Y-2.8
X4.3503Y-2.7
X4.3503Y-2.8
X4.4503Y-2.7
X4.4503Y-2.8
X4.5503Y-2.7
X4.5503Y-2.8
X4.6503Y-2.7
X4.6503Y-2.8
X4.7503Y-2.7
X4.7503Y-2.8
X4.8503Y-2.7
X4.8503Y-2.8
X4.9503Y-2.7
X4.9503Y-2.8
X5.0503Y-2.7
X5.0503Y-2.8
X5.1503Y-2.7
X5.1503Y-2.8
X5.2503Y-2.7
X5.2503Y-2.8
X5.3503Y-2.7
X5.3503Y-2.8
X5.4503Y-2.7
X5.4503Y-2.8
X5.5503Y-2.7
X5.5503Y-2.8
X5.6503Y-2.7
X5.6503Y-2.8
X5.7503Y-2.7
X5.7503Y-2.8
X5.8503Y-2.7
X5.8503Y-2.8
X5.9503Y-2.7
X5.9503Y-2.8
X6.0503Y-2.7
X6.0503Y-2.8
X6.1503Y-2.7
X6.1503Y-2.8
X6.2503Y-2.7
X6.2503Y-2.8
X3.455Y-3.3369
X3.455Y-5.0771
X3.456Y-3.3379
X3.456Y-5.0781
X3.7503Y-2.5
X3.7503Y-2.6
X3.8503Y-2.5
X3.8503Y-2.6
X3.9503Y-2.5
X3.9503Y-2.6
X4.0503Y-2.5
X4.0503Y-2.6
X4.1503Y-2.5
X4.1503Y-2.6
X4.2503Y-2.5
X4.2503Y-2.6
X4.3503Y-2.5
X4.3503Y-2.6
X4.4503Y-2.5
X4.4503Y-2.6
X4.5503Y-2.5
X4.5503Y-2.6
X4.6503Y-2.5
X4.6503Y-2.6
X4.7503Y-2.5
X4.7503Y-2.6
X4.8503Y-2.5
X4.8503Y-2.6
X4.9503Y-2.5
X4.9503Y-2.6
X5.0503Y-2.5
X5.0503Y-2.6
X5.1503Y-2.5
X5.1503Y-2.6
X5.2503Y-2.5
X5.2503Y-2.6
X5.3503Y-2.5
X5.3503Y-2.6
X5.4503Y-2.5
X5.4503Y-2.6
X5.5503Y-2.5
X5.5503Y-2.6
X5.6503Y-2.5
X5.6503Y-2.6
X5.7503Y-2.5
X5.7503Y-2.6
X5.8503Y-2.5
X5.8503Y-2.6
X5.9503Y-2.5
X5.9503Y-2.6
X6.0503Y-2.5
X6.0503Y-2.6
X6.1503Y-2.5
X6.1503Y-2.6
X6.2503Y-2.5
X6.2503Y-2.6
T3
X6.55Y-5.875
X6.45Y-2.5
X3.4Y-5.875
X3.55Y-2.5
T0
M30
