%TF.GenerationSoftware,KiCad,Pcbnew,5.0.0*%
%TF.CreationDate,2018-07-31T15:35:49-05:00*%
%TF.ProjectId,Header_Board,4865616465725F426F6172642E6B6963,rev?*%
%TF.SameCoordinates,Original*%
%TF.FileFunction,Legend,Top*%
%TF.FilePolarity,Positive*%
%FSLAX46Y46*%
G04 Gerber Fmt 4.6, Leading zero omitted, Abs format (unit mm)*
G04 Created by KiCad (PCBNEW 5.0.0) date Tue Jul 31 15:35:49 2018*
%MOMM*%
%LPD*%
G01*
G04 APERTURE LIST*
%ADD10C,0.300000*%
%ADD11C,0.150000*%
%ADD12C,0.120000*%
%ADD13C,0.010000*%
G04 APERTURE END LIST*
D10*
X98507000Y-147248428D02*
X98364142Y-147391285D01*
X97935571Y-147534142D01*
X97649857Y-147534142D01*
X97221285Y-147391285D01*
X96935571Y-147105571D01*
X96792714Y-146819857D01*
X96649857Y-146248428D01*
X96649857Y-145819857D01*
X96792714Y-145248428D01*
X96935571Y-144962714D01*
X97221285Y-144677000D01*
X97649857Y-144534142D01*
X97935571Y-144534142D01*
X98364142Y-144677000D01*
X98507000Y-144819857D01*
X99507000Y-145534142D02*
X100221285Y-147534142D01*
X100935571Y-145534142D02*
X100221285Y-147534142D01*
X99935571Y-148248428D01*
X99792714Y-148391285D01*
X99507000Y-148534142D01*
X101935571Y-147391285D02*
X102364142Y-147534142D01*
X103078428Y-147534142D01*
X103364142Y-147391285D01*
X103507000Y-147248428D01*
X103649857Y-146962714D01*
X103649857Y-146677000D01*
X103507000Y-146391285D01*
X103364142Y-146248428D01*
X103078428Y-146105571D01*
X102507000Y-145962714D01*
X102221285Y-145819857D01*
X102078428Y-145677000D01*
X101935571Y-145391285D01*
X101935571Y-145105571D01*
X102078428Y-144819857D01*
X102221285Y-144677000D01*
X102507000Y-144534142D01*
X103221285Y-144534142D01*
X103649857Y-144677000D01*
X106221285Y-147534142D02*
X106221285Y-145962714D01*
X106078428Y-145677000D01*
X105792714Y-145534142D01*
X105221285Y-145534142D01*
X104935571Y-145677000D01*
X106221285Y-147391285D02*
X105935571Y-147534142D01*
X105221285Y-147534142D01*
X104935571Y-147391285D01*
X104792714Y-147105571D01*
X104792714Y-146819857D01*
X104935571Y-146534142D01*
X105221285Y-146391285D01*
X105935571Y-146391285D01*
X106221285Y-146248428D01*
X107221285Y-145534142D02*
X108364142Y-145534142D01*
X107649857Y-144534142D02*
X107649857Y-147105571D01*
X107792714Y-147391285D01*
X108078428Y-147534142D01*
X108364142Y-147534142D01*
X113221285Y-147534142D02*
X111507000Y-147534142D01*
X112364142Y-147534142D02*
X112364142Y-144534142D01*
X112078428Y-144962714D01*
X111792714Y-145248428D01*
X111507000Y-145391285D01*
X116792714Y-146391285D02*
X119078428Y-146391285D01*
X124507000Y-147534142D02*
X123507000Y-146105571D01*
X122792714Y-147534142D02*
X122792714Y-144534142D01*
X123935571Y-144534142D01*
X124221285Y-144677000D01*
X124364142Y-144819857D01*
X124507000Y-145105571D01*
X124507000Y-145534142D01*
X124364142Y-145819857D01*
X124221285Y-145962714D01*
X123935571Y-146105571D01*
X122792714Y-146105571D01*
X126792714Y-145962714D02*
X125792714Y-145962714D01*
X125792714Y-147534142D02*
X125792714Y-144534142D01*
X127221285Y-144534142D01*
X131649857Y-145962714D02*
X132078428Y-146105571D01*
X132221285Y-146248428D01*
X132364142Y-146534142D01*
X132364142Y-146962714D01*
X132221285Y-147248428D01*
X132078428Y-147391285D01*
X131792714Y-147534142D01*
X130649857Y-147534142D01*
X130649857Y-144534142D01*
X131649857Y-144534142D01*
X131935571Y-144677000D01*
X132078428Y-144819857D01*
X132221285Y-145105571D01*
X132221285Y-145391285D01*
X132078428Y-145677000D01*
X131935571Y-145819857D01*
X131649857Y-145962714D01*
X130649857Y-145962714D01*
X134078428Y-147534142D02*
X133792714Y-147391285D01*
X133649857Y-147248428D01*
X133507000Y-146962714D01*
X133507000Y-146105571D01*
X133649857Y-145819857D01*
X133792714Y-145677000D01*
X134078428Y-145534142D01*
X134507000Y-145534142D01*
X134792714Y-145677000D01*
X134935571Y-145819857D01*
X135078428Y-146105571D01*
X135078428Y-146962714D01*
X134935571Y-147248428D01*
X134792714Y-147391285D01*
X134507000Y-147534142D01*
X134078428Y-147534142D01*
X137649857Y-147534142D02*
X137649857Y-145962714D01*
X137507000Y-145677000D01*
X137221285Y-145534142D01*
X136649857Y-145534142D01*
X136364142Y-145677000D01*
X137649857Y-147391285D02*
X137364142Y-147534142D01*
X136649857Y-147534142D01*
X136364142Y-147391285D01*
X136221285Y-147105571D01*
X136221285Y-146819857D01*
X136364142Y-146534142D01*
X136649857Y-146391285D01*
X137364142Y-146391285D01*
X137649857Y-146248428D01*
X139078428Y-147534142D02*
X139078428Y-145534142D01*
X139078428Y-146105571D02*
X139221285Y-145819857D01*
X139364142Y-145677000D01*
X139649857Y-145534142D01*
X139935571Y-145534142D01*
X142221285Y-147534142D02*
X142221285Y-144534142D01*
X142221285Y-147391285D02*
X141935571Y-147534142D01*
X141364142Y-147534142D01*
X141078428Y-147391285D01*
X140935571Y-147248428D01*
X140792714Y-146962714D01*
X140792714Y-146105571D01*
X140935571Y-145819857D01*
X141078428Y-145677000D01*
X141364142Y-145534142D01*
X141935571Y-145534142D01*
X142221285Y-145677000D01*
D11*
X137668000Y-154305000D02*
X171450000Y-154305000D01*
X81280000Y-154305000D02*
X117348000Y-154305000D01*
X81280000Y-116509800D02*
X81280000Y-154305000D01*
X81280000Y-58420000D02*
X81280000Y-96215200D01*
X137668000Y-58420000D02*
X166878000Y-58420000D01*
X81280000Y-58420000D02*
X117348000Y-58420000D01*
X171450000Y-81407000D02*
X171450000Y-154305000D01*
X83185000Y-116509800D02*
X81280000Y-116509800D01*
X83185000Y-96215200D02*
X83185000Y-116509800D01*
X81280000Y-96215200D02*
X83185000Y-96215200D01*
X137668000Y-151384000D02*
X137668000Y-154305000D01*
X117348000Y-151384000D02*
X137668000Y-151384000D01*
X117348000Y-154305000D02*
X117348000Y-151384000D01*
X166878000Y-81407000D02*
X171450000Y-81407000D01*
X166878000Y-58420000D02*
X166878000Y-81407000D01*
X137668000Y-61341000D02*
X137668000Y-58420000D01*
X117348000Y-61341000D02*
X137668000Y-61341000D01*
X117348000Y-58420000D02*
X117348000Y-61341000D01*
X143488000Y-82064000D02*
X143488000Y-86064000D01*
X143488000Y-86064000D02*
X151488000Y-86064000D01*
X151488000Y-86064000D02*
X151488000Y-82064000D01*
X151488000Y-82064000D02*
X143488000Y-82064000D01*
X141938000Y-80064000D02*
X144138000Y-80064000D01*
X144138000Y-80064000D02*
X144138000Y-78064000D01*
X144138000Y-78064000D02*
X141938000Y-78064000D01*
X141938000Y-78064000D02*
X141938000Y-80064000D01*
X150438000Y-78064000D02*
X150438000Y-80064000D01*
X152638000Y-78064000D02*
X150438000Y-78064000D01*
X152638000Y-80064000D02*
X152638000Y-78064000D01*
X150438000Y-80064000D02*
X152638000Y-80064000D01*
X153438000Y-80264000D02*
X155638000Y-80264000D01*
X155638000Y-80264000D02*
X155638000Y-78264000D01*
X155638000Y-78264000D02*
X153438000Y-78264000D01*
X153438000Y-78264000D02*
X153438000Y-80264000D01*
X153638000Y-83064000D02*
X153638000Y-85064000D01*
X155838000Y-83064000D02*
X153638000Y-83064000D01*
X155838000Y-85064000D02*
X155838000Y-83064000D01*
X153638000Y-85064000D02*
X155838000Y-85064000D01*
X150038000Y-90064000D02*
X152238000Y-90064000D01*
X152238000Y-90064000D02*
X152238000Y-88064000D01*
X152238000Y-88064000D02*
X150038000Y-88064000D01*
X150038000Y-88064000D02*
X150038000Y-90064000D01*
X147488000Y-88064000D02*
X147488000Y-90064000D01*
X149688000Y-88064000D02*
X147488000Y-88064000D01*
X149688000Y-90064000D02*
X149688000Y-88064000D01*
X147488000Y-90064000D02*
X149688000Y-90064000D01*
X144588000Y-90064000D02*
X146788000Y-90064000D01*
X146788000Y-90064000D02*
X146788000Y-88064000D01*
X146788000Y-88064000D02*
X144588000Y-88064000D01*
X144588000Y-88064000D02*
X144588000Y-90064000D01*
X142038000Y-88064000D02*
X142038000Y-90064000D01*
X144238000Y-88064000D02*
X142038000Y-88064000D01*
X144238000Y-90064000D02*
X144238000Y-88064000D01*
X142038000Y-90064000D02*
X144238000Y-90064000D01*
X138938000Y-89864000D02*
X141138000Y-89864000D01*
X141138000Y-89864000D02*
X141138000Y-87864000D01*
X141138000Y-87864000D02*
X138938000Y-87864000D01*
X138938000Y-87864000D02*
X138938000Y-89864000D01*
X138838000Y-83064000D02*
X138838000Y-85064000D01*
X141038000Y-83064000D02*
X138838000Y-83064000D01*
X141038000Y-85064000D02*
X141038000Y-83064000D01*
X138838000Y-85064000D02*
X141038000Y-85064000D01*
X138938000Y-80264000D02*
X141138000Y-80264000D01*
X141138000Y-80264000D02*
X141138000Y-78264000D01*
X141138000Y-78264000D02*
X138938000Y-78264000D01*
X138938000Y-78264000D02*
X138938000Y-80264000D01*
X154457000Y-105263000D02*
X152937000Y-105263000D01*
X154457000Y-106783000D02*
X154457000Y-105263000D01*
X152937000Y-106783000D02*
X154457000Y-106783000D01*
X152937000Y-105263000D02*
X152937000Y-106783000D01*
X152937000Y-105263000D02*
X152937000Y-106783000D01*
X152937000Y-106783000D02*
X154457000Y-106783000D01*
X154457000Y-106783000D02*
X154457000Y-105263000D01*
X154457000Y-105263000D02*
X152937000Y-105263000D01*
X154457000Y-102722800D02*
X152937000Y-102722800D01*
X154457000Y-104242800D02*
X154457000Y-102722800D01*
X152937000Y-104242800D02*
X154457000Y-104242800D01*
X152937000Y-102722800D02*
X152937000Y-104242800D01*
X152937000Y-102722800D02*
X152937000Y-104242800D01*
X152937000Y-104242800D02*
X154457000Y-104242800D01*
X154457000Y-104242800D02*
X154457000Y-102722800D01*
X154457000Y-102722800D02*
X152937000Y-102722800D01*
X154457000Y-100183000D02*
X152937000Y-100183000D01*
X154457000Y-101703000D02*
X154457000Y-100183000D01*
X152937000Y-101703000D02*
X154457000Y-101703000D01*
X152937000Y-100183000D02*
X152937000Y-101703000D01*
X152937000Y-100183000D02*
X152937000Y-101703000D01*
X152937000Y-101703000D02*
X154457000Y-101703000D01*
X154457000Y-101703000D02*
X154457000Y-100183000D01*
X154457000Y-100183000D02*
X152937000Y-100183000D01*
X154457000Y-97643000D02*
X152937000Y-97643000D01*
X154457000Y-99163000D02*
X154457000Y-97643000D01*
X152937000Y-99163000D02*
X154457000Y-99163000D01*
X152937000Y-97643000D02*
X152937000Y-99163000D01*
X152937000Y-97643000D02*
X152937000Y-99163000D01*
X152937000Y-99163000D02*
X154457000Y-99163000D01*
X154457000Y-99163000D02*
X154457000Y-97643000D01*
X154457000Y-97643000D02*
X152937000Y-97643000D01*
X154457000Y-95103000D02*
X152937000Y-95103000D01*
X154457000Y-96623000D02*
X154457000Y-95103000D01*
X152937000Y-96623000D02*
X154457000Y-96623000D01*
X152937000Y-95103000D02*
X152937000Y-96623000D01*
X152937000Y-95103000D02*
X152937000Y-96623000D01*
X152937000Y-96623000D02*
X154457000Y-96623000D01*
X154457000Y-96623000D02*
X154457000Y-95103000D01*
X154457000Y-95103000D02*
X152937000Y-95103000D01*
X156666600Y-108033000D02*
X155146600Y-108033000D01*
X156666600Y-109553000D02*
X156666600Y-108033000D01*
X155146600Y-109553000D02*
X156666600Y-109553000D01*
X155146600Y-108033000D02*
X155146600Y-109553000D01*
X155146600Y-108033000D02*
X155146600Y-109553000D01*
X155146600Y-109553000D02*
X156666600Y-109553000D01*
X156666600Y-109553000D02*
X156666600Y-108033000D01*
X156666600Y-108033000D02*
X155146600Y-108033000D01*
X159897000Y-108033000D02*
X158377000Y-108033000D01*
X159897000Y-109553000D02*
X159897000Y-108033000D01*
X158377000Y-109553000D02*
X159897000Y-109553000D01*
X158377000Y-108033000D02*
X158377000Y-109553000D01*
X158377000Y-108033000D02*
X158377000Y-109553000D01*
X158377000Y-109553000D02*
X159897000Y-109553000D01*
X159897000Y-109553000D02*
X159897000Y-108033000D01*
X159897000Y-108033000D02*
X158377000Y-108033000D01*
X162687000Y-108033000D02*
X161167000Y-108033000D01*
X162687000Y-109553000D02*
X162687000Y-108033000D01*
X161167000Y-109553000D02*
X162687000Y-109553000D01*
X161167000Y-108033000D02*
X161167000Y-109553000D01*
X161167000Y-108033000D02*
X161167000Y-109553000D01*
X161167000Y-109553000D02*
X162687000Y-109553000D01*
X162687000Y-109553000D02*
X162687000Y-108033000D01*
X162687000Y-108033000D02*
X161167000Y-108033000D01*
X164977000Y-105263000D02*
X163457000Y-105263000D01*
X164977000Y-106783000D02*
X164977000Y-105263000D01*
X163457000Y-106783000D02*
X164977000Y-106783000D01*
X163457000Y-105263000D02*
X163457000Y-106783000D01*
X163457000Y-105263000D02*
X163457000Y-106783000D01*
X163457000Y-106783000D02*
X164977000Y-106783000D01*
X164977000Y-106783000D02*
X164977000Y-105263000D01*
X164977000Y-105263000D02*
X163457000Y-105263000D01*
X164977000Y-102723000D02*
X163457000Y-102723000D01*
X164977000Y-104243000D02*
X164977000Y-102723000D01*
X163457000Y-104243000D02*
X164977000Y-104243000D01*
X163457000Y-102723000D02*
X163457000Y-104243000D01*
X163457000Y-102723000D02*
X163457000Y-104243000D01*
X163457000Y-104243000D02*
X164977000Y-104243000D01*
X164977000Y-104243000D02*
X164977000Y-102723000D01*
X164977000Y-102723000D02*
X163457000Y-102723000D01*
X164977000Y-100183000D02*
X163457000Y-100183000D01*
X164977000Y-101703000D02*
X164977000Y-100183000D01*
X163457000Y-101703000D02*
X164977000Y-101703000D01*
X163457000Y-100183000D02*
X163457000Y-101703000D01*
X163457000Y-100183000D02*
X163457000Y-101703000D01*
X163457000Y-101703000D02*
X164977000Y-101703000D01*
X164977000Y-101703000D02*
X164977000Y-100183000D01*
X164977000Y-100183000D02*
X163457000Y-100183000D01*
X164977000Y-97643000D02*
X163457000Y-97643000D01*
X164977000Y-99163000D02*
X164977000Y-97643000D01*
X163457000Y-99163000D02*
X164977000Y-99163000D01*
X163457000Y-97643000D02*
X163457000Y-99163000D01*
X163457000Y-97643000D02*
X163457000Y-99163000D01*
X163457000Y-99163000D02*
X164977000Y-99163000D01*
X164977000Y-99163000D02*
X164977000Y-97643000D01*
X164977000Y-97643000D02*
X163457000Y-97643000D01*
X164977000Y-95103000D02*
X163457000Y-95103000D01*
X164977000Y-96623000D02*
X164977000Y-95103000D01*
X163457000Y-96623000D02*
X164977000Y-96623000D01*
X163457000Y-95103000D02*
X163457000Y-96623000D01*
X163457000Y-95103000D02*
X163457000Y-96623000D01*
X163457000Y-96623000D02*
X164977000Y-96623000D01*
X164977000Y-96623000D02*
X164977000Y-95103000D01*
X164977000Y-95103000D02*
X163457000Y-95103000D01*
X156617000Y-92333000D02*
X155097000Y-92333000D01*
X156617000Y-93853000D02*
X156617000Y-92333000D01*
X155097000Y-93853000D02*
X156617000Y-93853000D01*
X155097000Y-92333000D02*
X155097000Y-93853000D01*
X155097000Y-92333000D02*
X155097000Y-93853000D01*
X155097000Y-93853000D02*
X156617000Y-93853000D01*
X156617000Y-93853000D02*
X156617000Y-92333000D01*
X156617000Y-92333000D02*
X155097000Y-92333000D01*
X162687000Y-92333000D02*
X161167000Y-92333000D01*
X162687000Y-93853000D02*
X162687000Y-92333000D01*
X161167000Y-93853000D02*
X162687000Y-93853000D01*
X161167000Y-92333000D02*
X161167000Y-93853000D01*
X161167000Y-92333000D02*
X161167000Y-93853000D01*
X161167000Y-93853000D02*
X162687000Y-93853000D01*
X162687000Y-93853000D02*
X162687000Y-92333000D01*
X162687000Y-92333000D02*
X161167000Y-92333000D01*
X159897000Y-92333000D02*
X158377000Y-92333000D01*
X159897000Y-93853000D02*
X159897000Y-92333000D01*
X158377000Y-93853000D02*
X159897000Y-93853000D01*
X158377000Y-92333000D02*
X158377000Y-93853000D01*
X158377000Y-92333000D02*
X158377000Y-93853000D01*
X158377000Y-93853000D02*
X159897000Y-93853000D01*
X159897000Y-93853000D02*
X159897000Y-92333000D01*
X159897000Y-92333000D02*
X158377000Y-92333000D01*
D12*
X90677000Y-128707800D02*
X90677000Y-83737800D01*
X84837000Y-129977800D02*
X84837000Y-83737800D01*
X89407000Y-129977800D02*
X84837000Y-129977800D01*
X90677000Y-83737800D02*
X84837000Y-83737800D01*
X90677000Y-128707800D02*
X89407000Y-129977800D01*
X107571000Y-83074000D02*
X107571000Y-85074000D01*
X114171000Y-83074000D02*
X114171000Y-85074000D01*
X107825000Y-137049000D02*
X107825000Y-139049000D01*
X114425000Y-137049000D02*
X114425000Y-139049000D01*
D11*
X143278000Y-103483000D02*
X143278000Y-99483000D01*
X143278000Y-99483000D02*
X135278000Y-99483000D01*
X135278000Y-99483000D02*
X135278000Y-103483000D01*
X135278000Y-103483000D02*
X143278000Y-103483000D01*
X144828000Y-105483000D02*
X142628000Y-105483000D01*
X142628000Y-105483000D02*
X142628000Y-107483000D01*
X142628000Y-107483000D02*
X144828000Y-107483000D01*
X144828000Y-107483000D02*
X144828000Y-105483000D01*
X136328000Y-107483000D02*
X136328000Y-105483000D01*
X134128000Y-107483000D02*
X136328000Y-107483000D01*
X134128000Y-105483000D02*
X134128000Y-107483000D01*
X136328000Y-105483000D02*
X134128000Y-105483000D01*
X133328000Y-105283000D02*
X131128000Y-105283000D01*
X131128000Y-105283000D02*
X131128000Y-107283000D01*
X131128000Y-107283000D02*
X133328000Y-107283000D01*
X133328000Y-107283000D02*
X133328000Y-105283000D01*
X133128000Y-102483000D02*
X133128000Y-100483000D01*
X130928000Y-102483000D02*
X133128000Y-102483000D01*
X130928000Y-100483000D02*
X130928000Y-102483000D01*
X133128000Y-100483000D02*
X130928000Y-100483000D01*
X136728000Y-95483000D02*
X134528000Y-95483000D01*
X134528000Y-95483000D02*
X134528000Y-97483000D01*
X134528000Y-97483000D02*
X136728000Y-97483000D01*
X136728000Y-97483000D02*
X136728000Y-95483000D01*
X139278000Y-97483000D02*
X139278000Y-95483000D01*
X137078000Y-97483000D02*
X139278000Y-97483000D01*
X137078000Y-95483000D02*
X137078000Y-97483000D01*
X139278000Y-95483000D02*
X137078000Y-95483000D01*
X142178000Y-95483000D02*
X139978000Y-95483000D01*
X139978000Y-95483000D02*
X139978000Y-97483000D01*
X139978000Y-97483000D02*
X142178000Y-97483000D01*
X142178000Y-97483000D02*
X142178000Y-95483000D01*
X144728000Y-97483000D02*
X144728000Y-95483000D01*
X142528000Y-97483000D02*
X144728000Y-97483000D01*
X142528000Y-95483000D02*
X142528000Y-97483000D01*
X144728000Y-95483000D02*
X142528000Y-95483000D01*
X147828000Y-95683000D02*
X145628000Y-95683000D01*
X145628000Y-95683000D02*
X145628000Y-97683000D01*
X145628000Y-97683000D02*
X147828000Y-97683000D01*
X147828000Y-97683000D02*
X147828000Y-95683000D01*
X147928000Y-102483000D02*
X147928000Y-100483000D01*
X145728000Y-102483000D02*
X147928000Y-102483000D01*
X145728000Y-100483000D02*
X145728000Y-102483000D01*
X147928000Y-100483000D02*
X145728000Y-100483000D01*
X147828000Y-105283000D02*
X145628000Y-105283000D01*
X145628000Y-105283000D02*
X145628000Y-107283000D01*
X145628000Y-107283000D02*
X147828000Y-107283000D01*
X147828000Y-107283000D02*
X147828000Y-105283000D01*
X131806000Y-91542000D02*
X131806000Y-93062000D01*
X133326000Y-91542000D02*
X131806000Y-91542000D01*
X133326000Y-93062000D02*
X133326000Y-91542000D01*
X131806000Y-93062000D02*
X133326000Y-93062000D01*
X131806000Y-93062000D02*
X133326000Y-93062000D01*
X133326000Y-93062000D02*
X133326000Y-91542000D01*
X133326000Y-91542000D02*
X131806000Y-91542000D01*
X131806000Y-91542000D02*
X131806000Y-93062000D01*
X129265800Y-91542000D02*
X129265800Y-93062000D01*
X130785800Y-91542000D02*
X129265800Y-91542000D01*
X130785800Y-93062000D02*
X130785800Y-91542000D01*
X129265800Y-93062000D02*
X130785800Y-93062000D01*
X129265800Y-93062000D02*
X130785800Y-93062000D01*
X130785800Y-93062000D02*
X130785800Y-91542000D01*
X130785800Y-91542000D02*
X129265800Y-91542000D01*
X129265800Y-91542000D02*
X129265800Y-93062000D01*
X126726000Y-91542000D02*
X126726000Y-93062000D01*
X128246000Y-91542000D02*
X126726000Y-91542000D01*
X128246000Y-93062000D02*
X128246000Y-91542000D01*
X126726000Y-93062000D02*
X128246000Y-93062000D01*
X126726000Y-93062000D02*
X128246000Y-93062000D01*
X128246000Y-93062000D02*
X128246000Y-91542000D01*
X128246000Y-91542000D02*
X126726000Y-91542000D01*
X126726000Y-91542000D02*
X126726000Y-93062000D01*
X124186000Y-91542000D02*
X124186000Y-93062000D01*
X125706000Y-91542000D02*
X124186000Y-91542000D01*
X125706000Y-93062000D02*
X125706000Y-91542000D01*
X124186000Y-93062000D02*
X125706000Y-93062000D01*
X124186000Y-93062000D02*
X125706000Y-93062000D01*
X125706000Y-93062000D02*
X125706000Y-91542000D01*
X125706000Y-91542000D02*
X124186000Y-91542000D01*
X124186000Y-91542000D02*
X124186000Y-93062000D01*
X121646000Y-91542000D02*
X121646000Y-93062000D01*
X123166000Y-91542000D02*
X121646000Y-91542000D01*
X123166000Y-93062000D02*
X123166000Y-91542000D01*
X121646000Y-93062000D02*
X123166000Y-93062000D01*
X121646000Y-93062000D02*
X123166000Y-93062000D01*
X123166000Y-93062000D02*
X123166000Y-91542000D01*
X123166000Y-91542000D02*
X121646000Y-91542000D01*
X121646000Y-91542000D02*
X121646000Y-93062000D01*
X134576000Y-89332400D02*
X134576000Y-90852400D01*
X136096000Y-89332400D02*
X134576000Y-89332400D01*
X136096000Y-90852400D02*
X136096000Y-89332400D01*
X134576000Y-90852400D02*
X136096000Y-90852400D01*
X134576000Y-90852400D02*
X136096000Y-90852400D01*
X136096000Y-90852400D02*
X136096000Y-89332400D01*
X136096000Y-89332400D02*
X134576000Y-89332400D01*
X134576000Y-89332400D02*
X134576000Y-90852400D01*
X134576000Y-86102000D02*
X134576000Y-87622000D01*
X136096000Y-86102000D02*
X134576000Y-86102000D01*
X136096000Y-87622000D02*
X136096000Y-86102000D01*
X134576000Y-87622000D02*
X136096000Y-87622000D01*
X134576000Y-87622000D02*
X136096000Y-87622000D01*
X136096000Y-87622000D02*
X136096000Y-86102000D01*
X136096000Y-86102000D02*
X134576000Y-86102000D01*
X134576000Y-86102000D02*
X134576000Y-87622000D01*
X134576000Y-83312000D02*
X134576000Y-84832000D01*
X136096000Y-83312000D02*
X134576000Y-83312000D01*
X136096000Y-84832000D02*
X136096000Y-83312000D01*
X134576000Y-84832000D02*
X136096000Y-84832000D01*
X134576000Y-84832000D02*
X136096000Y-84832000D01*
X136096000Y-84832000D02*
X136096000Y-83312000D01*
X136096000Y-83312000D02*
X134576000Y-83312000D01*
X134576000Y-83312000D02*
X134576000Y-84832000D01*
X131806000Y-81022000D02*
X131806000Y-82542000D01*
X133326000Y-81022000D02*
X131806000Y-81022000D01*
X133326000Y-82542000D02*
X133326000Y-81022000D01*
X131806000Y-82542000D02*
X133326000Y-82542000D01*
X131806000Y-82542000D02*
X133326000Y-82542000D01*
X133326000Y-82542000D02*
X133326000Y-81022000D01*
X133326000Y-81022000D02*
X131806000Y-81022000D01*
X131806000Y-81022000D02*
X131806000Y-82542000D01*
X129266000Y-81022000D02*
X129266000Y-82542000D01*
X130786000Y-81022000D02*
X129266000Y-81022000D01*
X130786000Y-82542000D02*
X130786000Y-81022000D01*
X129266000Y-82542000D02*
X130786000Y-82542000D01*
X129266000Y-82542000D02*
X130786000Y-82542000D01*
X130786000Y-82542000D02*
X130786000Y-81022000D01*
X130786000Y-81022000D02*
X129266000Y-81022000D01*
X129266000Y-81022000D02*
X129266000Y-82542000D01*
X126726000Y-81022000D02*
X126726000Y-82542000D01*
X128246000Y-81022000D02*
X126726000Y-81022000D01*
X128246000Y-82542000D02*
X128246000Y-81022000D01*
X126726000Y-82542000D02*
X128246000Y-82542000D01*
X126726000Y-82542000D02*
X128246000Y-82542000D01*
X128246000Y-82542000D02*
X128246000Y-81022000D01*
X128246000Y-81022000D02*
X126726000Y-81022000D01*
X126726000Y-81022000D02*
X126726000Y-82542000D01*
X124186000Y-81022000D02*
X124186000Y-82542000D01*
X125706000Y-81022000D02*
X124186000Y-81022000D01*
X125706000Y-82542000D02*
X125706000Y-81022000D01*
X124186000Y-82542000D02*
X125706000Y-82542000D01*
X124186000Y-82542000D02*
X125706000Y-82542000D01*
X125706000Y-82542000D02*
X125706000Y-81022000D01*
X125706000Y-81022000D02*
X124186000Y-81022000D01*
X124186000Y-81022000D02*
X124186000Y-82542000D01*
X121646000Y-81022000D02*
X121646000Y-82542000D01*
X123166000Y-81022000D02*
X121646000Y-81022000D01*
X123166000Y-82542000D02*
X123166000Y-81022000D01*
X121646000Y-82542000D02*
X123166000Y-82542000D01*
X121646000Y-82542000D02*
X123166000Y-82542000D01*
X123166000Y-82542000D02*
X123166000Y-81022000D01*
X123166000Y-81022000D02*
X121646000Y-81022000D01*
X121646000Y-81022000D02*
X121646000Y-82542000D01*
X118876000Y-89382000D02*
X118876000Y-90902000D01*
X120396000Y-89382000D02*
X118876000Y-89382000D01*
X120396000Y-90902000D02*
X120396000Y-89382000D01*
X118876000Y-90902000D02*
X120396000Y-90902000D01*
X118876000Y-90902000D02*
X120396000Y-90902000D01*
X120396000Y-90902000D02*
X120396000Y-89382000D01*
X120396000Y-89382000D02*
X118876000Y-89382000D01*
X118876000Y-89382000D02*
X118876000Y-90902000D01*
X118876000Y-83312000D02*
X118876000Y-84832000D01*
X120396000Y-83312000D02*
X118876000Y-83312000D01*
X120396000Y-84832000D02*
X120396000Y-83312000D01*
X118876000Y-84832000D02*
X120396000Y-84832000D01*
X118876000Y-84832000D02*
X120396000Y-84832000D01*
X120396000Y-84832000D02*
X120396000Y-83312000D01*
X120396000Y-83312000D02*
X118876000Y-83312000D01*
X118876000Y-83312000D02*
X118876000Y-84832000D01*
X118876000Y-86102000D02*
X118876000Y-87622000D01*
X120396000Y-86102000D02*
X118876000Y-86102000D01*
X120396000Y-87622000D02*
X120396000Y-86102000D01*
X118876000Y-87622000D02*
X120396000Y-87622000D01*
X118876000Y-87622000D02*
X120396000Y-87622000D01*
X120396000Y-87622000D02*
X120396000Y-86102000D01*
X120396000Y-86102000D02*
X118876000Y-86102000D01*
X118876000Y-86102000D02*
X118876000Y-87622000D01*
X153365200Y-112445800D02*
X153365200Y-111252000D01*
X154660600Y-112445800D02*
X153365200Y-112445800D01*
X154660600Y-111252000D02*
X154660600Y-112445800D01*
X153365200Y-111252000D02*
X154660600Y-111252000D01*
X153365200Y-113157000D02*
X154660600Y-113157000D01*
X154660600Y-113157000D02*
X154660600Y-114046000D01*
X154660600Y-114046000D02*
X153365200Y-114046000D01*
X153365200Y-114046000D02*
X153365200Y-113157000D01*
X155575000Y-114046000D02*
X155575000Y-113157000D01*
X156870400Y-114046000D02*
X155575000Y-114046000D01*
X156870400Y-113157000D02*
X156870400Y-114046000D01*
X155575000Y-113157000D02*
X156870400Y-113157000D01*
X155575000Y-111252000D02*
X156870400Y-111252000D01*
X156870400Y-111252000D02*
X156870400Y-112141000D01*
X156870400Y-112141000D02*
X155575000Y-112141000D01*
X155575000Y-112141000D02*
X155575000Y-111252000D01*
X158953200Y-112318800D02*
X158953200Y-111125000D01*
X160248600Y-112318800D02*
X158953200Y-112318800D01*
X160248600Y-111125000D02*
X160248600Y-112318800D01*
X158953200Y-111125000D02*
X160248600Y-111125000D01*
X158953200Y-113030000D02*
X160248600Y-113030000D01*
X160248600Y-113030000D02*
X160248600Y-113919000D01*
X160248600Y-113919000D02*
X158953200Y-113919000D01*
X158953200Y-113919000D02*
X158953200Y-113030000D01*
X161163000Y-113919000D02*
X161163000Y-113030000D01*
X162458400Y-113919000D02*
X161163000Y-113919000D01*
X162458400Y-113030000D02*
X162458400Y-113919000D01*
X161163000Y-113030000D02*
X162458400Y-113030000D01*
X161163000Y-111125000D02*
X162458400Y-111125000D01*
X162458400Y-111125000D02*
X162458400Y-112014000D01*
X162458400Y-112014000D02*
X161163000Y-112014000D01*
X161163000Y-112014000D02*
X161163000Y-111125000D01*
X125425200Y-102031800D02*
X125425200Y-100838000D01*
X126720600Y-102031800D02*
X125425200Y-102031800D01*
X126720600Y-100838000D02*
X126720600Y-102031800D01*
X125425200Y-100838000D02*
X126720600Y-100838000D01*
X125425200Y-102743000D02*
X126720600Y-102743000D01*
X126720600Y-102743000D02*
X126720600Y-103632000D01*
X126720600Y-103632000D02*
X125425200Y-103632000D01*
X125425200Y-103632000D02*
X125425200Y-102743000D01*
X127635000Y-103632000D02*
X127635000Y-102743000D01*
X128930400Y-103632000D02*
X127635000Y-103632000D01*
X128930400Y-102743000D02*
X128930400Y-103632000D01*
X127635000Y-102743000D02*
X128930400Y-102743000D01*
X127635000Y-100838000D02*
X128930400Y-100838000D01*
X128930400Y-100838000D02*
X128930400Y-101727000D01*
X128930400Y-101727000D02*
X127635000Y-101727000D01*
X127635000Y-101727000D02*
X127635000Y-100838000D01*
X122631200Y-100279200D02*
X123825000Y-100279200D01*
X122631200Y-101574600D02*
X122631200Y-100279200D01*
X123825000Y-101574600D02*
X122631200Y-101574600D01*
X123825000Y-100279200D02*
X123825000Y-101574600D01*
X121920000Y-100279200D02*
X121920000Y-101574600D01*
X121920000Y-101574600D02*
X121031000Y-101574600D01*
X121031000Y-101574600D02*
X121031000Y-100279200D01*
X121031000Y-100279200D02*
X121920000Y-100279200D01*
X121031000Y-102489000D02*
X121920000Y-102489000D01*
X121031000Y-103784400D02*
X121031000Y-102489000D01*
X121920000Y-103784400D02*
X121031000Y-103784400D01*
X121920000Y-102489000D02*
X121920000Y-103784400D01*
X123825000Y-102489000D02*
X123825000Y-103784400D01*
X123825000Y-103784400D02*
X122936000Y-103784400D01*
X122936000Y-103784400D02*
X122936000Y-102489000D01*
X122936000Y-102489000D02*
X123825000Y-102489000D01*
X116281200Y-102031800D02*
X116281200Y-100838000D01*
X117576600Y-102031800D02*
X116281200Y-102031800D01*
X117576600Y-100838000D02*
X117576600Y-102031800D01*
X116281200Y-100838000D02*
X117576600Y-100838000D01*
X116281200Y-102743000D02*
X117576600Y-102743000D01*
X117576600Y-102743000D02*
X117576600Y-103632000D01*
X117576600Y-103632000D02*
X116281200Y-103632000D01*
X116281200Y-103632000D02*
X116281200Y-102743000D01*
X118491000Y-103632000D02*
X118491000Y-102743000D01*
X119786400Y-103632000D02*
X118491000Y-103632000D01*
X119786400Y-102743000D02*
X119786400Y-103632000D01*
X118491000Y-102743000D02*
X119786400Y-102743000D01*
X118491000Y-100838000D02*
X119786400Y-100838000D01*
X119786400Y-100838000D02*
X119786400Y-101727000D01*
X119786400Y-101727000D02*
X118491000Y-101727000D01*
X118491000Y-101727000D02*
X118491000Y-100838000D01*
X111328200Y-104063800D02*
X111328200Y-102870000D01*
X112623600Y-104063800D02*
X111328200Y-104063800D01*
X112623600Y-102870000D02*
X112623600Y-104063800D01*
X111328200Y-102870000D02*
X112623600Y-102870000D01*
X111328200Y-104775000D02*
X112623600Y-104775000D01*
X112623600Y-104775000D02*
X112623600Y-105664000D01*
X112623600Y-105664000D02*
X111328200Y-105664000D01*
X111328200Y-105664000D02*
X111328200Y-104775000D01*
X113538000Y-105664000D02*
X113538000Y-104775000D01*
X114833400Y-105664000D02*
X113538000Y-105664000D01*
X114833400Y-104775000D02*
X114833400Y-105664000D01*
X113538000Y-104775000D02*
X114833400Y-104775000D01*
X113538000Y-102870000D02*
X114833400Y-102870000D01*
X114833400Y-102870000D02*
X114833400Y-103759000D01*
X114833400Y-103759000D02*
X113538000Y-103759000D01*
X113538000Y-103759000D02*
X113538000Y-102870000D01*
X106121200Y-105968800D02*
X106121200Y-104775000D01*
X107416600Y-105968800D02*
X106121200Y-105968800D01*
X107416600Y-104775000D02*
X107416600Y-105968800D01*
X106121200Y-104775000D02*
X107416600Y-104775000D01*
X106121200Y-106680000D02*
X107416600Y-106680000D01*
X107416600Y-106680000D02*
X107416600Y-107569000D01*
X107416600Y-107569000D02*
X106121200Y-107569000D01*
X106121200Y-107569000D02*
X106121200Y-106680000D01*
X108331000Y-107569000D02*
X108331000Y-106680000D01*
X109626400Y-107569000D02*
X108331000Y-107569000D01*
X109626400Y-106680000D02*
X109626400Y-107569000D01*
X108331000Y-106680000D02*
X109626400Y-106680000D01*
X108331000Y-104775000D02*
X109626400Y-104775000D01*
X109626400Y-104775000D02*
X109626400Y-105664000D01*
X109626400Y-105664000D02*
X108331000Y-105664000D01*
X108331000Y-105664000D02*
X108331000Y-104775000D01*
X131467000Y-134979000D02*
X131467000Y-130979000D01*
X131467000Y-130979000D02*
X123467000Y-130979000D01*
X123467000Y-130979000D02*
X123467000Y-134979000D01*
X123467000Y-134979000D02*
X131467000Y-134979000D01*
X133017000Y-136979000D02*
X130817000Y-136979000D01*
X130817000Y-136979000D02*
X130817000Y-138979000D01*
X130817000Y-138979000D02*
X133017000Y-138979000D01*
X133017000Y-138979000D02*
X133017000Y-136979000D01*
X124517000Y-138979000D02*
X124517000Y-136979000D01*
X122317000Y-138979000D02*
X124517000Y-138979000D01*
X122317000Y-136979000D02*
X122317000Y-138979000D01*
X124517000Y-136979000D02*
X122317000Y-136979000D01*
X121517000Y-136779000D02*
X119317000Y-136779000D01*
X119317000Y-136779000D02*
X119317000Y-138779000D01*
X119317000Y-138779000D02*
X121517000Y-138779000D01*
X121517000Y-138779000D02*
X121517000Y-136779000D01*
X121317000Y-133979000D02*
X121317000Y-131979000D01*
X119117000Y-133979000D02*
X121317000Y-133979000D01*
X119117000Y-131979000D02*
X119117000Y-133979000D01*
X121317000Y-131979000D02*
X119117000Y-131979000D01*
X124917000Y-126979000D02*
X122717000Y-126979000D01*
X122717000Y-126979000D02*
X122717000Y-128979000D01*
X122717000Y-128979000D02*
X124917000Y-128979000D01*
X124917000Y-128979000D02*
X124917000Y-126979000D01*
X127467000Y-128979000D02*
X127467000Y-126979000D01*
X125267000Y-128979000D02*
X127467000Y-128979000D01*
X125267000Y-126979000D02*
X125267000Y-128979000D01*
X127467000Y-126979000D02*
X125267000Y-126979000D01*
X130367000Y-126979000D02*
X128167000Y-126979000D01*
X128167000Y-126979000D02*
X128167000Y-128979000D01*
X128167000Y-128979000D02*
X130367000Y-128979000D01*
X130367000Y-128979000D02*
X130367000Y-126979000D01*
X132917000Y-128979000D02*
X132917000Y-126979000D01*
X130717000Y-128979000D02*
X132917000Y-128979000D01*
X130717000Y-126979000D02*
X130717000Y-128979000D01*
X132917000Y-126979000D02*
X130717000Y-126979000D01*
X136017000Y-127179000D02*
X133817000Y-127179000D01*
X133817000Y-127179000D02*
X133817000Y-129179000D01*
X133817000Y-129179000D02*
X136017000Y-129179000D01*
X136017000Y-129179000D02*
X136017000Y-127179000D01*
X136117000Y-133979000D02*
X136117000Y-131979000D01*
X133917000Y-133979000D02*
X136117000Y-133979000D01*
X133917000Y-131979000D02*
X133917000Y-133979000D01*
X136117000Y-131979000D02*
X133917000Y-131979000D01*
X136017000Y-136779000D02*
X133817000Y-136779000D01*
X133817000Y-136779000D02*
X133817000Y-138779000D01*
X133817000Y-138779000D02*
X136017000Y-138779000D01*
X136017000Y-138779000D02*
X136017000Y-136779000D01*
X107492800Y-112318800D02*
X106299000Y-112318800D01*
X107492800Y-111023400D02*
X107492800Y-112318800D01*
X106299000Y-111023400D02*
X107492800Y-111023400D01*
X106299000Y-112318800D02*
X106299000Y-111023400D01*
X108204000Y-112318800D02*
X108204000Y-111023400D01*
X108204000Y-111023400D02*
X109093000Y-111023400D01*
X109093000Y-111023400D02*
X109093000Y-112318800D01*
X109093000Y-112318800D02*
X108204000Y-112318800D01*
X109093000Y-110109000D02*
X108204000Y-110109000D01*
X109093000Y-108813600D02*
X109093000Y-110109000D01*
X108204000Y-108813600D02*
X109093000Y-108813600D01*
X108204000Y-110109000D02*
X108204000Y-108813600D01*
X106299000Y-110109000D02*
X106299000Y-108813600D01*
X106299000Y-108813600D02*
X107188000Y-108813600D01*
X107188000Y-108813600D02*
X107188000Y-110109000D01*
X107188000Y-110109000D02*
X106299000Y-110109000D01*
X159181800Y-86918800D02*
X157988000Y-86918800D01*
X159181800Y-85623400D02*
X159181800Y-86918800D01*
X157988000Y-85623400D02*
X159181800Y-85623400D01*
X157988000Y-86918800D02*
X157988000Y-85623400D01*
X159893000Y-86918800D02*
X159893000Y-85623400D01*
X159893000Y-85623400D02*
X160782000Y-85623400D01*
X160782000Y-85623400D02*
X160782000Y-86918800D01*
X160782000Y-86918800D02*
X159893000Y-86918800D01*
X160782000Y-84709000D02*
X159893000Y-84709000D01*
X160782000Y-83413600D02*
X160782000Y-84709000D01*
X159893000Y-83413600D02*
X160782000Y-83413600D01*
X159893000Y-84709000D02*
X159893000Y-83413600D01*
X157988000Y-84709000D02*
X157988000Y-83413600D01*
X157988000Y-83413600D02*
X158877000Y-83413600D01*
X158877000Y-83413600D02*
X158877000Y-84709000D01*
X158877000Y-84709000D02*
X157988000Y-84709000D01*
X135432800Y-124764800D02*
X134239000Y-124764800D01*
X135432800Y-123469400D02*
X135432800Y-124764800D01*
X134239000Y-123469400D02*
X135432800Y-123469400D01*
X134239000Y-124764800D02*
X134239000Y-123469400D01*
X136144000Y-124764800D02*
X136144000Y-123469400D01*
X136144000Y-123469400D02*
X137033000Y-123469400D01*
X137033000Y-123469400D02*
X137033000Y-124764800D01*
X137033000Y-124764800D02*
X136144000Y-124764800D01*
X137033000Y-122555000D02*
X136144000Y-122555000D01*
X137033000Y-121259600D02*
X137033000Y-122555000D01*
X136144000Y-121259600D02*
X137033000Y-121259600D01*
X136144000Y-122555000D02*
X136144000Y-121259600D01*
X134239000Y-122555000D02*
X134239000Y-121259600D01*
X134239000Y-121259600D02*
X135128000Y-121259600D01*
X135128000Y-121259600D02*
X135128000Y-122555000D01*
X135128000Y-122555000D02*
X134239000Y-122555000D01*
X124313000Y-119228000D02*
X124313000Y-120748000D01*
X125833000Y-119228000D02*
X124313000Y-119228000D01*
X125833000Y-120748000D02*
X125833000Y-119228000D01*
X124313000Y-120748000D02*
X125833000Y-120748000D01*
X124313000Y-120748000D02*
X125833000Y-120748000D01*
X125833000Y-120748000D02*
X125833000Y-119228000D01*
X125833000Y-119228000D02*
X124313000Y-119228000D01*
X124313000Y-119228000D02*
X124313000Y-120748000D01*
X121772800Y-119228000D02*
X121772800Y-120748000D01*
X123292800Y-119228000D02*
X121772800Y-119228000D01*
X123292800Y-120748000D02*
X123292800Y-119228000D01*
X121772800Y-120748000D02*
X123292800Y-120748000D01*
X121772800Y-120748000D02*
X123292800Y-120748000D01*
X123292800Y-120748000D02*
X123292800Y-119228000D01*
X123292800Y-119228000D02*
X121772800Y-119228000D01*
X121772800Y-119228000D02*
X121772800Y-120748000D01*
X119233000Y-119228000D02*
X119233000Y-120748000D01*
X120753000Y-119228000D02*
X119233000Y-119228000D01*
X120753000Y-120748000D02*
X120753000Y-119228000D01*
X119233000Y-120748000D02*
X120753000Y-120748000D01*
X119233000Y-120748000D02*
X120753000Y-120748000D01*
X120753000Y-120748000D02*
X120753000Y-119228000D01*
X120753000Y-119228000D02*
X119233000Y-119228000D01*
X119233000Y-119228000D02*
X119233000Y-120748000D01*
X116693000Y-119228000D02*
X116693000Y-120748000D01*
X118213000Y-119228000D02*
X116693000Y-119228000D01*
X118213000Y-120748000D02*
X118213000Y-119228000D01*
X116693000Y-120748000D02*
X118213000Y-120748000D01*
X116693000Y-120748000D02*
X118213000Y-120748000D01*
X118213000Y-120748000D02*
X118213000Y-119228000D01*
X118213000Y-119228000D02*
X116693000Y-119228000D01*
X116693000Y-119228000D02*
X116693000Y-120748000D01*
X114153000Y-119228000D02*
X114153000Y-120748000D01*
X115673000Y-119228000D02*
X114153000Y-119228000D01*
X115673000Y-120748000D02*
X115673000Y-119228000D01*
X114153000Y-120748000D02*
X115673000Y-120748000D01*
X114153000Y-120748000D02*
X115673000Y-120748000D01*
X115673000Y-120748000D02*
X115673000Y-119228000D01*
X115673000Y-119228000D02*
X114153000Y-119228000D01*
X114153000Y-119228000D02*
X114153000Y-120748000D01*
X127083000Y-117018400D02*
X127083000Y-118538400D01*
X128603000Y-117018400D02*
X127083000Y-117018400D01*
X128603000Y-118538400D02*
X128603000Y-117018400D01*
X127083000Y-118538400D02*
X128603000Y-118538400D01*
X127083000Y-118538400D02*
X128603000Y-118538400D01*
X128603000Y-118538400D02*
X128603000Y-117018400D01*
X128603000Y-117018400D02*
X127083000Y-117018400D01*
X127083000Y-117018400D02*
X127083000Y-118538400D01*
X127083000Y-113788000D02*
X127083000Y-115308000D01*
X128603000Y-113788000D02*
X127083000Y-113788000D01*
X128603000Y-115308000D02*
X128603000Y-113788000D01*
X127083000Y-115308000D02*
X128603000Y-115308000D01*
X127083000Y-115308000D02*
X128603000Y-115308000D01*
X128603000Y-115308000D02*
X128603000Y-113788000D01*
X128603000Y-113788000D02*
X127083000Y-113788000D01*
X127083000Y-113788000D02*
X127083000Y-115308000D01*
X127083000Y-110998000D02*
X127083000Y-112518000D01*
X128603000Y-110998000D02*
X127083000Y-110998000D01*
X128603000Y-112518000D02*
X128603000Y-110998000D01*
X127083000Y-112518000D02*
X128603000Y-112518000D01*
X127083000Y-112518000D02*
X128603000Y-112518000D01*
X128603000Y-112518000D02*
X128603000Y-110998000D01*
X128603000Y-110998000D02*
X127083000Y-110998000D01*
X127083000Y-110998000D02*
X127083000Y-112518000D01*
X124313000Y-108708000D02*
X124313000Y-110228000D01*
X125833000Y-108708000D02*
X124313000Y-108708000D01*
X125833000Y-110228000D02*
X125833000Y-108708000D01*
X124313000Y-110228000D02*
X125833000Y-110228000D01*
X124313000Y-110228000D02*
X125833000Y-110228000D01*
X125833000Y-110228000D02*
X125833000Y-108708000D01*
X125833000Y-108708000D02*
X124313000Y-108708000D01*
X124313000Y-108708000D02*
X124313000Y-110228000D01*
X121773000Y-108708000D02*
X121773000Y-110228000D01*
X123293000Y-108708000D02*
X121773000Y-108708000D01*
X123293000Y-110228000D02*
X123293000Y-108708000D01*
X121773000Y-110228000D02*
X123293000Y-110228000D01*
X121773000Y-110228000D02*
X123293000Y-110228000D01*
X123293000Y-110228000D02*
X123293000Y-108708000D01*
X123293000Y-108708000D02*
X121773000Y-108708000D01*
X121773000Y-108708000D02*
X121773000Y-110228000D01*
X119233000Y-108708000D02*
X119233000Y-110228000D01*
X120753000Y-108708000D02*
X119233000Y-108708000D01*
X120753000Y-110228000D02*
X120753000Y-108708000D01*
X119233000Y-110228000D02*
X120753000Y-110228000D01*
X119233000Y-110228000D02*
X120753000Y-110228000D01*
X120753000Y-110228000D02*
X120753000Y-108708000D01*
X120753000Y-108708000D02*
X119233000Y-108708000D01*
X119233000Y-108708000D02*
X119233000Y-110228000D01*
X116693000Y-108708000D02*
X116693000Y-110228000D01*
X118213000Y-108708000D02*
X116693000Y-108708000D01*
X118213000Y-110228000D02*
X118213000Y-108708000D01*
X116693000Y-110228000D02*
X118213000Y-110228000D01*
X116693000Y-110228000D02*
X118213000Y-110228000D01*
X118213000Y-110228000D02*
X118213000Y-108708000D01*
X118213000Y-108708000D02*
X116693000Y-108708000D01*
X116693000Y-108708000D02*
X116693000Y-110228000D01*
X114153000Y-108708000D02*
X114153000Y-110228000D01*
X115673000Y-108708000D02*
X114153000Y-108708000D01*
X115673000Y-110228000D02*
X115673000Y-108708000D01*
X114153000Y-110228000D02*
X115673000Y-110228000D01*
X114153000Y-110228000D02*
X115673000Y-110228000D01*
X115673000Y-110228000D02*
X115673000Y-108708000D01*
X115673000Y-108708000D02*
X114153000Y-108708000D01*
X114153000Y-108708000D02*
X114153000Y-110228000D01*
X111383000Y-117068000D02*
X111383000Y-118588000D01*
X112903000Y-117068000D02*
X111383000Y-117068000D01*
X112903000Y-118588000D02*
X112903000Y-117068000D01*
X111383000Y-118588000D02*
X112903000Y-118588000D01*
X111383000Y-118588000D02*
X112903000Y-118588000D01*
X112903000Y-118588000D02*
X112903000Y-117068000D01*
X112903000Y-117068000D02*
X111383000Y-117068000D01*
X111383000Y-117068000D02*
X111383000Y-118588000D01*
X111383000Y-110998000D02*
X111383000Y-112518000D01*
X112903000Y-110998000D02*
X111383000Y-110998000D01*
X112903000Y-112518000D02*
X112903000Y-110998000D01*
X111383000Y-112518000D02*
X112903000Y-112518000D01*
X111383000Y-112518000D02*
X112903000Y-112518000D01*
X112903000Y-112518000D02*
X112903000Y-110998000D01*
X112903000Y-110998000D02*
X111383000Y-110998000D01*
X111383000Y-110998000D02*
X111383000Y-112518000D01*
X111383000Y-113788000D02*
X111383000Y-115308000D01*
X112903000Y-113788000D02*
X111383000Y-113788000D01*
X112903000Y-115308000D02*
X112903000Y-113788000D01*
X111383000Y-115308000D02*
X112903000Y-115308000D01*
X111383000Y-115308000D02*
X112903000Y-115308000D01*
X112903000Y-115308000D02*
X112903000Y-113788000D01*
X112903000Y-113788000D02*
X111383000Y-113788000D01*
X111383000Y-113788000D02*
X111383000Y-115308000D01*
X133527800Y-120065800D02*
X132334000Y-120065800D01*
X133527800Y-118770400D02*
X133527800Y-120065800D01*
X132334000Y-118770400D02*
X133527800Y-118770400D01*
X132334000Y-120065800D02*
X132334000Y-118770400D01*
X134239000Y-120065800D02*
X134239000Y-118770400D01*
X134239000Y-118770400D02*
X135128000Y-118770400D01*
X135128000Y-118770400D02*
X135128000Y-120065800D01*
X135128000Y-120065800D02*
X134239000Y-120065800D01*
X135128000Y-117856000D02*
X134239000Y-117856000D01*
X135128000Y-116560600D02*
X135128000Y-117856000D01*
X134239000Y-116560600D02*
X135128000Y-116560600D01*
X134239000Y-117856000D02*
X134239000Y-116560600D01*
X132334000Y-117856000D02*
X132334000Y-116560600D01*
X132334000Y-116560600D02*
X133223000Y-116560600D01*
X133223000Y-116560600D02*
X133223000Y-117856000D01*
X133223000Y-117856000D02*
X132334000Y-117856000D01*
X131495800Y-114604800D02*
X130302000Y-114604800D01*
X131495800Y-113309400D02*
X131495800Y-114604800D01*
X130302000Y-113309400D02*
X131495800Y-113309400D01*
X130302000Y-114604800D02*
X130302000Y-113309400D01*
X132207000Y-114604800D02*
X132207000Y-113309400D01*
X132207000Y-113309400D02*
X133096000Y-113309400D01*
X133096000Y-113309400D02*
X133096000Y-114604800D01*
X133096000Y-114604800D02*
X132207000Y-114604800D01*
X133096000Y-112395000D02*
X132207000Y-112395000D01*
X133096000Y-111099600D02*
X133096000Y-112395000D01*
X132207000Y-111099600D02*
X133096000Y-111099600D01*
X132207000Y-112395000D02*
X132207000Y-111099600D01*
X130302000Y-112395000D02*
X130302000Y-111099600D01*
X130302000Y-111099600D02*
X131191000Y-111099600D01*
X131191000Y-111099600D02*
X131191000Y-112395000D01*
X131191000Y-112395000D02*
X130302000Y-112395000D01*
D13*
G36*
X156156899Y-121219276D02*
X156377445Y-121435126D01*
X156462327Y-121412059D01*
X156638059Y-121507533D01*
X156662298Y-121677761D01*
X156491343Y-122017411D01*
X156095626Y-122000520D01*
X155701702Y-121689803D01*
X155528548Y-121320029D01*
X155720027Y-121107729D01*
X156069502Y-121093749D01*
X156156899Y-121219276D01*
X156156899Y-121219276D01*
G37*
X156156899Y-121219276D02*
X156377445Y-121435126D01*
X156462327Y-121412059D01*
X156638059Y-121507533D01*
X156662298Y-121677761D01*
X156491343Y-122017411D01*
X156095626Y-122000520D01*
X155701702Y-121689803D01*
X155528548Y-121320029D01*
X155720027Y-121107729D01*
X156069502Y-121093749D01*
X156156899Y-121219276D01*
G36*
X159079295Y-122912391D02*
X158864566Y-123133421D01*
X158623000Y-123290838D01*
X158173521Y-123569820D01*
X158174450Y-123625984D01*
X158589641Y-123520088D01*
X159033689Y-123465142D01*
X159041756Y-123642619D01*
X158630602Y-123912852D01*
X158142153Y-123851521D01*
X157962870Y-123684678D01*
X158038362Y-123380242D01*
X158330566Y-123149941D01*
X158879917Y-122907598D01*
X159079295Y-122912391D01*
X159079295Y-122912391D01*
G37*
X159079295Y-122912391D02*
X158864566Y-123133421D01*
X158623000Y-123290838D01*
X158173521Y-123569820D01*
X158174450Y-123625984D01*
X158589641Y-123520088D01*
X159033689Y-123465142D01*
X159041756Y-123642619D01*
X158630602Y-123912852D01*
X158142153Y-123851521D01*
X157962870Y-123684678D01*
X158038362Y-123380242D01*
X158330566Y-123149941D01*
X158879917Y-122907598D01*
X159079295Y-122912391D01*
G36*
X160485920Y-120997436D02*
X161198087Y-121563311D01*
X161294469Y-121663641D01*
X161877698Y-122284461D01*
X159841975Y-122475224D01*
X158729838Y-122607424D01*
X158023538Y-122776341D01*
X157594186Y-123022215D01*
X157407454Y-123235350D01*
X157155010Y-123688490D01*
X157269054Y-123980063D01*
X157465878Y-124139040D01*
X158142690Y-124443091D01*
X158808376Y-124292801D01*
X159558790Y-123671263D01*
X160180698Y-123090434D01*
X160536349Y-122899833D01*
X160591729Y-123098529D01*
X160312822Y-123685589D01*
X160309169Y-123691820D01*
X159551226Y-124680450D01*
X158752107Y-125138749D01*
X157916197Y-125065432D01*
X157199912Y-124601985D01*
X156445244Y-123930899D01*
X157240146Y-122932134D01*
X158240858Y-121778149D01*
X159072156Y-121084564D01*
X159798893Y-120831090D01*
X160485920Y-120997436D01*
X160485920Y-120997436D01*
G37*
X160485920Y-120997436D02*
X161198087Y-121563311D01*
X161294469Y-121663641D01*
X161877698Y-122284461D01*
X159841975Y-122475224D01*
X158729838Y-122607424D01*
X158023538Y-122776341D01*
X157594186Y-123022215D01*
X157407454Y-123235350D01*
X157155010Y-123688490D01*
X157269054Y-123980063D01*
X157465878Y-124139040D01*
X158142690Y-124443091D01*
X158808376Y-124292801D01*
X159558790Y-123671263D01*
X160180698Y-123090434D01*
X160536349Y-122899833D01*
X160591729Y-123098529D01*
X160312822Y-123685589D01*
X160309169Y-123691820D01*
X159551226Y-124680450D01*
X158752107Y-125138749D01*
X157916197Y-125065432D01*
X157199912Y-124601985D01*
X156445244Y-123930899D01*
X157240146Y-122932134D01*
X158240858Y-121778149D01*
X159072156Y-121084564D01*
X159798893Y-120831090D01*
X160485920Y-120997436D01*
G36*
X161329901Y-125862183D02*
X161642991Y-126039147D01*
X162390351Y-126531927D01*
X160707202Y-127268347D01*
X159589938Y-127756359D01*
X158881106Y-128053763D01*
X158497963Y-128181349D01*
X158357766Y-128159910D01*
X158377773Y-128010238D01*
X158444039Y-127837053D01*
X158653236Y-127201166D01*
X158794034Y-126692376D01*
X158873983Y-126226684D01*
X158684208Y-126171735D01*
X158324999Y-126331258D01*
X157687211Y-126642509D01*
X158318410Y-126092676D01*
X159197972Y-125650028D01*
X160269250Y-125572111D01*
X161329901Y-125862183D01*
X161329901Y-125862183D01*
G37*
X161329901Y-125862183D02*
X161642991Y-126039147D01*
X162390351Y-126531927D01*
X160707202Y-127268347D01*
X159589938Y-127756359D01*
X158881106Y-128053763D01*
X158497963Y-128181349D01*
X158357766Y-128159910D01*
X158377773Y-128010238D01*
X158444039Y-127837053D01*
X158653236Y-127201166D01*
X158794034Y-126692376D01*
X158873983Y-126226684D01*
X158684208Y-126171735D01*
X158324999Y-126331258D01*
X157687211Y-126642509D01*
X158318410Y-126092676D01*
X159197972Y-125650028D01*
X160269250Y-125572111D01*
X161329901Y-125862183D01*
G36*
X148759381Y-118200458D02*
X148943619Y-118294932D01*
X149739906Y-118597845D01*
X151023425Y-118911522D01*
X152810430Y-119239408D01*
X154857505Y-119548781D01*
X156049180Y-119738088D01*
X157059396Y-119939361D01*
X157759386Y-120124607D01*
X157998020Y-120231527D01*
X158523735Y-120394460D01*
X158820122Y-120344622D01*
X159136901Y-120246015D01*
X159062982Y-120391798D01*
X158835646Y-120627252D01*
X158540411Y-120863186D01*
X158168281Y-120958445D01*
X157572710Y-120920980D01*
X156607150Y-120758744D01*
X156563015Y-120750562D01*
X155343976Y-120573754D01*
X154489880Y-120578901D01*
X154010895Y-120698771D01*
X153498288Y-120949663D01*
X153257369Y-121161576D01*
X153379068Y-121243617D01*
X153476158Y-121233286D01*
X154412151Y-121209835D01*
X154911858Y-121480243D01*
X154961865Y-122011073D01*
X154548758Y-122768887D01*
X154240774Y-123139244D01*
X153697073Y-123807745D01*
X153347029Y-124366194D01*
X153275632Y-124588725D01*
X153518015Y-125203143D01*
X154165774Y-125635908D01*
X155099827Y-125809702D01*
X155156901Y-125810211D01*
X156051940Y-125987625D01*
X156610087Y-126472899D01*
X156751421Y-127011003D01*
X156529853Y-127172662D01*
X155956104Y-127485718D01*
X155166606Y-127884313D01*
X154297792Y-128302589D01*
X153486095Y-128674688D01*
X152867947Y-128934751D01*
X152592398Y-129018632D01*
X152485748Y-128801200D01*
X152473527Y-128630123D01*
X152235674Y-128214439D01*
X151638763Y-127842189D01*
X150857760Y-127584356D01*
X150067634Y-127511919D01*
X149804066Y-127547178D01*
X149272354Y-127736883D01*
X148815046Y-128117696D01*
X148306569Y-128809605D01*
X148041976Y-129230929D01*
X147742628Y-129312741D01*
X147059292Y-129370260D01*
X146142222Y-129402229D01*
X145141669Y-129407390D01*
X144207887Y-129384485D01*
X143491129Y-129332259D01*
X143182474Y-129271594D01*
X142720636Y-129028924D01*
X142580895Y-128864958D01*
X142778106Y-128789677D01*
X142951183Y-128836145D01*
X143367577Y-128796990D01*
X144090342Y-128554936D01*
X144889604Y-128197335D01*
X145982410Y-127741730D01*
X147024036Y-127456640D01*
X147527211Y-127398479D01*
X148168498Y-127374530D01*
X148328497Y-127309231D01*
X148060623Y-127167098D01*
X147945718Y-127120452D01*
X147323096Y-126969885D01*
X146943087Y-126995324D01*
X146607543Y-127041931D01*
X146614158Y-126851453D01*
X146899966Y-126535830D01*
X147380249Y-126218129D01*
X148473594Y-125871803D01*
X149632185Y-125851965D01*
X150643792Y-126151516D01*
X150932109Y-126336952D01*
X151465223Y-126662726D01*
X152047940Y-126738230D01*
X152772902Y-126633615D01*
X153944053Y-126403536D01*
X152776554Y-126374242D01*
X152062782Y-126322694D01*
X151752891Y-126135081D01*
X151785766Y-125691490D01*
X152060219Y-124968694D01*
X152124084Y-124668637D01*
X151994896Y-124373855D01*
X151598235Y-124008562D01*
X150859684Y-123496976D01*
X150200895Y-123075264D01*
X149485288Y-122596065D01*
X149192371Y-122311991D01*
X149273399Y-122165795D01*
X149398790Y-122133245D01*
X150169506Y-121955002D01*
X150423833Y-121757622D01*
X150178564Y-121481251D01*
X149666158Y-121180364D01*
X149028558Y-120826439D01*
X148823173Y-120645678D01*
X149010464Y-120559473D01*
X149331948Y-120515957D01*
X149915212Y-120369063D01*
X150010403Y-120088958D01*
X149627872Y-119616073D01*
X149507709Y-119504641D01*
X148985625Y-118941545D01*
X148685366Y-118507175D01*
X148546652Y-118169068D01*
X148759381Y-118200458D01*
X148759381Y-118200458D01*
G37*
X148759381Y-118200458D02*
X148943619Y-118294932D01*
X149739906Y-118597845D01*
X151023425Y-118911522D01*
X152810430Y-119239408D01*
X154857505Y-119548781D01*
X156049180Y-119738088D01*
X157059396Y-119939361D01*
X157759386Y-120124607D01*
X157998020Y-120231527D01*
X158523735Y-120394460D01*
X158820122Y-120344622D01*
X159136901Y-120246015D01*
X159062982Y-120391798D01*
X158835646Y-120627252D01*
X158540411Y-120863186D01*
X158168281Y-120958445D01*
X157572710Y-120920980D01*
X156607150Y-120758744D01*
X156563015Y-120750562D01*
X155343976Y-120573754D01*
X154489880Y-120578901D01*
X154010895Y-120698771D01*
X153498288Y-120949663D01*
X153257369Y-121161576D01*
X153379068Y-121243617D01*
X153476158Y-121233286D01*
X154412151Y-121209835D01*
X154911858Y-121480243D01*
X154961865Y-122011073D01*
X154548758Y-122768887D01*
X154240774Y-123139244D01*
X153697073Y-123807745D01*
X153347029Y-124366194D01*
X153275632Y-124588725D01*
X153518015Y-125203143D01*
X154165774Y-125635908D01*
X155099827Y-125809702D01*
X155156901Y-125810211D01*
X156051940Y-125987625D01*
X156610087Y-126472899D01*
X156751421Y-127011003D01*
X156529853Y-127172662D01*
X155956104Y-127485718D01*
X155166606Y-127884313D01*
X154297792Y-128302589D01*
X153486095Y-128674688D01*
X152867947Y-128934751D01*
X152592398Y-129018632D01*
X152485748Y-128801200D01*
X152473527Y-128630123D01*
X152235674Y-128214439D01*
X151638763Y-127842189D01*
X150857760Y-127584356D01*
X150067634Y-127511919D01*
X149804066Y-127547178D01*
X149272354Y-127736883D01*
X148815046Y-128117696D01*
X148306569Y-128809605D01*
X148041976Y-129230929D01*
X147742628Y-129312741D01*
X147059292Y-129370260D01*
X146142222Y-129402229D01*
X145141669Y-129407390D01*
X144207887Y-129384485D01*
X143491129Y-129332259D01*
X143182474Y-129271594D01*
X142720636Y-129028924D01*
X142580895Y-128864958D01*
X142778106Y-128789677D01*
X142951183Y-128836145D01*
X143367577Y-128796990D01*
X144090342Y-128554936D01*
X144889604Y-128197335D01*
X145982410Y-127741730D01*
X147024036Y-127456640D01*
X147527211Y-127398479D01*
X148168498Y-127374530D01*
X148328497Y-127309231D01*
X148060623Y-127167098D01*
X147945718Y-127120452D01*
X147323096Y-126969885D01*
X146943087Y-126995324D01*
X146607543Y-127041931D01*
X146614158Y-126851453D01*
X146899966Y-126535830D01*
X147380249Y-126218129D01*
X148473594Y-125871803D01*
X149632185Y-125851965D01*
X150643792Y-126151516D01*
X150932109Y-126336952D01*
X151465223Y-126662726D01*
X152047940Y-126738230D01*
X152772902Y-126633615D01*
X153944053Y-126403536D01*
X152776554Y-126374242D01*
X152062782Y-126322694D01*
X151752891Y-126135081D01*
X151785766Y-125691490D01*
X152060219Y-124968694D01*
X152124084Y-124668637D01*
X151994896Y-124373855D01*
X151598235Y-124008562D01*
X150859684Y-123496976D01*
X150200895Y-123075264D01*
X149485288Y-122596065D01*
X149192371Y-122311991D01*
X149273399Y-122165795D01*
X149398790Y-122133245D01*
X150169506Y-121955002D01*
X150423833Y-121757622D01*
X150178564Y-121481251D01*
X149666158Y-121180364D01*
X149028558Y-120826439D01*
X148823173Y-120645678D01*
X149010464Y-120559473D01*
X149331948Y-120515957D01*
X149915212Y-120369063D01*
X150010403Y-120088958D01*
X149627872Y-119616073D01*
X149507709Y-119504641D01*
X148985625Y-118941545D01*
X148685366Y-118507175D01*
X148546652Y-118169068D01*
X148759381Y-118200458D01*
G36*
X169753199Y-130488240D02*
X169787322Y-130689684D01*
X169504649Y-130923628D01*
X168973858Y-131078809D01*
X168411287Y-131125760D01*
X168033275Y-131035011D01*
X167980895Y-130935756D01*
X168219227Y-130619987D01*
X168819719Y-130406025D01*
X169361885Y-130355474D01*
X169753199Y-130488240D01*
X169753199Y-130488240D01*
G37*
X169753199Y-130488240D02*
X169787322Y-130689684D01*
X169504649Y-130923628D01*
X168973858Y-131078809D01*
X168411287Y-131125760D01*
X168033275Y-131035011D01*
X167980895Y-130935756D01*
X168219227Y-130619987D01*
X168819719Y-130406025D01*
X169361885Y-130355474D01*
X169753199Y-130488240D01*
G36*
X170022725Y-124253154D02*
X169728753Y-124994918D01*
X169261006Y-125539378D01*
X169255907Y-125542842D01*
X168586439Y-126058504D01*
X168066452Y-126571737D01*
X167746742Y-127002594D01*
X167678104Y-127271125D01*
X167911336Y-127297381D01*
X168230686Y-127156460D01*
X168744892Y-126918541D01*
X168912759Y-127028837D01*
X168846890Y-127556209D01*
X168533777Y-128194351D01*
X168148703Y-128532024D01*
X167514592Y-128989463D01*
X167190662Y-129463522D01*
X167194944Y-129842981D01*
X167545470Y-130016620D01*
X167914053Y-129979305D01*
X168395917Y-129889858D01*
X168417291Y-129981075D01*
X168181421Y-130180322D01*
X167799129Y-130711905D01*
X167713527Y-131091607D01*
X167506907Y-131586577D01*
X167014779Y-131893968D01*
X166428737Y-131974490D01*
X165940378Y-131788850D01*
X165762165Y-131491790D01*
X165685174Y-130579010D01*
X165804090Y-129569199D01*
X166032675Y-128884627D01*
X166318156Y-128142348D01*
X166582179Y-127135935D01*
X166756706Y-126133956D01*
X166775274Y-125953253D01*
X167048075Y-125492709D01*
X167768597Y-124883677D01*
X168507619Y-124396196D01*
X170194560Y-123364519D01*
X170022725Y-124253154D01*
X170022725Y-124253154D01*
G37*
X170022725Y-124253154D02*
X169728753Y-124994918D01*
X169261006Y-125539378D01*
X169255907Y-125542842D01*
X168586439Y-126058504D01*
X168066452Y-126571737D01*
X167746742Y-127002594D01*
X167678104Y-127271125D01*
X167911336Y-127297381D01*
X168230686Y-127156460D01*
X168744892Y-126918541D01*
X168912759Y-127028837D01*
X168846890Y-127556209D01*
X168533777Y-128194351D01*
X168148703Y-128532024D01*
X167514592Y-128989463D01*
X167190662Y-129463522D01*
X167194944Y-129842981D01*
X167545470Y-130016620D01*
X167914053Y-129979305D01*
X168395917Y-129889858D01*
X168417291Y-129981075D01*
X168181421Y-130180322D01*
X167799129Y-130711905D01*
X167713527Y-131091607D01*
X167506907Y-131586577D01*
X167014779Y-131893968D01*
X166428737Y-131974490D01*
X165940378Y-131788850D01*
X165762165Y-131491790D01*
X165685174Y-130579010D01*
X165804090Y-129569199D01*
X166032675Y-128884627D01*
X166318156Y-128142348D01*
X166582179Y-127135935D01*
X166756706Y-126133956D01*
X166775274Y-125953253D01*
X167048075Y-125492709D01*
X167768597Y-124883677D01*
X168507619Y-124396196D01*
X170194560Y-123364519D01*
X170022725Y-124253154D01*
G36*
X169686144Y-131478266D02*
X170082370Y-131612180D01*
X170119842Y-131676537D01*
X169946558Y-131995768D01*
X169382073Y-132057392D01*
X169050369Y-132017597D01*
X168344712Y-131836617D01*
X168129035Y-131632324D01*
X168409529Y-131473358D01*
X168996895Y-131424948D01*
X169686144Y-131478266D01*
X169686144Y-131478266D01*
G37*
X169686144Y-131478266D02*
X170082370Y-131612180D01*
X170119842Y-131676537D01*
X169946558Y-131995768D01*
X169382073Y-132057392D01*
X169050369Y-132017597D01*
X168344712Y-131836617D01*
X168129035Y-131632324D01*
X168409529Y-131473358D01*
X168996895Y-131424948D01*
X169686144Y-131478266D01*
G36*
X169050369Y-132437390D02*
X169613435Y-132588651D01*
X169852408Y-132789072D01*
X169852474Y-132792136D01*
X169632615Y-132965456D01*
X169143206Y-133025666D01*
X168639504Y-132962244D01*
X168426509Y-132850913D01*
X168254698Y-132526918D01*
X168565568Y-132401706D01*
X169050369Y-132437390D01*
X169050369Y-132437390D01*
G37*
X169050369Y-132437390D02*
X169613435Y-132588651D01*
X169852408Y-132789072D01*
X169852474Y-132792136D01*
X169632615Y-132965456D01*
X169143206Y-133025666D01*
X168639504Y-132962244D01*
X168426509Y-132850913D01*
X168254698Y-132526918D01*
X168565568Y-132401706D01*
X169050369Y-132437390D01*
G36*
X165508391Y-126215185D02*
X165476321Y-126703586D01*
X165685770Y-126786756D01*
X165772117Y-126758494D01*
X166016826Y-126819009D01*
X166033598Y-127181143D01*
X165866329Y-127686028D01*
X165558913Y-128174792D01*
X165318892Y-128398859D01*
X164893071Y-128908959D01*
X164656643Y-129480289D01*
X164473670Y-130206928D01*
X164340707Y-130689684D01*
X164381527Y-131084514D01*
X164620772Y-131157579D01*
X164958418Y-131217324D01*
X164980299Y-131460690D01*
X164674656Y-131983874D01*
X164486899Y-132252621D01*
X164023740Y-132798010D01*
X163557182Y-132968018D01*
X162844486Y-132848481D01*
X162819855Y-132842120D01*
X162502614Y-132625983D01*
X162580739Y-132405240D01*
X162819970Y-131926169D01*
X163043011Y-131209260D01*
X163213611Y-130429133D01*
X163295521Y-129760408D01*
X163252493Y-129377705D01*
X163215726Y-129346382D01*
X163059095Y-129060859D01*
X163143870Y-128542776D01*
X163413715Y-128003748D01*
X163637829Y-127760859D01*
X163912274Y-127260246D01*
X163904835Y-126925328D01*
X163948997Y-126502571D01*
X164393087Y-126127715D01*
X164705945Y-125965717D01*
X165641350Y-125519653D01*
X165508391Y-126215185D01*
X165508391Y-126215185D01*
G37*
X165508391Y-126215185D02*
X165476321Y-126703586D01*
X165685770Y-126786756D01*
X165772117Y-126758494D01*
X166016826Y-126819009D01*
X166033598Y-127181143D01*
X165866329Y-127686028D01*
X165558913Y-128174792D01*
X165318892Y-128398859D01*
X164893071Y-128908959D01*
X164656643Y-129480289D01*
X164473670Y-130206928D01*
X164340707Y-130689684D01*
X164381527Y-131084514D01*
X164620772Y-131157579D01*
X164958418Y-131217324D01*
X164980299Y-131460690D01*
X164674656Y-131983874D01*
X164486899Y-132252621D01*
X164023740Y-132798010D01*
X163557182Y-132968018D01*
X162844486Y-132848481D01*
X162819855Y-132842120D01*
X162502614Y-132625983D01*
X162580739Y-132405240D01*
X162819970Y-131926169D01*
X163043011Y-131209260D01*
X163213611Y-130429133D01*
X163295521Y-129760408D01*
X163252493Y-129377705D01*
X163215726Y-129346382D01*
X163059095Y-129060859D01*
X163143870Y-128542776D01*
X163413715Y-128003748D01*
X163637829Y-127760859D01*
X163912274Y-127260246D01*
X163904835Y-126925328D01*
X163948997Y-126502571D01*
X164393087Y-126127715D01*
X164705945Y-125965717D01*
X165641350Y-125519653D01*
X165508391Y-126215185D01*
G36*
X150528255Y-127972058D02*
X150469653Y-128118477D01*
X150185155Y-128341708D01*
X149868336Y-128651182D01*
X149975949Y-128732209D01*
X150440235Y-128565373D01*
X150629624Y-128469083D01*
X151162687Y-128324229D01*
X151694401Y-128366363D01*
X152039136Y-128552934D01*
X152046181Y-128793806D01*
X151683387Y-128960464D01*
X151373878Y-128933271D01*
X150964463Y-128940343D01*
X150869316Y-129074832D01*
X151091231Y-129234728D01*
X151544118Y-129219342D01*
X152160968Y-129204695D01*
X152352889Y-129398995D01*
X152076576Y-129692284D01*
X151784113Y-129828718D01*
X151317916Y-130065919D01*
X151210389Y-130250933D01*
X151529784Y-130255531D01*
X151915891Y-130100361D01*
X152363557Y-129930770D01*
X152450760Y-130052468D01*
X152204736Y-130388459D01*
X151652722Y-130861749D01*
X151644363Y-130867939D01*
X150835596Y-131303756D01*
X150052959Y-131328398D01*
X150029255Y-131323777D01*
X149464260Y-131305503D01*
X148825961Y-131518378D01*
X147965182Y-132017106D01*
X147744898Y-132161478D01*
X146864294Y-132704562D01*
X146119247Y-133020267D01*
X145276406Y-133182285D01*
X144280006Y-133255670D01*
X143332703Y-133283321D01*
X142635472Y-133265202D01*
X142319836Y-133205516D01*
X142313527Y-133192832D01*
X142532455Y-132989777D01*
X143070561Y-132700973D01*
X143182474Y-132650683D01*
X144051421Y-132270673D01*
X143115632Y-132245212D01*
X142276541Y-132179021D01*
X141565884Y-132055318D01*
X141561818Y-132054234D01*
X141227900Y-131933525D01*
X141260172Y-131789208D01*
X141712036Y-131546905D01*
X142029713Y-131402536D01*
X142683440Y-131082621D01*
X143070395Y-130840637D01*
X143115632Y-130782110D01*
X142894149Y-130605738D01*
X142330921Y-130308237D01*
X141946978Y-130130914D01*
X141212208Y-129759934D01*
X140694897Y-129414774D01*
X140580708Y-129294213D01*
X140651742Y-129194259D01*
X141079351Y-129340911D01*
X141281467Y-129440078D01*
X141842821Y-129662578D01*
X142569033Y-129801441D01*
X143579999Y-129870508D01*
X144995618Y-129883623D01*
X145115958Y-129882780D01*
X146414510Y-129865085D01*
X147287603Y-129822393D01*
X147844500Y-129734061D01*
X148194460Y-129579446D01*
X148446745Y-129337904D01*
X148524812Y-129238723D01*
X149091375Y-128518353D01*
X149473688Y-128131239D01*
X149798397Y-127975564D01*
X150128854Y-127949158D01*
X150528255Y-127972058D01*
X150528255Y-127972058D01*
G37*
X150528255Y-127972058D02*
X150469653Y-128118477D01*
X150185155Y-128341708D01*
X149868336Y-128651182D01*
X149975949Y-128732209D01*
X150440235Y-128565373D01*
X150629624Y-128469083D01*
X151162687Y-128324229D01*
X151694401Y-128366363D01*
X152039136Y-128552934D01*
X152046181Y-128793806D01*
X151683387Y-128960464D01*
X151373878Y-128933271D01*
X150964463Y-128940343D01*
X150869316Y-129074832D01*
X151091231Y-129234728D01*
X151544118Y-129219342D01*
X152160968Y-129204695D01*
X152352889Y-129398995D01*
X152076576Y-129692284D01*
X151784113Y-129828718D01*
X151317916Y-130065919D01*
X151210389Y-130250933D01*
X151529784Y-130255531D01*
X151915891Y-130100361D01*
X152363557Y-129930770D01*
X152450760Y-130052468D01*
X152204736Y-130388459D01*
X151652722Y-130861749D01*
X151644363Y-130867939D01*
X150835596Y-131303756D01*
X150052959Y-131328398D01*
X150029255Y-131323777D01*
X149464260Y-131305503D01*
X148825961Y-131518378D01*
X147965182Y-132017106D01*
X147744898Y-132161478D01*
X146864294Y-132704562D01*
X146119247Y-133020267D01*
X145276406Y-133182285D01*
X144280006Y-133255670D01*
X143332703Y-133283321D01*
X142635472Y-133265202D01*
X142319836Y-133205516D01*
X142313527Y-133192832D01*
X142532455Y-132989777D01*
X143070561Y-132700973D01*
X143182474Y-132650683D01*
X144051421Y-132270673D01*
X143115632Y-132245212D01*
X142276541Y-132179021D01*
X141565884Y-132055318D01*
X141561818Y-132054234D01*
X141227900Y-131933525D01*
X141260172Y-131789208D01*
X141712036Y-131546905D01*
X142029713Y-131402536D01*
X142683440Y-131082621D01*
X143070395Y-130840637D01*
X143115632Y-130782110D01*
X142894149Y-130605738D01*
X142330921Y-130308237D01*
X141946978Y-130130914D01*
X141212208Y-129759934D01*
X140694897Y-129414774D01*
X140580708Y-129294213D01*
X140651742Y-129194259D01*
X141079351Y-129340911D01*
X141281467Y-129440078D01*
X141842821Y-129662578D01*
X142569033Y-129801441D01*
X143579999Y-129870508D01*
X144995618Y-129883623D01*
X145115958Y-129882780D01*
X146414510Y-129865085D01*
X147287603Y-129822393D01*
X147844500Y-129734061D01*
X148194460Y-129579446D01*
X148446745Y-129337904D01*
X148524812Y-129238723D01*
X149091375Y-128518353D01*
X149473688Y-128131239D01*
X149798397Y-127975564D01*
X150128854Y-127949158D01*
X150528255Y-127972058D01*
G36*
X162865544Y-127824685D02*
X162849345Y-128112660D01*
X162718097Y-128787776D01*
X162504162Y-129723158D01*
X162239900Y-130791929D01*
X161957674Y-131867213D01*
X161689844Y-132822134D01*
X161468771Y-133529817D01*
X161326817Y-133863385D01*
X161324714Y-133865676D01*
X160934269Y-134049995D01*
X160292696Y-134187861D01*
X159622900Y-134250941D01*
X159147789Y-134210902D01*
X159058137Y-134153781D01*
X158982738Y-133693596D01*
X159047226Y-132980704D01*
X159084918Y-132831897D01*
X160260968Y-132831897D01*
X160341526Y-132976922D01*
X160531527Y-132731908D01*
X160791515Y-132152068D01*
X161082033Y-131292615D01*
X161133399Y-131116429D01*
X161398763Y-130166747D01*
X161525028Y-129619642D01*
X161522701Y-129364311D01*
X161402291Y-129289949D01*
X161306990Y-129286000D01*
X161071029Y-129539737D01*
X160797823Y-130253365D01*
X160510981Y-131355514D01*
X160329310Y-132241619D01*
X160260968Y-132831897D01*
X159084918Y-132831897D01*
X159226943Y-132271190D01*
X159243676Y-132227053D01*
X159398568Y-131761078D01*
X159635605Y-130974885D01*
X159831302Y-130293574D01*
X160113533Y-129436219D01*
X160399855Y-128796518D01*
X160578957Y-128557844D01*
X161092712Y-128302912D01*
X161769729Y-128050411D01*
X162411400Y-127864021D01*
X162819115Y-127807422D01*
X162865544Y-127824685D01*
X162865544Y-127824685D01*
G37*
X162865544Y-127824685D02*
X162849345Y-128112660D01*
X162718097Y-128787776D01*
X162504162Y-129723158D01*
X162239900Y-130791929D01*
X161957674Y-131867213D01*
X161689844Y-132822134D01*
X161468771Y-133529817D01*
X161326817Y-133863385D01*
X161324714Y-133865676D01*
X160934269Y-134049995D01*
X160292696Y-134187861D01*
X159622900Y-134250941D01*
X159147789Y-134210902D01*
X159058137Y-134153781D01*
X158982738Y-133693596D01*
X159047226Y-132980704D01*
X159084918Y-132831897D01*
X160260968Y-132831897D01*
X160341526Y-132976922D01*
X160531527Y-132731908D01*
X160791515Y-132152068D01*
X161082033Y-131292615D01*
X161133399Y-131116429D01*
X161398763Y-130166747D01*
X161525028Y-129619642D01*
X161522701Y-129364311D01*
X161402291Y-129289949D01*
X161306990Y-129286000D01*
X161071029Y-129539737D01*
X160797823Y-130253365D01*
X160510981Y-131355514D01*
X160329310Y-132241619D01*
X160260968Y-132831897D01*
X159084918Y-132831897D01*
X159226943Y-132271190D01*
X159243676Y-132227053D01*
X159398568Y-131761078D01*
X159635605Y-130974885D01*
X159831302Y-130293574D01*
X160113533Y-129436219D01*
X160399855Y-128796518D01*
X160578957Y-128557844D01*
X161092712Y-128302912D01*
X161769729Y-128050411D01*
X162411400Y-127864021D01*
X162819115Y-127807422D01*
X162865544Y-127824685D01*
G36*
X159098303Y-128992175D02*
X159014345Y-129316587D01*
X158956781Y-129716032D01*
X159129093Y-129704756D01*
X159381034Y-129693081D01*
X159430589Y-129992780D01*
X159306875Y-130433199D01*
X159039006Y-130843686D01*
X158916898Y-130948483D01*
X158527424Y-131411125D01*
X158201914Y-132112554D01*
X157991606Y-132872731D01*
X157947738Y-133511619D01*
X158095245Y-133835578D01*
X158276381Y-134122579D01*
X158106461Y-134599366D01*
X157673593Y-135029529D01*
X157129357Y-135156288D01*
X156685430Y-134952844D01*
X156590067Y-134791358D01*
X156563509Y-134302387D01*
X156681390Y-133572084D01*
X156724549Y-133403964D01*
X156873966Y-132501438D01*
X156827019Y-131735904D01*
X156605336Y-131251897D01*
X156388226Y-131156580D01*
X156389342Y-131038961D01*
X156762490Y-130746192D01*
X156951948Y-130625773D01*
X157516585Y-130194093D01*
X157809445Y-129799469D01*
X157820895Y-129733899D01*
X158039842Y-129369758D01*
X158508253Y-129058652D01*
X158984111Y-128874111D01*
X159098303Y-128992175D01*
X159098303Y-128992175D01*
G37*
X159098303Y-128992175D02*
X159014345Y-129316587D01*
X158956781Y-129716032D01*
X159129093Y-129704756D01*
X159381034Y-129693081D01*
X159430589Y-129992780D01*
X159306875Y-130433199D01*
X159039006Y-130843686D01*
X158916898Y-130948483D01*
X158527424Y-131411125D01*
X158201914Y-132112554D01*
X157991606Y-132872731D01*
X157947738Y-133511619D01*
X158095245Y-133835578D01*
X158276381Y-134122579D01*
X158106461Y-134599366D01*
X157673593Y-135029529D01*
X157129357Y-135156288D01*
X156685430Y-134952844D01*
X156590067Y-134791358D01*
X156563509Y-134302387D01*
X156681390Y-133572084D01*
X156724549Y-133403964D01*
X156873966Y-132501438D01*
X156827019Y-131735904D01*
X156605336Y-131251897D01*
X156388226Y-131156580D01*
X156389342Y-131038961D01*
X156762490Y-130746192D01*
X156951948Y-130625773D01*
X157516585Y-130194093D01*
X157809445Y-129799469D01*
X157820895Y-129733899D01*
X158039842Y-129369758D01*
X158508253Y-129058652D01*
X158984111Y-128874111D01*
X159098303Y-128992175D01*
G36*
X167907704Y-132927075D02*
X167902913Y-133096000D01*
X167609646Y-133363798D01*
X167484428Y-133364985D01*
X167298001Y-133567616D01*
X167218336Y-134246591D01*
X167218512Y-134632412D01*
X167144554Y-135614033D01*
X166908501Y-136345113D01*
X166561944Y-136739074D01*
X166156474Y-136709334D01*
X166038615Y-136612492D01*
X165966775Y-136241156D01*
X166205118Y-135852457D01*
X166551089Y-135702842D01*
X166796317Y-135569095D01*
X166813545Y-135092409D01*
X166765378Y-134795206D01*
X166743548Y-133916384D01*
X166977801Y-133201169D01*
X167405394Y-132800340D01*
X167611530Y-132761790D01*
X167907704Y-132927075D01*
X167907704Y-132927075D01*
G37*
X167907704Y-132927075D02*
X167902913Y-133096000D01*
X167609646Y-133363798D01*
X167484428Y-133364985D01*
X167298001Y-133567616D01*
X167218336Y-134246591D01*
X167218512Y-134632412D01*
X167144554Y-135614033D01*
X166908501Y-136345113D01*
X166561944Y-136739074D01*
X166156474Y-136709334D01*
X166038615Y-136612492D01*
X165966775Y-136241156D01*
X166205118Y-135852457D01*
X166551089Y-135702842D01*
X166796317Y-135569095D01*
X166813545Y-135092409D01*
X166765378Y-134795206D01*
X166743548Y-133916384D01*
X166977801Y-133201169D01*
X167405394Y-132800340D01*
X167611530Y-132761790D01*
X167907704Y-132927075D01*
G36*
X166376684Y-133282637D02*
X166169586Y-133580366D01*
X166097793Y-133612297D01*
X165853972Y-133919319D01*
X165731477Y-134369841D01*
X165556321Y-135159239D01*
X165374464Y-135702842D01*
X165251049Y-136226043D01*
X165341394Y-136460941D01*
X165480525Y-136673735D01*
X165269060Y-136923680D01*
X164861773Y-137039684D01*
X164567436Y-136874634D01*
X164573901Y-136705474D01*
X164713369Y-136278574D01*
X164942120Y-135524683D01*
X165136290Y-134862866D01*
X165436651Y-134022285D01*
X165761453Y-133410718D01*
X165974679Y-133200205D01*
X166320072Y-133183624D01*
X166376684Y-133282637D01*
X166376684Y-133282637D01*
G37*
X166376684Y-133282637D02*
X166169586Y-133580366D01*
X166097793Y-133612297D01*
X165853972Y-133919319D01*
X165731477Y-134369841D01*
X165556321Y-135159239D01*
X165374464Y-135702842D01*
X165251049Y-136226043D01*
X165341394Y-136460941D01*
X165480525Y-136673735D01*
X165269060Y-136923680D01*
X164861773Y-137039684D01*
X164567436Y-136874634D01*
X164573901Y-136705474D01*
X164713369Y-136278574D01*
X164942120Y-135524683D01*
X165136290Y-134862866D01*
X165436651Y-134022285D01*
X165761453Y-133410718D01*
X165974679Y-133200205D01*
X166320072Y-133183624D01*
X166376684Y-133282637D01*
G36*
X152415107Y-132079511D02*
X152384483Y-132362719D01*
X152214023Y-133032669D01*
X151935723Y-133969728D01*
X151773644Y-134477992D01*
X151349135Y-135680995D01*
X150992835Y-136440473D01*
X150662637Y-136836135D01*
X150480187Y-136926628D01*
X149802261Y-137117857D01*
X149488133Y-137205459D01*
X149017489Y-137171536D01*
X148867544Y-137045333D01*
X148829837Y-136624341D01*
X148923006Y-136151524D01*
X149799842Y-136151524D01*
X150003995Y-136236509D01*
X150042078Y-136237579D01*
X150260236Y-136007206D01*
X150547982Y-135419611D01*
X150710499Y-134986793D01*
X151000007Y-134029598D01*
X151125703Y-133370817D01*
X151079896Y-133082096D01*
X150904853Y-133176211D01*
X150724692Y-133519352D01*
X150452595Y-134178318D01*
X150160330Y-134959870D01*
X149919665Y-135670771D01*
X149802367Y-136117783D01*
X149799842Y-136151524D01*
X148923006Y-136151524D01*
X148962322Y-135952007D01*
X149004726Y-135815350D01*
X149226346Y-135105632D01*
X149363460Y-134596387D01*
X149372536Y-134550578D01*
X149773622Y-133512995D01*
X150502667Y-132680127D01*
X151322605Y-132246749D01*
X151980997Y-132096509D01*
X152379150Y-132064841D01*
X152415107Y-132079511D01*
X152415107Y-132079511D01*
G37*
X152415107Y-132079511D02*
X152384483Y-132362719D01*
X152214023Y-133032669D01*
X151935723Y-133969728D01*
X151773644Y-134477992D01*
X151349135Y-135680995D01*
X150992835Y-136440473D01*
X150662637Y-136836135D01*
X150480187Y-136926628D01*
X149802261Y-137117857D01*
X149488133Y-137205459D01*
X149017489Y-137171536D01*
X148867544Y-137045333D01*
X148829837Y-136624341D01*
X148923006Y-136151524D01*
X149799842Y-136151524D01*
X150003995Y-136236509D01*
X150042078Y-136237579D01*
X150260236Y-136007206D01*
X150547982Y-135419611D01*
X150710499Y-134986793D01*
X151000007Y-134029598D01*
X151125703Y-133370817D01*
X151079896Y-133082096D01*
X150904853Y-133176211D01*
X150724692Y-133519352D01*
X150452595Y-134178318D01*
X150160330Y-134959870D01*
X149919665Y-135670771D01*
X149802367Y-136117783D01*
X149799842Y-136151524D01*
X148923006Y-136151524D01*
X148962322Y-135952007D01*
X149004726Y-135815350D01*
X149226346Y-135105632D01*
X149363460Y-134596387D01*
X149372536Y-134550578D01*
X149773622Y-133512995D01*
X150502667Y-132680127D01*
X151322605Y-132246749D01*
X151980997Y-132096509D01*
X152379150Y-132064841D01*
X152415107Y-132079511D01*
G36*
X164964268Y-133831263D02*
X164828555Y-134291025D01*
X164597452Y-135076843D01*
X164374420Y-135836527D01*
X164105456Y-136683562D01*
X163916217Y-137070712D01*
X163767311Y-137059391D01*
X163688507Y-136906000D01*
X163522470Y-136572037D01*
X163459657Y-136729457D01*
X163454424Y-136823379D01*
X163339161Y-137197913D01*
X163119257Y-137480132D01*
X162937189Y-137523233D01*
X162904833Y-137389674D01*
X162981395Y-137035540D01*
X163175827Y-136338903D01*
X163385953Y-135645055D01*
X163725674Y-134650507D01*
X163997764Y-134035974D01*
X164176853Y-133847324D01*
X164237737Y-134105172D01*
X164354225Y-134241877D01*
X164660616Y-133949208D01*
X164942782Y-133670485D01*
X164964268Y-133831263D01*
X164964268Y-133831263D01*
G37*
X164964268Y-133831263D02*
X164828555Y-134291025D01*
X164597452Y-135076843D01*
X164374420Y-135836527D01*
X164105456Y-136683562D01*
X163916217Y-137070712D01*
X163767311Y-137059391D01*
X163688507Y-136906000D01*
X163522470Y-136572037D01*
X163459657Y-136729457D01*
X163454424Y-136823379D01*
X163339161Y-137197913D01*
X163119257Y-137480132D01*
X162937189Y-137523233D01*
X162904833Y-137389674D01*
X162981395Y-137035540D01*
X163175827Y-136338903D01*
X163385953Y-135645055D01*
X163725674Y-134650507D01*
X163997764Y-134035974D01*
X164176853Y-133847324D01*
X164237737Y-134105172D01*
X164354225Y-134241877D01*
X164660616Y-133949208D01*
X164942782Y-133670485D01*
X164964268Y-133831263D01*
G36*
X163083004Y-134458987D02*
X163110651Y-134791632D01*
X163000459Y-135442460D01*
X162800011Y-136228095D01*
X162556891Y-136965160D01*
X162318683Y-137470281D01*
X162291932Y-137507579D01*
X161893762Y-137805437D01*
X161522949Y-137814637D01*
X161371531Y-137557146D01*
X161406582Y-137406313D01*
X161481046Y-137173369D01*
X161831421Y-137173369D01*
X161965106Y-137307053D01*
X162098790Y-137173369D01*
X161965106Y-137039684D01*
X161831421Y-137173369D01*
X161481046Y-137173369D01*
X161572595Y-136886982D01*
X161715739Y-136371263D01*
X162098790Y-136371263D01*
X162232474Y-136504948D01*
X162366158Y-136371263D01*
X162232474Y-136237579D01*
X162098790Y-136371263D01*
X161715739Y-136371263D01*
X161791094Y-136099779D01*
X161873714Y-135779331D01*
X162000596Y-135435474D01*
X162366158Y-135435474D01*
X162463984Y-135655548D01*
X162544404Y-135613720D01*
X162576403Y-135296416D01*
X162544404Y-135257228D01*
X162385454Y-135293930D01*
X162366158Y-135435474D01*
X162000596Y-135435474D01*
X162183780Y-134939037D01*
X162569553Y-134444025D01*
X162960063Y-134371783D01*
X163083004Y-134458987D01*
X163083004Y-134458987D01*
G37*
X163083004Y-134458987D02*
X163110651Y-134791632D01*
X163000459Y-135442460D01*
X162800011Y-136228095D01*
X162556891Y-136965160D01*
X162318683Y-137470281D01*
X162291932Y-137507579D01*
X161893762Y-137805437D01*
X161522949Y-137814637D01*
X161371531Y-137557146D01*
X161406582Y-137406313D01*
X161481046Y-137173369D01*
X161831421Y-137173369D01*
X161965106Y-137307053D01*
X162098790Y-137173369D01*
X161965106Y-137039684D01*
X161831421Y-137173369D01*
X161481046Y-137173369D01*
X161572595Y-136886982D01*
X161715739Y-136371263D01*
X162098790Y-136371263D01*
X162232474Y-136504948D01*
X162366158Y-136371263D01*
X162232474Y-136237579D01*
X162098790Y-136371263D01*
X161715739Y-136371263D01*
X161791094Y-136099779D01*
X161873714Y-135779331D01*
X162000596Y-135435474D01*
X162366158Y-135435474D01*
X162463984Y-135655548D01*
X162544404Y-135613720D01*
X162576403Y-135296416D01*
X162544404Y-135257228D01*
X162385454Y-135293930D01*
X162366158Y-135435474D01*
X162000596Y-135435474D01*
X162183780Y-134939037D01*
X162569553Y-134444025D01*
X162960063Y-134371783D01*
X163083004Y-134458987D01*
G36*
X161235818Y-135038332D02*
X161179350Y-135529505D01*
X161142454Y-135702842D01*
X160983334Y-136549066D01*
X160891457Y-137292954D01*
X160890552Y-137307053D01*
X160710701Y-137846711D01*
X160429471Y-138057117D01*
X160203881Y-138054040D01*
X160143848Y-137848653D01*
X160248246Y-137326882D01*
X160416274Y-136720275D01*
X160693329Y-135871387D01*
X160950485Y-135268570D01*
X161145423Y-134971119D01*
X161235818Y-135038332D01*
X161235818Y-135038332D01*
G37*
X161235818Y-135038332D02*
X161179350Y-135529505D01*
X161142454Y-135702842D01*
X160983334Y-136549066D01*
X160891457Y-137292954D01*
X160890552Y-137307053D01*
X160710701Y-137846711D01*
X160429471Y-138057117D01*
X160203881Y-138054040D01*
X160143848Y-137848653D01*
X160248246Y-137326882D01*
X160416274Y-136720275D01*
X160693329Y-135871387D01*
X160950485Y-135268570D01*
X161145423Y-134971119D01*
X161235818Y-135038332D01*
G36*
X149243696Y-133250009D02*
X149131023Y-133819928D01*
X148881878Y-134615234D01*
X148544909Y-135508156D01*
X148168760Y-136370920D01*
X147802077Y-137075752D01*
X147493507Y-137494880D01*
X147463247Y-137519502D01*
X146830403Y-137739917D01*
X146407281Y-137719047D01*
X145881194Y-137707377D01*
X145656238Y-137840808D01*
X145243210Y-138086371D01*
X144692896Y-138046106D01*
X144300294Y-137748942D01*
X144280962Y-137705940D01*
X144286274Y-137211623D01*
X144500221Y-136520505D01*
X144553248Y-136402853D01*
X144870038Y-135622602D01*
X145066232Y-134934990D01*
X145073862Y-134889665D01*
X145379537Y-134314676D01*
X145745757Y-134062420D01*
X146133611Y-133960086D01*
X146288114Y-134087434D01*
X146220553Y-134531901D01*
X145942216Y-135380924D01*
X145923000Y-135435474D01*
X145682551Y-136190811D01*
X145550387Y-136751187D01*
X145540834Y-136872773D01*
X145635586Y-136857496D01*
X145852023Y-136480232D01*
X146128471Y-135881311D01*
X146403253Y-135201065D01*
X146614693Y-134579821D01*
X146692366Y-134252698D01*
X147005018Y-133751517D01*
X147355389Y-133611700D01*
X147935004Y-133525820D01*
X147370784Y-135033833D01*
X147094131Y-135854035D01*
X146946727Y-136457828D01*
X146950698Y-136685979D01*
X147124731Y-136558052D01*
X147398618Y-136065086D01*
X147707531Y-135350788D01*
X147986640Y-134558865D01*
X148110881Y-134114234D01*
X148480221Y-133339466D01*
X149089969Y-133037264D01*
X149171253Y-133033252D01*
X149243696Y-133250009D01*
X149243696Y-133250009D01*
G37*
X149243696Y-133250009D02*
X149131023Y-133819928D01*
X148881878Y-134615234D01*
X148544909Y-135508156D01*
X148168760Y-136370920D01*
X147802077Y-137075752D01*
X147493507Y-137494880D01*
X147463247Y-137519502D01*
X146830403Y-137739917D01*
X146407281Y-137719047D01*
X145881194Y-137707377D01*
X145656238Y-137840808D01*
X145243210Y-138086371D01*
X144692896Y-138046106D01*
X144300294Y-137748942D01*
X144280962Y-137705940D01*
X144286274Y-137211623D01*
X144500221Y-136520505D01*
X144553248Y-136402853D01*
X144870038Y-135622602D01*
X145066232Y-134934990D01*
X145073862Y-134889665D01*
X145379537Y-134314676D01*
X145745757Y-134062420D01*
X146133611Y-133960086D01*
X146288114Y-134087434D01*
X146220553Y-134531901D01*
X145942216Y-135380924D01*
X145923000Y-135435474D01*
X145682551Y-136190811D01*
X145550387Y-136751187D01*
X145540834Y-136872773D01*
X145635586Y-136857496D01*
X145852023Y-136480232D01*
X146128471Y-135881311D01*
X146403253Y-135201065D01*
X146614693Y-134579821D01*
X146692366Y-134252698D01*
X147005018Y-133751517D01*
X147355389Y-133611700D01*
X147935004Y-133525820D01*
X147370784Y-135033833D01*
X147094131Y-135854035D01*
X146946727Y-136457828D01*
X146950698Y-136685979D01*
X147124731Y-136558052D01*
X147398618Y-136065086D01*
X147707531Y-135350788D01*
X147986640Y-134558865D01*
X148110881Y-134114234D01*
X148480221Y-133339466D01*
X149089969Y-133037264D01*
X149171253Y-133033252D01*
X149243696Y-133250009D01*
G36*
X160220329Y-135450955D02*
X160227211Y-135569158D01*
X160028077Y-135923960D01*
X159855143Y-135970211D01*
X159518481Y-136195108D01*
X159301104Y-136705949D01*
X159265571Y-137256958D01*
X159443855Y-137586009D01*
X159620817Y-137908441D01*
X159422605Y-138240399D01*
X159008274Y-138376527D01*
X158688038Y-138155966D01*
X158623000Y-137881687D01*
X158722001Y-137204263D01*
X158965174Y-136409854D01*
X159271780Y-135720405D01*
X159535743Y-135372726D01*
X160015913Y-135185011D01*
X160220329Y-135450955D01*
X160220329Y-135450955D01*
G37*
X160220329Y-135450955D02*
X160227211Y-135569158D01*
X160028077Y-135923960D01*
X159855143Y-135970211D01*
X159518481Y-136195108D01*
X159301104Y-136705949D01*
X159265571Y-137256958D01*
X159443855Y-137586009D01*
X159620817Y-137908441D01*
X159422605Y-138240399D01*
X159008274Y-138376527D01*
X158688038Y-138155966D01*
X158623000Y-137881687D01*
X158722001Y-137204263D01*
X158965174Y-136409854D01*
X159271780Y-135720405D01*
X159535743Y-135372726D01*
X160015913Y-135185011D01*
X160220329Y-135450955D01*
G36*
X158611293Y-135909381D02*
X158432372Y-136428683D01*
X158130757Y-137110273D01*
X157778662Y-137803678D01*
X157448302Y-138358424D01*
X157211894Y-138624038D01*
X157190711Y-138629568D01*
X157082211Y-138441591D01*
X157146615Y-138176000D01*
X157322862Y-137579910D01*
X157476711Y-136844467D01*
X157630375Y-136298503D01*
X157814474Y-136104636D01*
X157836542Y-136113565D01*
X158148645Y-136059602D01*
X158219252Y-135974572D01*
X158527219Y-135714720D01*
X158595303Y-135702842D01*
X158611293Y-135909381D01*
X158611293Y-135909381D01*
G37*
X158611293Y-135909381D02*
X158432372Y-136428683D01*
X158130757Y-137110273D01*
X157778662Y-137803678D01*
X157448302Y-138358424D01*
X157211894Y-138624038D01*
X157190711Y-138629568D01*
X157082211Y-138441591D01*
X157146615Y-138176000D01*
X157322862Y-137579910D01*
X157476711Y-136844467D01*
X157630375Y-136298503D01*
X157814474Y-136104636D01*
X157836542Y-136113565D01*
X158148645Y-136059602D01*
X158219252Y-135974572D01*
X158527219Y-135714720D01*
X158595303Y-135702842D01*
X158611293Y-135909381D01*
G36*
X144437812Y-134757991D02*
X144510944Y-135085701D01*
X144372280Y-135720554D01*
X144082757Y-136509735D01*
X143703312Y-137300430D01*
X143294880Y-137939825D01*
X143074840Y-138176000D01*
X142498855Y-138501588D01*
X141881780Y-138632566D01*
X141405753Y-138555603D01*
X141248078Y-138309684D01*
X141356188Y-137770721D01*
X141379609Y-137699518D01*
X142313527Y-137699518D01*
X142405192Y-137868241D01*
X142638346Y-137616755D01*
X142950222Y-137019043D01*
X143011253Y-136877102D01*
X143234260Y-136229408D01*
X143289315Y-135814259D01*
X143268488Y-135766576D01*
X143104977Y-135903429D01*
X142838389Y-136355021D01*
X142559452Y-136937712D01*
X142358893Y-137467861D01*
X142313527Y-137699518D01*
X141379609Y-137699518D01*
X141620476Y-136967263D01*
X141962976Y-136115563D01*
X142252408Y-135524048D01*
X142719454Y-135077875D01*
X143419043Y-134764471D01*
X144111140Y-134667977D01*
X144437812Y-134757991D01*
X144437812Y-134757991D01*
G37*
X144437812Y-134757991D02*
X144510944Y-135085701D01*
X144372280Y-135720554D01*
X144082757Y-136509735D01*
X143703312Y-137300430D01*
X143294880Y-137939825D01*
X143074840Y-138176000D01*
X142498855Y-138501588D01*
X141881780Y-138632566D01*
X141405753Y-138555603D01*
X141248078Y-138309684D01*
X141356188Y-137770721D01*
X141379609Y-137699518D01*
X142313527Y-137699518D01*
X142405192Y-137868241D01*
X142638346Y-137616755D01*
X142950222Y-137019043D01*
X143011253Y-136877102D01*
X143234260Y-136229408D01*
X143289315Y-135814259D01*
X143268488Y-135766576D01*
X143104977Y-135903429D01*
X142838389Y-136355021D01*
X142559452Y-136937712D01*
X142358893Y-137467861D01*
X142313527Y-137699518D01*
X141379609Y-137699518D01*
X141620476Y-136967263D01*
X141962976Y-136115563D01*
X142252408Y-135524048D01*
X142719454Y-135077875D01*
X143419043Y-134764471D01*
X144111140Y-134667977D01*
X144437812Y-134757991D01*
G36*
X156964518Y-136108629D02*
X156990216Y-136134206D01*
X156941630Y-136360639D01*
X156800985Y-136435908D01*
X156406003Y-136777860D01*
X156153687Y-137336365D01*
X156114082Y-137883442D01*
X156273165Y-138153817D01*
X156466016Y-138394363D01*
X156216684Y-138639801D01*
X155662666Y-138892214D01*
X155424320Y-138716920D01*
X155414579Y-138608073D01*
X155526686Y-137800500D01*
X155812896Y-137028757D01*
X156198047Y-136410856D01*
X156606976Y-136064810D01*
X156964518Y-136108629D01*
X156964518Y-136108629D01*
G37*
X156964518Y-136108629D02*
X156990216Y-136134206D01*
X156941630Y-136360639D01*
X156800985Y-136435908D01*
X156406003Y-136777860D01*
X156153687Y-137336365D01*
X156114082Y-137883442D01*
X156273165Y-138153817D01*
X156466016Y-138394363D01*
X156216684Y-138639801D01*
X155662666Y-138892214D01*
X155424320Y-138716920D01*
X155414579Y-138608073D01*
X155526686Y-137800500D01*
X155812896Y-137028757D01*
X156198047Y-136410856D01*
X156606976Y-136064810D01*
X156964518Y-136108629D01*
G36*
X157674832Y-128293298D02*
X157477143Y-129063897D01*
X157206034Y-129506036D01*
X156700427Y-129818758D01*
X156299384Y-129992955D01*
X155402886Y-130629047D01*
X154983820Y-131321121D01*
X154765249Y-131916889D01*
X154775002Y-132335402D01*
X155063063Y-132792873D01*
X155420639Y-133210593D01*
X155887488Y-133837285D01*
X156121191Y-134344164D01*
X156121900Y-134494724D01*
X155985195Y-134905761D01*
X155747111Y-135670404D01*
X155457206Y-136629267D01*
X155433970Y-136707206D01*
X155115617Y-137666276D01*
X154801850Y-138430580D01*
X154556850Y-138845253D01*
X154542437Y-138858440D01*
X154143304Y-139003819D01*
X153313244Y-139177819D01*
X152141299Y-139370638D01*
X150716506Y-139572475D01*
X149127907Y-139773528D01*
X147464540Y-139963996D01*
X145815446Y-140134077D01*
X144269664Y-140273970D01*
X142916234Y-140373873D01*
X141844195Y-140423983D01*
X141142588Y-140414501D01*
X140909503Y-140359169D01*
X140728902Y-139961402D01*
X140712796Y-139455636D01*
X140839071Y-139062517D01*
X141047346Y-138983767D01*
X141494705Y-139010257D01*
X142368003Y-138945690D01*
X143569307Y-138806262D01*
X145000685Y-138608169D01*
X146564205Y-138367607D01*
X148161935Y-138100773D01*
X149695942Y-137823861D01*
X151068295Y-137553069D01*
X152181061Y-137304592D01*
X152936308Y-137094627D01*
X153208790Y-136972504D01*
X153515653Y-136523938D01*
X153442021Y-136115941D01*
X153075106Y-135949103D01*
X152917163Y-135871665D01*
X153261155Y-135689955D01*
X153342474Y-135659454D01*
X153924640Y-135280476D01*
X154077737Y-134744772D01*
X153999203Y-134252833D01*
X153855548Y-134098632D01*
X153579472Y-133888933D01*
X153289475Y-133456076D01*
X153103365Y-132951620D01*
X153104828Y-132349828D01*
X153294828Y-131450890D01*
X153299227Y-131433700D01*
X153487831Y-130517495D01*
X153467321Y-130010273D01*
X153359625Y-129870466D01*
X153458274Y-129689617D01*
X153957971Y-129347921D01*
X154770500Y-128900320D01*
X155462703Y-128560667D01*
X157859021Y-127434281D01*
X157674832Y-128293298D01*
X157674832Y-128293298D01*
G37*
X157674832Y-128293298D02*
X157477143Y-129063897D01*
X157206034Y-129506036D01*
X156700427Y-129818758D01*
X156299384Y-129992955D01*
X155402886Y-130629047D01*
X154983820Y-131321121D01*
X154765249Y-131916889D01*
X154775002Y-132335402D01*
X155063063Y-132792873D01*
X155420639Y-133210593D01*
X155887488Y-133837285D01*
X156121191Y-134344164D01*
X156121900Y-134494724D01*
X155985195Y-134905761D01*
X155747111Y-135670404D01*
X155457206Y-136629267D01*
X155433970Y-136707206D01*
X155115617Y-137666276D01*
X154801850Y-138430580D01*
X154556850Y-138845253D01*
X154542437Y-138858440D01*
X154143304Y-139003819D01*
X153313244Y-139177819D01*
X152141299Y-139370638D01*
X150716506Y-139572475D01*
X149127907Y-139773528D01*
X147464540Y-139963996D01*
X145815446Y-140134077D01*
X144269664Y-140273970D01*
X142916234Y-140373873D01*
X141844195Y-140423983D01*
X141142588Y-140414501D01*
X140909503Y-140359169D01*
X140728902Y-139961402D01*
X140712796Y-139455636D01*
X140839071Y-139062517D01*
X141047346Y-138983767D01*
X141494705Y-139010257D01*
X142368003Y-138945690D01*
X143569307Y-138806262D01*
X145000685Y-138608169D01*
X146564205Y-138367607D01*
X148161935Y-138100773D01*
X149695942Y-137823861D01*
X151068295Y-137553069D01*
X152181061Y-137304592D01*
X152936308Y-137094627D01*
X153208790Y-136972504D01*
X153515653Y-136523938D01*
X153442021Y-136115941D01*
X153075106Y-135949103D01*
X152917163Y-135871665D01*
X153261155Y-135689955D01*
X153342474Y-135659454D01*
X153924640Y-135280476D01*
X154077737Y-134744772D01*
X153999203Y-134252833D01*
X153855548Y-134098632D01*
X153579472Y-133888933D01*
X153289475Y-133456076D01*
X153103365Y-132951620D01*
X153104828Y-132349828D01*
X153294828Y-131450890D01*
X153299227Y-131433700D01*
X153487831Y-130517495D01*
X153467321Y-130010273D01*
X153359625Y-129870466D01*
X153458274Y-129689617D01*
X153957971Y-129347921D01*
X154770500Y-128900320D01*
X155462703Y-128560667D01*
X157859021Y-127434281D01*
X157674832Y-128293298D01*
G36*
X142221979Y-133936035D02*
X142255770Y-133951752D01*
X142204455Y-134226073D01*
X141985575Y-134889814D01*
X141635772Y-135838184D01*
X141267178Y-136779076D01*
X140820294Y-137937510D01*
X140461761Y-138951747D01*
X140234051Y-139696227D01*
X140174579Y-140008933D01*
X140069906Y-140347485D01*
X139665425Y-140492888D01*
X139144129Y-140515474D01*
X138113679Y-140515474D01*
X138774036Y-139135656D01*
X139149487Y-138256428D01*
X139405016Y-137479244D01*
X139470276Y-137130581D01*
X139561636Y-136648298D01*
X139680529Y-136505136D01*
X139898249Y-136276410D01*
X140118947Y-135736896D01*
X140275763Y-135105965D01*
X140301836Y-134602987D01*
X140282690Y-134529453D01*
X140394985Y-134238980D01*
X141008587Y-134035097D01*
X141148880Y-134010491D01*
X141820158Y-133930223D01*
X142221979Y-133936035D01*
X142221979Y-133936035D01*
G37*
X142221979Y-133936035D02*
X142255770Y-133951752D01*
X142204455Y-134226073D01*
X141985575Y-134889814D01*
X141635772Y-135838184D01*
X141267178Y-136779076D01*
X140820294Y-137937510D01*
X140461761Y-138951747D01*
X140234051Y-139696227D01*
X140174579Y-140008933D01*
X140069906Y-140347485D01*
X139665425Y-140492888D01*
X139144129Y-140515474D01*
X138113679Y-140515474D01*
X138774036Y-139135656D01*
X139149487Y-138256428D01*
X139405016Y-137479244D01*
X139470276Y-137130581D01*
X139561636Y-136648298D01*
X139680529Y-136505136D01*
X139898249Y-136276410D01*
X140118947Y-135736896D01*
X140275763Y-135105965D01*
X140301836Y-134602987D01*
X140282690Y-134529453D01*
X140394985Y-134238980D01*
X141008587Y-134035097D01*
X141148880Y-134010491D01*
X141820158Y-133930223D01*
X142221979Y-133936035D01*
G36*
X157725887Y-139529238D02*
X157615441Y-139731758D01*
X157118231Y-140055219D01*
X156350172Y-140438197D01*
X155427178Y-140819265D01*
X155013527Y-140966563D01*
X153944053Y-141327779D01*
X155414579Y-141188151D01*
X156360728Y-141079120D01*
X157169445Y-140953248D01*
X157486684Y-140884499D01*
X157956906Y-140855251D01*
X158088263Y-141165478D01*
X157868077Y-141707501D01*
X157316186Y-142308508D01*
X156595593Y-142824486D01*
X155890333Y-143107376D01*
X155353285Y-143333201D01*
X155147211Y-143637275D01*
X154906188Y-144007816D01*
X154284132Y-144365082D01*
X153432562Y-144647514D01*
X152502999Y-144793554D01*
X152281588Y-144801499D01*
X151670317Y-144829184D01*
X151529467Y-144921836D01*
X151757631Y-145092991D01*
X152388398Y-145250635D01*
X152915578Y-145208022D01*
X153412519Y-145189567D01*
X153547393Y-145408463D01*
X153364510Y-145754494D01*
X152908180Y-146117448D01*
X152470270Y-146315646D01*
X151961956Y-146519839D01*
X151834147Y-146639029D01*
X151887727Y-146649857D01*
X152109255Y-146813088D01*
X152072474Y-146932316D01*
X151733505Y-147080126D01*
X151036012Y-147177225D01*
X150431917Y-147199684D01*
X149503358Y-147157556D01*
X148884237Y-146979901D01*
X148352479Y-146589815D01*
X148175065Y-146418146D01*
X147680378Y-145831213D01*
X147410411Y-145331494D01*
X147393527Y-145230767D01*
X147532450Y-144781796D01*
X147825228Y-144638581D01*
X148084469Y-144889332D01*
X148449966Y-145262581D01*
X149157496Y-145641445D01*
X150020704Y-145949383D01*
X150853235Y-146109856D01*
X151075253Y-146117705D01*
X151423316Y-146082732D01*
X151367338Y-145970004D01*
X150864944Y-145740252D01*
X150519788Y-145602993D01*
X149698661Y-145250255D01*
X149050452Y-144915799D01*
X148848735Y-144780656D01*
X148480987Y-144341874D01*
X148596571Y-144087546D01*
X149161836Y-144065465D01*
X149331948Y-144094304D01*
X150200895Y-144264187D01*
X149326495Y-143727287D01*
X148587638Y-143142552D01*
X148135151Y-142532690D01*
X147970770Y-141990503D01*
X148096231Y-141608792D01*
X148513272Y-141480361D01*
X149223627Y-141698010D01*
X149289145Y-141731063D01*
X150037487Y-141990748D01*
X151068248Y-142193837D01*
X151926708Y-142280260D01*
X153676684Y-142370467D01*
X152123468Y-141973487D01*
X151231590Y-141700328D01*
X150386954Y-141367320D01*
X149715282Y-141034334D01*
X149342293Y-140761241D01*
X149323603Y-140640128D01*
X149625458Y-140558770D01*
X150341645Y-140432380D01*
X151361261Y-140275621D01*
X152573406Y-140103155D01*
X153867177Y-139929646D01*
X155131672Y-139769755D01*
X156255991Y-139638146D01*
X157129231Y-139549481D01*
X157640491Y-139518422D01*
X157725887Y-139529238D01*
X157725887Y-139529238D01*
G37*
X157725887Y-139529238D02*
X157615441Y-139731758D01*
X157118231Y-140055219D01*
X156350172Y-140438197D01*
X155427178Y-140819265D01*
X155013527Y-140966563D01*
X153944053Y-141327779D01*
X155414579Y-141188151D01*
X156360728Y-141079120D01*
X157169445Y-140953248D01*
X157486684Y-140884499D01*
X157956906Y-140855251D01*
X158088263Y-141165478D01*
X157868077Y-141707501D01*
X157316186Y-142308508D01*
X156595593Y-142824486D01*
X155890333Y-143107376D01*
X155353285Y-143333201D01*
X155147211Y-143637275D01*
X154906188Y-144007816D01*
X154284132Y-144365082D01*
X153432562Y-144647514D01*
X152502999Y-144793554D01*
X152281588Y-144801499D01*
X151670317Y-144829184D01*
X151529467Y-144921836D01*
X151757631Y-145092991D01*
X152388398Y-145250635D01*
X152915578Y-145208022D01*
X153412519Y-145189567D01*
X153547393Y-145408463D01*
X153364510Y-145754494D01*
X152908180Y-146117448D01*
X152470270Y-146315646D01*
X151961956Y-146519839D01*
X151834147Y-146639029D01*
X151887727Y-146649857D01*
X152109255Y-146813088D01*
X152072474Y-146932316D01*
X151733505Y-147080126D01*
X151036012Y-147177225D01*
X150431917Y-147199684D01*
X149503358Y-147157556D01*
X148884237Y-146979901D01*
X148352479Y-146589815D01*
X148175065Y-146418146D01*
X147680378Y-145831213D01*
X147410411Y-145331494D01*
X147393527Y-145230767D01*
X147532450Y-144781796D01*
X147825228Y-144638581D01*
X148084469Y-144889332D01*
X148449966Y-145262581D01*
X149157496Y-145641445D01*
X150020704Y-145949383D01*
X150853235Y-146109856D01*
X151075253Y-146117705D01*
X151423316Y-146082732D01*
X151367338Y-145970004D01*
X150864944Y-145740252D01*
X150519788Y-145602993D01*
X149698661Y-145250255D01*
X149050452Y-144915799D01*
X148848735Y-144780656D01*
X148480987Y-144341874D01*
X148596571Y-144087546D01*
X149161836Y-144065465D01*
X149331948Y-144094304D01*
X150200895Y-144264187D01*
X149326495Y-143727287D01*
X148587638Y-143142552D01*
X148135151Y-142532690D01*
X147970770Y-141990503D01*
X148096231Y-141608792D01*
X148513272Y-141480361D01*
X149223627Y-141698010D01*
X149289145Y-141731063D01*
X150037487Y-141990748D01*
X151068248Y-142193837D01*
X151926708Y-142280260D01*
X153676684Y-142370467D01*
X152123468Y-141973487D01*
X151231590Y-141700328D01*
X150386954Y-141367320D01*
X149715282Y-141034334D01*
X149342293Y-140761241D01*
X149323603Y-140640128D01*
X149625458Y-140558770D01*
X150341645Y-140432380D01*
X151361261Y-140275621D01*
X152573406Y-140103155D01*
X153867177Y-139929646D01*
X155131672Y-139769755D01*
X156255991Y-139638146D01*
X157129231Y-139549481D01*
X157640491Y-139518422D01*
X157725887Y-139529238D01*
G36*
X146547908Y-145864232D02*
X147131135Y-146254232D01*
X147303222Y-146399801D01*
X148016548Y-146933557D01*
X148699086Y-147301710D01*
X148868956Y-147358490D01*
X149446000Y-147575724D01*
X149545158Y-147778587D01*
X149222414Y-147922275D01*
X148533754Y-147961983D01*
X148146537Y-147936653D01*
X147367947Y-147875349D01*
X147043467Y-147902972D01*
X147096924Y-148039616D01*
X147261850Y-148170004D01*
X147541861Y-148445290D01*
X147480686Y-148536527D01*
X147092106Y-148383678D01*
X146532775Y-148012715D01*
X146493794Y-147982384D01*
X146008899Y-147495538D01*
X145790318Y-147067787D01*
X145789316Y-147046595D01*
X145855650Y-146728291D01*
X146136996Y-146720049D01*
X146675841Y-146968603D01*
X147259842Y-147272258D01*
X146655818Y-146614557D01*
X146245010Y-146066036D01*
X146230787Y-145808714D01*
X146547908Y-145864232D01*
X146547908Y-145864232D01*
G37*
X146547908Y-145864232D02*
X147131135Y-146254232D01*
X147303222Y-146399801D01*
X148016548Y-146933557D01*
X148699086Y-147301710D01*
X148868956Y-147358490D01*
X149446000Y-147575724D01*
X149545158Y-147778587D01*
X149222414Y-147922275D01*
X148533754Y-147961983D01*
X148146537Y-147936653D01*
X147367947Y-147875349D01*
X147043467Y-147902972D01*
X147096924Y-148039616D01*
X147261850Y-148170004D01*
X147541861Y-148445290D01*
X147480686Y-148536527D01*
X147092106Y-148383678D01*
X146532775Y-148012715D01*
X146493794Y-147982384D01*
X146008899Y-147495538D01*
X145790318Y-147067787D01*
X145789316Y-147046595D01*
X145855650Y-146728291D01*
X146136996Y-146720049D01*
X146675841Y-146968603D01*
X147259842Y-147272258D01*
X146655818Y-146614557D01*
X146245010Y-146066036D01*
X146230787Y-145808714D01*
X146547908Y-145864232D01*
G36*
X146913621Y-148841143D02*
X147659387Y-149026559D01*
X147987574Y-149220355D01*
X148008962Y-149513239D01*
X147951797Y-149691209D01*
X147554001Y-150261197D01*
X147098260Y-150604690D01*
X146750784Y-150843516D01*
X146854891Y-150942904D01*
X146858790Y-150942995D01*
X147121036Y-150989045D01*
X146905059Y-151175338D01*
X146871555Y-151196663D01*
X146427207Y-151343298D01*
X146269976Y-151310474D01*
X146068509Y-151376352D01*
X146056684Y-151461800D01*
X145890733Y-151724914D01*
X145403314Y-151572405D01*
X145264272Y-151489227D01*
X145016962Y-151177314D01*
X145089175Y-150641666D01*
X145140108Y-150490690D01*
X145447988Y-149944118D01*
X145923389Y-149805833D01*
X146066205Y-149817469D01*
X146725106Y-149895253D01*
X146060679Y-149367860D01*
X145601938Y-148935183D01*
X145600490Y-148713805D01*
X146071837Y-148694153D01*
X146913621Y-148841143D01*
X146913621Y-148841143D01*
G37*
X146913621Y-148841143D02*
X147659387Y-149026559D01*
X147987574Y-149220355D01*
X148008962Y-149513239D01*
X147951797Y-149691209D01*
X147554001Y-150261197D01*
X147098260Y-150604690D01*
X146750784Y-150843516D01*
X146854891Y-150942904D01*
X146858790Y-150942995D01*
X147121036Y-150989045D01*
X146905059Y-151175338D01*
X146871555Y-151196663D01*
X146427207Y-151343298D01*
X146269976Y-151310474D01*
X146068509Y-151376352D01*
X146056684Y-151461800D01*
X145890733Y-151724914D01*
X145403314Y-151572405D01*
X145264272Y-151489227D01*
X145016962Y-151177314D01*
X145089175Y-150641666D01*
X145140108Y-150490690D01*
X145447988Y-149944118D01*
X145923389Y-149805833D01*
X146066205Y-149817469D01*
X146725106Y-149895253D01*
X146060679Y-149367860D01*
X145601938Y-148935183D01*
X145600490Y-148713805D01*
X146071837Y-148694153D01*
X146913621Y-148841143D01*
D11*
X146462904Y-76414380D02*
X146462904Y-77223904D01*
X146510523Y-77319142D01*
X146558142Y-77366761D01*
X146653380Y-77414380D01*
X146843857Y-77414380D01*
X146939095Y-77366761D01*
X146986714Y-77319142D01*
X147034333Y-77223904D01*
X147034333Y-76414380D01*
X148034333Y-77414380D02*
X147462904Y-77414380D01*
X147748619Y-77414380D02*
X147748619Y-76414380D01*
X147653380Y-76557238D01*
X147558142Y-76652476D01*
X147462904Y-76700095D01*
X148653380Y-76414380D02*
X148748619Y-76414380D01*
X148843857Y-76462000D01*
X148891476Y-76509619D01*
X148939095Y-76604857D01*
X148986714Y-76795333D01*
X148986714Y-77033428D01*
X148939095Y-77223904D01*
X148891476Y-77319142D01*
X148843857Y-77366761D01*
X148748619Y-77414380D01*
X148653380Y-77414380D01*
X148558142Y-77366761D01*
X148510523Y-77319142D01*
X148462904Y-77223904D01*
X148415285Y-77033428D01*
X148415285Y-76795333D01*
X148462904Y-76604857D01*
X148510523Y-76509619D01*
X148558142Y-76462000D01*
X148653380Y-76414380D01*
X165441380Y-101980904D02*
X166250904Y-101980904D01*
X166346142Y-101933285D01*
X166393761Y-101885666D01*
X166441380Y-101790428D01*
X166441380Y-101599952D01*
X166393761Y-101504714D01*
X166346142Y-101457095D01*
X166250904Y-101409476D01*
X165441380Y-101409476D01*
X165869952Y-100790428D02*
X165822333Y-100885666D01*
X165774714Y-100933285D01*
X165679476Y-100980904D01*
X165631857Y-100980904D01*
X165536619Y-100933285D01*
X165489000Y-100885666D01*
X165441380Y-100790428D01*
X165441380Y-100599952D01*
X165489000Y-100504714D01*
X165536619Y-100457095D01*
X165631857Y-100409476D01*
X165679476Y-100409476D01*
X165774714Y-100457095D01*
X165822333Y-100504714D01*
X165869952Y-100599952D01*
X165869952Y-100790428D01*
X165917571Y-100885666D01*
X165965190Y-100933285D01*
X166060428Y-100980904D01*
X166250904Y-100980904D01*
X166346142Y-100933285D01*
X166393761Y-100885666D01*
X166441380Y-100790428D01*
X166441380Y-100599952D01*
X166393761Y-100504714D01*
X166346142Y-100457095D01*
X166250904Y-100409476D01*
X166060428Y-100409476D01*
X165965190Y-100457095D01*
X165917571Y-100504714D01*
X165869952Y-100599952D01*
X93016780Y-65365855D02*
X92016780Y-65365855D01*
X92016780Y-64984902D01*
X92064400Y-64889664D01*
X92112019Y-64842045D01*
X92207257Y-64794426D01*
X92350114Y-64794426D01*
X92445352Y-64842045D01*
X92492971Y-64889664D01*
X92540590Y-64984902D01*
X92540590Y-65365855D01*
X93016780Y-63842045D02*
X93016780Y-64413474D01*
X93016780Y-64127760D02*
X92016780Y-64127760D01*
X92159638Y-64222998D01*
X92254876Y-64318236D01*
X92302495Y-64413474D01*
X93016780Y-70445855D02*
X92016780Y-70445855D01*
X92016780Y-70064902D01*
X92064400Y-69969664D01*
X92112019Y-69922045D01*
X92207257Y-69874426D01*
X92350114Y-69874426D01*
X92445352Y-69922045D01*
X92492971Y-69969664D01*
X92540590Y-70064902D01*
X92540590Y-70445855D01*
X92112019Y-69493474D02*
X92064400Y-69445855D01*
X92016780Y-69350617D01*
X92016780Y-69112521D01*
X92064400Y-69017283D01*
X92112019Y-68969664D01*
X92207257Y-68922045D01*
X92302495Y-68922045D01*
X92445352Y-68969664D01*
X93016780Y-69541093D01*
X93016780Y-68922045D01*
X92019380Y-107595895D02*
X91019380Y-107595895D01*
X91019380Y-107214942D01*
X91067000Y-107119704D01*
X91114619Y-107072085D01*
X91209857Y-107024466D01*
X91352714Y-107024466D01*
X91447952Y-107072085D01*
X91495571Y-107119704D01*
X91543190Y-107214942D01*
X91543190Y-107595895D01*
X91019380Y-106691133D02*
X91019380Y-106072085D01*
X91400333Y-106405419D01*
X91400333Y-106262561D01*
X91447952Y-106167323D01*
X91495571Y-106119704D01*
X91590809Y-106072085D01*
X91828904Y-106072085D01*
X91924142Y-106119704D01*
X91971761Y-106167323D01*
X92019380Y-106262561D01*
X92019380Y-106548276D01*
X91971761Y-106643514D01*
X91924142Y-106691133D01*
X110537666Y-78526380D02*
X110537666Y-79240666D01*
X110490047Y-79383523D01*
X110394809Y-79478761D01*
X110251952Y-79526380D01*
X110156714Y-79526380D01*
X111537666Y-79526380D02*
X110966238Y-79526380D01*
X111251952Y-79526380D02*
X111251952Y-78526380D01*
X111156714Y-78669238D01*
X111061476Y-78764476D01*
X110966238Y-78812095D01*
X110791666Y-132501380D02*
X110791666Y-133215666D01*
X110744047Y-133358523D01*
X110648809Y-133453761D01*
X110505952Y-133501380D01*
X110410714Y-133501380D01*
X111220238Y-132596619D02*
X111267857Y-132549000D01*
X111363095Y-132501380D01*
X111601190Y-132501380D01*
X111696428Y-132549000D01*
X111744047Y-132596619D01*
X111791666Y-132691857D01*
X111791666Y-132787095D01*
X111744047Y-132929952D01*
X111172619Y-133501380D01*
X111791666Y-133501380D01*
X138303095Y-108037380D02*
X138303095Y-108846904D01*
X138350714Y-108942142D01*
X138398333Y-108989761D01*
X138493571Y-109037380D01*
X138684047Y-109037380D01*
X138779285Y-108989761D01*
X138826904Y-108942142D01*
X138874523Y-108846904D01*
X138874523Y-108037380D01*
X139874523Y-109037380D02*
X139303095Y-109037380D01*
X139588809Y-109037380D02*
X139588809Y-108037380D01*
X139493571Y-108180238D01*
X139398333Y-108275476D01*
X139303095Y-108323095D01*
X127000095Y-79462380D02*
X127000095Y-80271904D01*
X127047714Y-80367142D01*
X127095333Y-80414761D01*
X127190571Y-80462380D01*
X127381047Y-80462380D01*
X127476285Y-80414761D01*
X127523904Y-80367142D01*
X127571523Y-80271904D01*
X127571523Y-79462380D01*
X128000095Y-79557619D02*
X128047714Y-79510000D01*
X128142952Y-79462380D01*
X128381047Y-79462380D01*
X128476285Y-79510000D01*
X128523904Y-79557619D01*
X128571523Y-79652857D01*
X128571523Y-79748095D01*
X128523904Y-79890952D01*
X127952476Y-80462380D01*
X128571523Y-80462380D01*
X157694380Y-113791904D02*
X158503904Y-113791904D01*
X158599142Y-113744285D01*
X158646761Y-113696666D01*
X158694380Y-113601428D01*
X158694380Y-113410952D01*
X158646761Y-113315714D01*
X158599142Y-113268095D01*
X158503904Y-113220476D01*
X157694380Y-113220476D01*
X157694380Y-112839523D02*
X157694380Y-112220476D01*
X158075333Y-112553809D01*
X158075333Y-112410952D01*
X158122952Y-112315714D01*
X158170571Y-112268095D01*
X158265809Y-112220476D01*
X158503904Y-112220476D01*
X158599142Y-112268095D01*
X158646761Y-112315714D01*
X158694380Y-112410952D01*
X158694380Y-112696666D01*
X158646761Y-112791904D01*
X158599142Y-112839523D01*
X163282380Y-113664904D02*
X164091904Y-113664904D01*
X164187142Y-113617285D01*
X164234761Y-113569666D01*
X164282380Y-113474428D01*
X164282380Y-113283952D01*
X164234761Y-113188714D01*
X164187142Y-113141095D01*
X164091904Y-113093476D01*
X163282380Y-113093476D01*
X163615714Y-112188714D02*
X164282380Y-112188714D01*
X163234761Y-112426809D02*
X163949047Y-112664904D01*
X163949047Y-112045857D01*
X129754380Y-103377904D02*
X130563904Y-103377904D01*
X130659142Y-103330285D01*
X130706761Y-103282666D01*
X130754380Y-103187428D01*
X130754380Y-102996952D01*
X130706761Y-102901714D01*
X130659142Y-102854095D01*
X130563904Y-102806476D01*
X129754380Y-102806476D01*
X129754380Y-101854095D02*
X129754380Y-102330285D01*
X130230571Y-102377904D01*
X130182952Y-102330285D01*
X130135333Y-102235047D01*
X130135333Y-101996952D01*
X130182952Y-101901714D01*
X130230571Y-101854095D01*
X130325809Y-101806476D01*
X130563904Y-101806476D01*
X130659142Y-101854095D01*
X130706761Y-101901714D01*
X130754380Y-101996952D01*
X130754380Y-102235047D01*
X130706761Y-102330285D01*
X130659142Y-102377904D01*
X121285095Y-104608380D02*
X121285095Y-105417904D01*
X121332714Y-105513142D01*
X121380333Y-105560761D01*
X121475571Y-105608380D01*
X121666047Y-105608380D01*
X121761285Y-105560761D01*
X121808904Y-105513142D01*
X121856523Y-105417904D01*
X121856523Y-104608380D01*
X122761285Y-104608380D02*
X122570809Y-104608380D01*
X122475571Y-104656000D01*
X122427952Y-104703619D01*
X122332714Y-104846476D01*
X122285095Y-105036952D01*
X122285095Y-105417904D01*
X122332714Y-105513142D01*
X122380333Y-105560761D01*
X122475571Y-105608380D01*
X122666047Y-105608380D01*
X122761285Y-105560761D01*
X122808904Y-105513142D01*
X122856523Y-105417904D01*
X122856523Y-105179809D01*
X122808904Y-105084571D01*
X122761285Y-105036952D01*
X122666047Y-104989333D01*
X122475571Y-104989333D01*
X122380333Y-105036952D01*
X122332714Y-105084571D01*
X122285095Y-105179809D01*
X120610380Y-103377904D02*
X121419904Y-103377904D01*
X121515142Y-103330285D01*
X121562761Y-103282666D01*
X121610380Y-103187428D01*
X121610380Y-102996952D01*
X121562761Y-102901714D01*
X121515142Y-102854095D01*
X121419904Y-102806476D01*
X120610380Y-102806476D01*
X120610380Y-102425523D02*
X120610380Y-101758857D01*
X121610380Y-102187428D01*
X115657380Y-105409904D02*
X116466904Y-105409904D01*
X116562142Y-105362285D01*
X116609761Y-105314666D01*
X116657380Y-105219428D01*
X116657380Y-105028952D01*
X116609761Y-104933714D01*
X116562142Y-104886095D01*
X116466904Y-104838476D01*
X115657380Y-104838476D01*
X116657380Y-104314666D02*
X116657380Y-104124190D01*
X116609761Y-104028952D01*
X116562142Y-103981333D01*
X116419285Y-103886095D01*
X116228809Y-103838476D01*
X115847857Y-103838476D01*
X115752619Y-103886095D01*
X115705000Y-103933714D01*
X115657380Y-104028952D01*
X115657380Y-104219428D01*
X115705000Y-104314666D01*
X115752619Y-104362285D01*
X115847857Y-104409904D01*
X116085952Y-104409904D01*
X116181190Y-104362285D01*
X116228809Y-104314666D01*
X116276428Y-104219428D01*
X116276428Y-104028952D01*
X116228809Y-103933714D01*
X116181190Y-103886095D01*
X116085952Y-103838476D01*
X110450380Y-107791095D02*
X111259904Y-107791095D01*
X111355142Y-107743476D01*
X111402761Y-107695857D01*
X111450380Y-107600619D01*
X111450380Y-107410142D01*
X111402761Y-107314904D01*
X111355142Y-107267285D01*
X111259904Y-107219666D01*
X110450380Y-107219666D01*
X111450380Y-106219666D02*
X111450380Y-106791095D01*
X111450380Y-106505380D02*
X110450380Y-106505380D01*
X110593238Y-106600619D01*
X110688476Y-106695857D01*
X110736095Y-106791095D01*
X111450380Y-105267285D02*
X111450380Y-105838714D01*
X111450380Y-105553000D02*
X110450380Y-105553000D01*
X110593238Y-105648238D01*
X110688476Y-105743476D01*
X110736095Y-105838714D01*
X126015904Y-139533380D02*
X126015904Y-140342904D01*
X126063523Y-140438142D01*
X126111142Y-140485761D01*
X126206380Y-140533380D01*
X126396857Y-140533380D01*
X126492095Y-140485761D01*
X126539714Y-140438142D01*
X126587333Y-140342904D01*
X126587333Y-139533380D01*
X127587333Y-140533380D02*
X127015904Y-140533380D01*
X127301619Y-140533380D02*
X127301619Y-139533380D01*
X127206380Y-139676238D01*
X127111142Y-139771476D01*
X127015904Y-139819095D01*
X127968285Y-139628619D02*
X128015904Y-139581000D01*
X128111142Y-139533380D01*
X128349238Y-139533380D01*
X128444476Y-139581000D01*
X128492095Y-139628619D01*
X128539714Y-139723857D01*
X128539714Y-139819095D01*
X128492095Y-139961952D01*
X127920666Y-140533380D01*
X128539714Y-140533380D01*
X106838904Y-106894380D02*
X106838904Y-107703904D01*
X106886523Y-107799142D01*
X106934142Y-107846761D01*
X107029380Y-107894380D01*
X107219857Y-107894380D01*
X107315095Y-107846761D01*
X107362714Y-107799142D01*
X107410333Y-107703904D01*
X107410333Y-106894380D01*
X108410333Y-107894380D02*
X107838904Y-107894380D01*
X108124619Y-107894380D02*
X108124619Y-106894380D01*
X108029380Y-107037238D01*
X107934142Y-107132476D01*
X107838904Y-107180095D01*
X108743666Y-106894380D02*
X109362714Y-106894380D01*
X109029380Y-107275333D01*
X109172238Y-107275333D01*
X109267476Y-107322952D01*
X109315095Y-107370571D01*
X109362714Y-107465809D01*
X109362714Y-107703904D01*
X109315095Y-107799142D01*
X109267476Y-107846761D01*
X109172238Y-107894380D01*
X108886523Y-107894380D01*
X108791285Y-107846761D01*
X108743666Y-107799142D01*
X158527904Y-81494380D02*
X158527904Y-82303904D01*
X158575523Y-82399142D01*
X158623142Y-82446761D01*
X158718380Y-82494380D01*
X158908857Y-82494380D01*
X159004095Y-82446761D01*
X159051714Y-82399142D01*
X159099333Y-82303904D01*
X159099333Y-81494380D01*
X160099333Y-82494380D02*
X159527904Y-82494380D01*
X159813619Y-82494380D02*
X159813619Y-81494380D01*
X159718380Y-81637238D01*
X159623142Y-81732476D01*
X159527904Y-81780095D01*
X160956476Y-81827714D02*
X160956476Y-82494380D01*
X160718380Y-81446761D02*
X160480285Y-82161047D01*
X161099333Y-82161047D01*
X134778904Y-119340380D02*
X134778904Y-120149904D01*
X134826523Y-120245142D01*
X134874142Y-120292761D01*
X134969380Y-120340380D01*
X135159857Y-120340380D01*
X135255095Y-120292761D01*
X135302714Y-120245142D01*
X135350333Y-120149904D01*
X135350333Y-119340380D01*
X136350333Y-120340380D02*
X135778904Y-120340380D01*
X136064619Y-120340380D02*
X136064619Y-119340380D01*
X135969380Y-119483238D01*
X135874142Y-119578476D01*
X135778904Y-119626095D01*
X137255095Y-119340380D02*
X136778904Y-119340380D01*
X136731285Y-119816571D01*
X136778904Y-119768952D01*
X136874142Y-119721333D01*
X137112238Y-119721333D01*
X137207476Y-119768952D01*
X137255095Y-119816571D01*
X137302714Y-119911809D01*
X137302714Y-120149904D01*
X137255095Y-120245142D01*
X137207476Y-120292761D01*
X137112238Y-120340380D01*
X136874142Y-120340380D01*
X136778904Y-120292761D01*
X136731285Y-120245142D01*
X119030904Y-107148380D02*
X119030904Y-107957904D01*
X119078523Y-108053142D01*
X119126142Y-108100761D01*
X119221380Y-108148380D01*
X119411857Y-108148380D01*
X119507095Y-108100761D01*
X119554714Y-108053142D01*
X119602333Y-107957904D01*
X119602333Y-107148380D01*
X120602333Y-108148380D02*
X120030904Y-108148380D01*
X120316619Y-108148380D02*
X120316619Y-107148380D01*
X120221380Y-107291238D01*
X120126142Y-107386476D01*
X120030904Y-107434095D01*
X121459476Y-107148380D02*
X121269000Y-107148380D01*
X121173761Y-107196000D01*
X121126142Y-107243619D01*
X121030904Y-107386476D01*
X120983285Y-107576952D01*
X120983285Y-107957904D01*
X121030904Y-108053142D01*
X121078523Y-108100761D01*
X121173761Y-108148380D01*
X121364238Y-108148380D01*
X121459476Y-108100761D01*
X121507095Y-108053142D01*
X121554714Y-107957904D01*
X121554714Y-107719809D01*
X121507095Y-107624571D01*
X121459476Y-107576952D01*
X121364238Y-107529333D01*
X121173761Y-107529333D01*
X121078523Y-107576952D01*
X121030904Y-107624571D01*
X120983285Y-107719809D01*
X132873904Y-114641380D02*
X132873904Y-115450904D01*
X132921523Y-115546142D01*
X132969142Y-115593761D01*
X133064380Y-115641380D01*
X133254857Y-115641380D01*
X133350095Y-115593761D01*
X133397714Y-115546142D01*
X133445333Y-115450904D01*
X133445333Y-114641380D01*
X134445333Y-115641380D02*
X133873904Y-115641380D01*
X134159619Y-115641380D02*
X134159619Y-114641380D01*
X134064380Y-114784238D01*
X133969142Y-114879476D01*
X133873904Y-114927095D01*
X134778666Y-114641380D02*
X135445333Y-114641380D01*
X135016761Y-115641380D01*
X130841904Y-109180380D02*
X130841904Y-109989904D01*
X130889523Y-110085142D01*
X130937142Y-110132761D01*
X131032380Y-110180380D01*
X131222857Y-110180380D01*
X131318095Y-110132761D01*
X131365714Y-110085142D01*
X131413333Y-109989904D01*
X131413333Y-109180380D01*
X132413333Y-110180380D02*
X131841904Y-110180380D01*
X132127619Y-110180380D02*
X132127619Y-109180380D01*
X132032380Y-109323238D01*
X131937142Y-109418476D01*
X131841904Y-109466095D01*
X132984761Y-109608952D02*
X132889523Y-109561333D01*
X132841904Y-109513714D01*
X132794285Y-109418476D01*
X132794285Y-109370857D01*
X132841904Y-109275619D01*
X132889523Y-109228000D01*
X132984761Y-109180380D01*
X133175238Y-109180380D01*
X133270476Y-109228000D01*
X133318095Y-109275619D01*
X133365714Y-109370857D01*
X133365714Y-109418476D01*
X133318095Y-109513714D01*
X133270476Y-109561333D01*
X133175238Y-109608952D01*
X132984761Y-109608952D01*
X132889523Y-109656571D01*
X132841904Y-109704190D01*
X132794285Y-109799428D01*
X132794285Y-109989904D01*
X132841904Y-110085142D01*
X132889523Y-110132761D01*
X132984761Y-110180380D01*
X133175238Y-110180380D01*
X133270476Y-110132761D01*
X133318095Y-110085142D01*
X133365714Y-109989904D01*
X133365714Y-109799428D01*
X133318095Y-109704190D01*
X133270476Y-109656571D01*
X133175238Y-109608952D01*
M02*
