G04 #@! TF.GenerationSoftware,KiCad,Pcbnew,5.0.0*
G04 #@! TF.CreationDate,2018-07-30T22:47:14-05:00*
G04 #@! TF.ProjectId,Header_Board,4865616465725F426F6172642E6B6963,rev?*
G04 #@! TF.SameCoordinates,Original*
G04 #@! TF.FileFunction,Copper,L4,Bot,Signal*
G04 #@! TF.FilePolarity,Positive*
%FSLAX46Y46*%
G04 Gerber Fmt 4.6, Leading zero omitted, Abs format (unit mm)*
G04 Created by KiCad (PCBNEW 5.0.0) date Mon Jul 30 22:47:14 2018*
%MOMM*%
%LPD*%
G01*
G04 APERTURE LIST*
G04 #@! TA.AperFunction,ComponentPad*
%ADD10C,1.500000*%
G04 #@! TD*
G04 #@! TA.AperFunction,SMDPad,CuDef*
%ADD11R,1.350000X0.660000*%
G04 #@! TD*
G04 #@! TA.AperFunction,ComponentPad*
%ADD12R,1.700000X1.700000*%
G04 #@! TD*
G04 #@! TA.AperFunction,ComponentPad*
%ADD13O,1.700000X1.700000*%
G04 #@! TD*
G04 #@! TA.AperFunction,ComponentPad*
%ADD14C,6.350000*%
G04 #@! TD*
G04 #@! TA.AperFunction,ViaPad*
%ADD15C,0.600000*%
G04 #@! TD*
G04 #@! TA.AperFunction,Conductor*
%ADD16C,0.250000*%
G04 #@! TD*
G04 #@! TA.AperFunction,Conductor*
%ADD17C,0.254000*%
G04 #@! TD*
G04 APERTURE END LIST*
D10*
G04 #@! TO.P,P3,*
G04 #@! TO.N,*
X87782400Y-128983200D03*
X87782400Y-84783200D03*
D11*
G04 #@! TO.P,P3,60*
G04 #@! TO.N,GND*
X85877400Y-125298200D03*
G04 #@! TO.P,P3,59*
X89687400Y-125298200D03*
G04 #@! TO.P,P3,58*
G04 #@! TO.N,Net-(P3-Pad58)*
X85877400Y-124028200D03*
G04 #@! TO.P,P3,57*
G04 #@! TO.N,Net-(P3-Pad57)*
X89687400Y-124028200D03*
G04 #@! TO.P,P3,56*
G04 #@! TO.N,GND*
X85877400Y-122758200D03*
G04 #@! TO.P,P3,55*
X89687400Y-122758200D03*
G04 #@! TO.P,P3,54*
G04 #@! TO.N,Net-(P3-Pad54)*
X85877400Y-121488200D03*
G04 #@! TO.P,P3,53*
G04 #@! TO.N,Net-(P3-Pad53)*
X89687400Y-121488200D03*
G04 #@! TO.P,P3,52*
G04 #@! TO.N,GND*
X85877400Y-120218200D03*
G04 #@! TO.P,P3,51*
X89687400Y-120218200D03*
G04 #@! TO.P,P3,50*
G04 #@! TO.N,Net-(P3-Pad50)*
X85877400Y-118948200D03*
G04 #@! TO.P,P3,49*
G04 #@! TO.N,Net-(P3-Pad49)*
X89687400Y-118948200D03*
G04 #@! TO.P,P3,48*
G04 #@! TO.N,GND*
X85877400Y-117678200D03*
G04 #@! TO.P,P3,47*
X89687400Y-117678200D03*
G04 #@! TO.P,P3,46*
G04 #@! TO.N,Net-(P3-Pad46)*
X85877400Y-116408200D03*
G04 #@! TO.P,P3,45*
G04 #@! TO.N,Net-(P3-Pad45)*
X89687400Y-116408200D03*
G04 #@! TO.P,P3,44*
G04 #@! TO.N,GND*
X85877400Y-115138200D03*
G04 #@! TO.P,P3,43*
X89687400Y-115138200D03*
G04 #@! TO.P,P3,42*
G04 #@! TO.N,Net-(P3-Pad42)*
X85877400Y-113868200D03*
G04 #@! TO.P,P3,41*
G04 #@! TO.N,Net-(P3-Pad41)*
X89687400Y-113868200D03*
G04 #@! TO.P,P3,40*
G04 #@! TO.N,GND*
X85877400Y-112598200D03*
G04 #@! TO.P,P3,39*
X89687400Y-112598200D03*
G04 #@! TO.P,P3,38*
G04 #@! TO.N,+5V*
X85877400Y-111328200D03*
G04 #@! TO.P,P3,37*
X89687400Y-111328200D03*
G04 #@! TO.P,P3,36*
G04 #@! TO.N,GND*
X85877400Y-110058200D03*
G04 #@! TO.P,P3,35*
X89687400Y-110058200D03*
G04 #@! TO.P,P3,34*
G04 #@! TO.N,+5V*
X85877400Y-108788200D03*
G04 #@! TO.P,P3,33*
X89687400Y-108788200D03*
G04 #@! TO.P,P3,32*
G04 #@! TO.N,GND*
X85877400Y-107518200D03*
G04 #@! TO.P,P3,31*
X89687400Y-107518200D03*
G04 #@! TO.P,P3,30*
G04 #@! TO.N,Net-(P3-Pad30)*
X85877400Y-106248200D03*
G04 #@! TO.P,P3,29*
G04 #@! TO.N,/SYS_SDA*
X89687400Y-106248200D03*
G04 #@! TO.P,P3,28*
G04 #@! TO.N,GND*
X85877400Y-104978200D03*
G04 #@! TO.P,P3,27*
X89687400Y-104978200D03*
G04 #@! TO.P,P3,26*
G04 #@! TO.N,Net-(P3-Pad26)*
X85877400Y-103708200D03*
G04 #@! TO.P,P3,25*
G04 #@! TO.N,/SYS_SCL*
X89687400Y-103708200D03*
G04 #@! TO.P,P3,24*
G04 #@! TO.N,GND*
X85877400Y-102438200D03*
G04 #@! TO.P,P3,23*
X89687400Y-102438200D03*
G04 #@! TO.P,P3,22*
G04 #@! TO.N,Net-(P3-Pad22)*
X85877400Y-101168200D03*
G04 #@! TO.P,P3,21*
G04 #@! TO.N,Net-(P3-Pad21)*
X89687400Y-101168200D03*
G04 #@! TO.P,P3,20*
G04 #@! TO.N,GND*
X85877400Y-99898200D03*
G04 #@! TO.P,P3,19*
X89687400Y-99898200D03*
G04 #@! TO.P,P3,18*
G04 #@! TO.N,Net-(P3-Pad18)*
X85877400Y-98628200D03*
G04 #@! TO.P,P3,17*
G04 #@! TO.N,Net-(P3-Pad17)*
X89687400Y-98628200D03*
G04 #@! TO.P,P3,16*
G04 #@! TO.N,GND*
X85877400Y-97358200D03*
G04 #@! TO.P,P3,15*
X89687400Y-97358200D03*
G04 #@! TO.P,P3,14*
G04 #@! TO.N,Net-(P3-Pad14)*
X85877400Y-96088200D03*
G04 #@! TO.P,P3,13*
G04 #@! TO.N,Net-(P3-Pad13)*
X89687400Y-96088200D03*
G04 #@! TO.P,P3,12*
G04 #@! TO.N,GND*
X85877400Y-94818200D03*
G04 #@! TO.P,P3,11*
X89687400Y-94818200D03*
G04 #@! TO.P,P3,10*
G04 #@! TO.N,Net-(P3-Pad10)*
X85877400Y-93548200D03*
G04 #@! TO.P,P3,9*
G04 #@! TO.N,Net-(P3-Pad9)*
X89687400Y-93548200D03*
G04 #@! TO.P,P3,8*
G04 #@! TO.N,GND*
X85877400Y-92278200D03*
G04 #@! TO.P,P3,7*
X89687400Y-92278200D03*
G04 #@! TO.P,P3,6*
G04 #@! TO.N,Net-(P3-Pad6)*
X85877400Y-91008200D03*
G04 #@! TO.P,P3,5*
G04 #@! TO.N,Net-(P3-Pad5)*
X89687400Y-91008200D03*
G04 #@! TO.P,P3,4*
G04 #@! TO.N,GND*
X85877400Y-89738200D03*
G04 #@! TO.P,P3,3*
X89687400Y-89738200D03*
G04 #@! TO.P,P3,2*
X85877400Y-88468200D03*
G04 #@! TO.P,P3,1*
X89687400Y-88468200D03*
G04 #@! TD*
D12*
G04 #@! TO.P,P1,1*
G04 #@! TO.N,/SGPIO0*
X95257081Y-66040935D03*
D13*
G04 #@! TO.P,P1,2*
G04 #@! TO.N,/SGPIO1*
X95257081Y-63500935D03*
G04 #@! TO.P,P1,3*
G04 #@! TO.N,/SGPIO2*
X97797081Y-66040935D03*
G04 #@! TO.P,P1,4*
G04 #@! TO.N,/SGPIO3*
X97797081Y-63500935D03*
G04 #@! TO.P,P1,5*
G04 #@! TO.N,/I2C3_SDA*
X100337081Y-66040935D03*
G04 #@! TO.P,P1,6*
G04 #@! TO.N,/I2C3_SCL*
X100337081Y-63500935D03*
G04 #@! TO.P,P1,7*
G04 #@! TO.N,/SGPIO4*
X102877081Y-66040935D03*
G04 #@! TO.P,P1,8*
G04 #@! TO.N,Net-(P1-Pad8)*
X102877081Y-63500935D03*
G04 #@! TO.P,P1,9*
G04 #@! TO.N,GND*
X105417081Y-66040935D03*
G04 #@! TO.P,P1,10*
G04 #@! TO.N,Net-(P1-Pad10)*
X105417081Y-63500935D03*
G04 #@! TO.P,P1,11*
G04 #@! TO.N,Net-(P1-Pad11)*
X107957081Y-66040935D03*
G04 #@! TO.P,P1,12*
G04 #@! TO.N,Net-(P1-Pad12)*
X107957081Y-63500935D03*
G04 #@! TO.P,P1,13*
G04 #@! TO.N,Net-(P1-Pad13)*
X110497081Y-66040935D03*
G04 #@! TO.P,P1,14*
G04 #@! TO.N,GND*
X110497081Y-63500935D03*
G04 #@! TO.P,P1,15*
G04 #@! TO.N,Net-(P1-Pad15)*
X113037081Y-66040935D03*
G04 #@! TO.P,P1,16*
G04 #@! TO.N,Net-(P1-Pad16)*
X113037081Y-63500935D03*
G04 #@! TO.P,P1,17*
G04 #@! TO.N,GND*
X115577081Y-66040935D03*
G04 #@! TO.P,P1,18*
G04 #@! TO.N,Net-(P1-Pad18)*
X115577081Y-63500935D03*
G04 #@! TO.P,P1,19*
G04 #@! TO.N,Net-(P1-Pad19)*
X118117081Y-66040935D03*
G04 #@! TO.P,P1,20*
G04 #@! TO.N,Net-(P1-Pad20)*
X118117081Y-63500935D03*
G04 #@! TO.P,P1,21*
G04 #@! TO.N,GND*
X120657081Y-66040935D03*
G04 #@! TO.P,P1,22*
X120657081Y-63500935D03*
G04 #@! TO.P,P1,23*
G04 #@! TO.N,Net-(P1-Pad23)*
X123197081Y-66040935D03*
G04 #@! TO.P,P1,24*
G04 #@! TO.N,Net-(P1-Pad24)*
X123197081Y-63500935D03*
G04 #@! TO.P,P1,25*
G04 #@! TO.N,+5V*
X125737081Y-66040935D03*
G04 #@! TO.P,P1,26*
X125737081Y-63500935D03*
G04 #@! TO.P,P1,27*
G04 #@! TO.N,Net-(P1-Pad27)*
X128277081Y-66040935D03*
G04 #@! TO.P,P1,28*
G04 #@! TO.N,Net-(P1-Pad28)*
X128277081Y-63500935D03*
G04 #@! TO.P,P1,29*
G04 #@! TO.N,GND*
X130817081Y-66040935D03*
G04 #@! TO.P,P1,30*
X130817081Y-63500935D03*
G04 #@! TO.P,P1,31*
G04 #@! TO.N,Net-(P1-Pad31)*
X133357081Y-66040935D03*
G04 #@! TO.P,P1,32*
G04 #@! TO.N,GND*
X133357081Y-63500935D03*
G04 #@! TO.P,P1,33*
G04 #@! TO.N,Net-(P1-Pad33)*
X135897081Y-66040935D03*
G04 #@! TO.P,P1,34*
G04 #@! TO.N,Net-(P1-Pad34)*
X135897081Y-63500935D03*
G04 #@! TO.P,P1,35*
G04 #@! TO.N,Net-(P1-Pad35)*
X138437081Y-66040935D03*
G04 #@! TO.P,P1,36*
G04 #@! TO.N,Net-(P1-Pad36)*
X138437081Y-63500935D03*
G04 #@! TO.P,P1,37*
G04 #@! TO.N,Net-(P1-Pad37)*
X140977081Y-66040935D03*
G04 #@! TO.P,P1,38*
G04 #@! TO.N,Net-(P1-Pad38)*
X140977081Y-63500935D03*
G04 #@! TO.P,P1,39*
G04 #@! TO.N,Net-(P1-Pad39)*
X143517081Y-66040935D03*
G04 #@! TO.P,P1,40*
G04 #@! TO.N,Net-(P1-Pad40)*
X143517081Y-63500935D03*
G04 #@! TO.P,P1,41*
G04 #@! TO.N,Net-(P1-Pad41)*
X146057081Y-66040935D03*
G04 #@! TO.P,P1,42*
G04 #@! TO.N,Net-(P1-Pad42)*
X146057081Y-63500935D03*
G04 #@! TO.P,P1,43*
G04 #@! TO.N,Net-(P1-Pad43)*
X148597081Y-66040935D03*
G04 #@! TO.P,P1,44*
G04 #@! TO.N,Net-(P1-Pad44)*
X148597081Y-63500935D03*
G04 #@! TO.P,P1,45*
G04 #@! TO.N,Net-(P1-Pad45)*
X151137081Y-66040935D03*
G04 #@! TO.P,P1,46*
G04 #@! TO.N,Net-(P1-Pad46)*
X151137081Y-63500935D03*
G04 #@! TO.P,P1,47*
G04 #@! TO.N,GND*
X153677081Y-66040935D03*
G04 #@! TO.P,P1,48*
X153677081Y-63500935D03*
G04 #@! TO.P,P1,49*
G04 #@! TO.N,/SPI2_NSS*
X156217081Y-66040935D03*
G04 #@! TO.P,P1,50*
G04 #@! TO.N,/SPI2_SCK*
X156217081Y-63500935D03*
G04 #@! TO.P,P1,51*
G04 #@! TO.N,/SPI2_MISO*
X158757081Y-66040935D03*
G04 #@! TO.P,P1,52*
G04 #@! TO.N,/SPI2_MOSI*
X158757081Y-63500935D03*
G04 #@! TD*
D12*
G04 #@! TO.P,P2,1*
G04 #@! TO.N,/GPIO0*
X95257081Y-71120935D03*
D13*
G04 #@! TO.P,P2,2*
G04 #@! TO.N,/GPIO1*
X95257081Y-68580935D03*
G04 #@! TO.P,P2,3*
G04 #@! TO.N,/GPIO2*
X97797081Y-71120935D03*
G04 #@! TO.P,P2,4*
G04 #@! TO.N,/GPIO3*
X97797081Y-68580935D03*
G04 #@! TO.P,P2,5*
G04 #@! TO.N,/RADIO_TR*
X100337081Y-71120935D03*
G04 #@! TO.P,P2,6*
G04 #@! TO.N,/RADIO_RR*
X100337081Y-68580935D03*
G04 #@! TO.P,P2,7*
G04 #@! TO.N,/GPIO4*
X102877081Y-71120935D03*
G04 #@! TO.P,P2,8*
G04 #@! TO.N,/GPIO5*
X102877081Y-68580935D03*
G04 #@! TO.P,P2,9*
G04 #@! TO.N,/GPIO6*
X105417081Y-71120935D03*
G04 #@! TO.P,P2,10*
G04 #@! TO.N,/GPIO7*
X105417081Y-68580935D03*
G04 #@! TO.P,P2,11*
G04 #@! TO.N,/GPIO8*
X107957081Y-71120935D03*
G04 #@! TO.P,P2,12*
G04 #@! TO.N,/GPIO9*
X107957081Y-68580935D03*
G04 #@! TO.P,P2,13*
G04 #@! TO.N,/GPIO10*
X110497081Y-71120935D03*
G04 #@! TO.P,P2,14*
G04 #@! TO.N,/GPIO11*
X110497081Y-68580935D03*
G04 #@! TO.P,P2,15*
G04 #@! TO.N,/GPIO12*
X113037081Y-71120935D03*
G04 #@! TO.P,P2,16*
G04 #@! TO.N,/GPIO13*
X113037081Y-68580935D03*
G04 #@! TO.P,P2,17*
G04 #@! TO.N,/RADIO_RX*
X115577081Y-71120935D03*
G04 #@! TO.P,P2,18*
G04 #@! TO.N,/RADIO_TX*
X115577081Y-68580935D03*
G04 #@! TO.P,P2,19*
G04 #@! TO.N,/12C2_SDA*
X118117081Y-71120935D03*
G04 #@! TO.P,P2,20*
G04 #@! TO.N,/I2C2_SCL*
X118117081Y-68580935D03*
G04 #@! TO.P,P2,21*
G04 #@! TO.N,/SYS_SPI_SCK*
X120657081Y-71120935D03*
G04 #@! TO.P,P2,22*
G04 #@! TO.N,/SYS_SPI_MISO*
X120657081Y-68580935D03*
G04 #@! TO.P,P2,23*
G04 #@! TO.N,/SYS_SPI_MOSI*
X123197081Y-71120935D03*
G04 #@! TO.P,P2,24*
G04 #@! TO.N,/SYS_SPI_NSS*
X123197081Y-68580935D03*
G04 #@! TO.P,P2,25*
G04 #@! TO.N,Net-(P2-Pad25)*
X125737081Y-71120935D03*
G04 #@! TO.P,P2,26*
G04 #@! TO.N,Net-(P2-Pad26)*
X125737081Y-68580935D03*
G04 #@! TO.P,P2,27*
G04 #@! TO.N,Net-(P2-Pad27)*
X128277081Y-71120935D03*
G04 #@! TO.P,P2,28*
G04 #@! TO.N,Net-(P2-Pad28)*
X128277081Y-68580935D03*
G04 #@! TO.P,P2,29*
G04 #@! TO.N,/SYS_RESET*
X130817081Y-71120935D03*
G04 #@! TO.P,P2,30*
G04 #@! TO.N,Net-(P2-Pad30)*
X130817081Y-68580935D03*
G04 #@! TO.P,P2,31*
G04 #@! TO.N,Net-(P2-Pad31)*
X133357081Y-71120935D03*
G04 #@! TO.P,P2,32*
G04 #@! TO.N,Net-(P2-Pad32)*
X133357081Y-68580935D03*
G04 #@! TO.P,P2,33*
G04 #@! TO.N,/SGPIO7*
X135897081Y-71120935D03*
G04 #@! TO.P,P2,34*
G04 #@! TO.N,/SGPIO8*
X135897081Y-68580935D03*
G04 #@! TO.P,P2,35*
G04 #@! TO.N,/SGPIO9*
X138437081Y-71120935D03*
G04 #@! TO.P,P2,36*
G04 #@! TO.N,/SGPIO10*
X138437081Y-68580935D03*
G04 #@! TO.P,P2,37*
G04 #@! TO.N,/SGPIO11*
X140977081Y-71120935D03*
G04 #@! TO.P,P2,38*
G04 #@! TO.N,/SGPIO12*
X140977081Y-68580935D03*
G04 #@! TO.P,P2,39*
G04 #@! TO.N,/SGPIO13*
X143517081Y-71120935D03*
G04 #@! TO.P,P2,40*
G04 #@! TO.N,/SGPIO14*
X143517081Y-68580935D03*
G04 #@! TO.P,P2,41*
G04 #@! TO.N,/SYS_SDA*
X146057081Y-71120935D03*
G04 #@! TO.P,P2,42*
G04 #@! TO.N,Net-(P2-Pad42)*
X146057081Y-68580935D03*
G04 #@! TO.P,P2,43*
G04 #@! TO.N,/SYS_SCL*
X148597081Y-71120935D03*
G04 #@! TO.P,P2,44*
G04 #@! TO.N,Net-(P2-Pad44)*
X148597081Y-68580935D03*
G04 #@! TO.P,P2,45*
G04 #@! TO.N,Net-(P2-Pad45)*
X151137081Y-71120935D03*
G04 #@! TO.P,P2,46*
G04 #@! TO.N,Net-(P2-Pad46)*
X151137081Y-68580935D03*
G04 #@! TO.P,P2,47*
G04 #@! TO.N,/NBUFEN_PRI*
X153677081Y-71120935D03*
G04 #@! TO.P,P2,48*
G04 #@! TO.N,/NBUFEN_SEC*
X153677081Y-68580935D03*
G04 #@! TO.P,P2,49*
G04 #@! TO.N,Net-(P2-Pad49)*
X156217081Y-71120935D03*
G04 #@! TO.P,P2,50*
G04 #@! TO.N,/SGPIO5*
X156217081Y-68580935D03*
G04 #@! TO.P,P2,51*
G04 #@! TO.N,Net-(P2-Pad51)*
X158757081Y-71120935D03*
G04 #@! TO.P,P2,52*
G04 #@! TO.N,/SGPIO6*
X158757081Y-68580935D03*
G04 #@! TD*
D14*
G04 #@! TO.P,REF\002A\002A,1*
G04 #@! TO.N,N/C*
X90170000Y-63500000D03*
G04 #@! TD*
G04 #@! TO.P,REF\002A\002A,1*
G04 #@! TO.N,N/C*
X163830000Y-63500000D03*
G04 #@! TD*
G04 #@! TO.P,REF\002A\002A,1*
G04 #@! TO.N,N/C*
X86360000Y-149225000D03*
G04 #@! TD*
G04 #@! TO.P,REF\002A\002A,1*
G04 #@! TO.N,N/C*
X166370000Y-149225000D03*
G04 #@! TD*
D10*
G04 #@! TO.P,P3,*
G04 #@! TO.N,*
X87757000Y-128957800D03*
X87757000Y-84757800D03*
G04 #@! TD*
D15*
G04 #@! TO.N,/SYS_SDA*
X91033600Y-107492800D03*
G04 #@! TO.N,/SYS_SCL*
X88366600Y-103708200D03*
X92608400Y-103759000D03*
X91211400Y-110058200D03*
G04 #@! TO.N,GND*
X88315800Y-118922800D03*
X88341200Y-121462800D03*
X88265000Y-98602800D03*
X88163400Y-93522800D03*
X90322400Y-88442800D03*
X88265000Y-96088200D03*
X88290400Y-125272800D03*
X88290400Y-124002800D03*
G04 #@! TO.N,+5V*
X88442800Y-111302800D03*
X87147400Y-111302800D03*
X87122000Y-108788200D03*
X88392000Y-108788200D03*
X87147400Y-104952800D03*
X87147400Y-102412800D03*
X88290400Y-102412800D03*
X88417400Y-104952800D03*
X123418600Y-138658600D03*
X135458200Y-107086400D03*
X151638000Y-78460600D03*
G04 #@! TD*
D16*
G04 #@! TO.N,/SYS_SDA*
X91033600Y-107492800D02*
X91033600Y-107068536D01*
X91033600Y-107068536D02*
X91074401Y-107027735D01*
X90998201Y-106248200D02*
X89687400Y-106248200D01*
X91074401Y-106324400D02*
X90998201Y-106248200D01*
X91074401Y-107027735D02*
X91074401Y-106324400D01*
G04 #@! TO.N,/SYS_SCL*
X91795600Y-109372400D02*
X91109800Y-110058200D01*
X89687400Y-103708200D02*
X88366600Y-103708200D01*
X92608400Y-103759000D02*
X91795600Y-103759000D01*
X91795600Y-103759000D02*
X91795600Y-109372400D01*
G04 #@! TO.N,GND*
X119482080Y-62325934D02*
X117062934Y-62325934D01*
X120657081Y-63500935D02*
X119482080Y-62325934D01*
X133357081Y-63500935D02*
X134831216Y-62026800D01*
X134831216Y-62026800D02*
X137337800Y-62026800D01*
X116942080Y-62205080D02*
X116941600Y-62204600D01*
X116942080Y-64675936D02*
X116942080Y-62205080D01*
X115577081Y-66040935D02*
X116942080Y-64675936D01*
X117062934Y-62325934D02*
X116941600Y-62204600D01*
X116941600Y-62204600D02*
X116052600Y-61315600D01*
X106592082Y-64865934D02*
X106592082Y-61454318D01*
X105417081Y-66040935D02*
X106592082Y-64865934D01*
X121507080Y-64350934D02*
X120657081Y-63500935D01*
X121832082Y-64675936D02*
X121507080Y-64350934D01*
X129642080Y-64675936D02*
X121832082Y-64675936D01*
X130817081Y-63500935D02*
X129642080Y-64675936D01*
G04 #@! TO.N,+5V*
X89323809Y-108788200D02*
X89137409Y-108788200D01*
X89687400Y-108788200D02*
X89323809Y-108788200D01*
X88392000Y-108788200D02*
X89687400Y-108788200D01*
X87122000Y-108788200D02*
X85877400Y-108788200D01*
X85902800Y-111302800D02*
X85877400Y-111328200D01*
X87147400Y-111302800D02*
X85902800Y-111302800D01*
X89662000Y-111302800D02*
X89687400Y-111328200D01*
X88442800Y-111302800D02*
X89662000Y-111302800D01*
G04 #@! TO.N,Net-(P2-Pad25)*
X125737081Y-71120935D02*
X126238935Y-71120935D01*
G04 #@! TD*
D17*
G04 #@! TO.N,GND*
G36*
X116638001Y-61271070D02*
X116624091Y-61341000D01*
X116679195Y-61618028D01*
X116836119Y-61852881D01*
X117070972Y-62009805D01*
X117278074Y-62051000D01*
X117278075Y-62051000D01*
X117348000Y-62064909D01*
X117417926Y-62051000D01*
X117794541Y-62051000D01*
X117537663Y-62102096D01*
X117046456Y-62430310D01*
X116847081Y-62728696D01*
X116647706Y-62430310D01*
X116156499Y-62102096D01*
X115723337Y-62015935D01*
X115430825Y-62015935D01*
X114997663Y-62102096D01*
X114506456Y-62430310D01*
X114307081Y-62728696D01*
X114107706Y-62430310D01*
X113616499Y-62102096D01*
X113183337Y-62015935D01*
X112890825Y-62015935D01*
X112457663Y-62102096D01*
X111966456Y-62430310D01*
X111753238Y-62749413D01*
X111692264Y-62619577D01*
X111264005Y-62229290D01*
X110853971Y-62059459D01*
X110624081Y-62180780D01*
X110624081Y-63373935D01*
X110644081Y-63373935D01*
X110644081Y-63627935D01*
X110624081Y-63627935D01*
X110624081Y-63647935D01*
X110370081Y-63647935D01*
X110370081Y-63627935D01*
X110350081Y-63627935D01*
X110350081Y-63373935D01*
X110370081Y-63373935D01*
X110370081Y-62180780D01*
X110140191Y-62059459D01*
X109730157Y-62229290D01*
X109301898Y-62619577D01*
X109240924Y-62749413D01*
X109027706Y-62430310D01*
X108536499Y-62102096D01*
X108103337Y-62015935D01*
X107810825Y-62015935D01*
X107377663Y-62102096D01*
X106886456Y-62430310D01*
X106687081Y-62728696D01*
X106487706Y-62430310D01*
X105996499Y-62102096D01*
X105563337Y-62015935D01*
X105270825Y-62015935D01*
X104837663Y-62102096D01*
X104346456Y-62430310D01*
X104147081Y-62728696D01*
X103947706Y-62430310D01*
X103456499Y-62102096D01*
X103023337Y-62015935D01*
X102730825Y-62015935D01*
X102297663Y-62102096D01*
X101806456Y-62430310D01*
X101607081Y-62728696D01*
X101407706Y-62430310D01*
X100916499Y-62102096D01*
X100483337Y-62015935D01*
X100190825Y-62015935D01*
X99757663Y-62102096D01*
X99266456Y-62430310D01*
X99067081Y-62728696D01*
X98867706Y-62430310D01*
X98376499Y-62102096D01*
X97943337Y-62015935D01*
X97650825Y-62015935D01*
X97217663Y-62102096D01*
X96726456Y-62430310D01*
X96527081Y-62728696D01*
X96327706Y-62430310D01*
X95836499Y-62102096D01*
X95403337Y-62015935D01*
X95110825Y-62015935D01*
X94677663Y-62102096D01*
X94186456Y-62430310D01*
X93979271Y-62740384D01*
X93399962Y-61341809D01*
X92328191Y-60270038D01*
X90927856Y-59690000D01*
X89412144Y-59690000D01*
X88011809Y-60270038D01*
X86940038Y-61341809D01*
X86360000Y-62742144D01*
X86360000Y-64257856D01*
X86940038Y-65658191D01*
X88011809Y-66729962D01*
X89412144Y-67310000D01*
X90927856Y-67310000D01*
X92328191Y-66729962D01*
X93399962Y-65658191D01*
X93978793Y-64260770D01*
X94186456Y-64571560D01*
X94204700Y-64583751D01*
X94159316Y-64592778D01*
X93949272Y-64733126D01*
X93808924Y-64943170D01*
X93759641Y-65190935D01*
X93759641Y-66890935D01*
X93808924Y-67138700D01*
X93949272Y-67348744D01*
X94159316Y-67489092D01*
X94204700Y-67498119D01*
X94186456Y-67510310D01*
X93858242Y-68001517D01*
X93742989Y-68580935D01*
X93858242Y-69160353D01*
X94186456Y-69651560D01*
X94204700Y-69663751D01*
X94159316Y-69672778D01*
X93949272Y-69813126D01*
X93808924Y-70023170D01*
X93759641Y-70270935D01*
X93759641Y-71970935D01*
X93808924Y-72218700D01*
X93949272Y-72428744D01*
X94159316Y-72569092D01*
X94407081Y-72618375D01*
X96107081Y-72618375D01*
X96354846Y-72569092D01*
X96564890Y-72428744D01*
X96705238Y-72218700D01*
X96714265Y-72173316D01*
X96726456Y-72191560D01*
X97217663Y-72519774D01*
X97650825Y-72605935D01*
X97943337Y-72605935D01*
X98376499Y-72519774D01*
X98867706Y-72191560D01*
X99067081Y-71893174D01*
X99266456Y-72191560D01*
X99757663Y-72519774D01*
X100190825Y-72605935D01*
X100483337Y-72605935D01*
X100916499Y-72519774D01*
X101407706Y-72191560D01*
X101607081Y-71893174D01*
X101806456Y-72191560D01*
X102297663Y-72519774D01*
X102730825Y-72605935D01*
X103023337Y-72605935D01*
X103456499Y-72519774D01*
X103947706Y-72191560D01*
X104147081Y-71893174D01*
X104346456Y-72191560D01*
X104837663Y-72519774D01*
X105270825Y-72605935D01*
X105563337Y-72605935D01*
X105996499Y-72519774D01*
X106487706Y-72191560D01*
X106687081Y-71893174D01*
X106886456Y-72191560D01*
X107377663Y-72519774D01*
X107810825Y-72605935D01*
X108103337Y-72605935D01*
X108536499Y-72519774D01*
X109027706Y-72191560D01*
X109227081Y-71893174D01*
X109426456Y-72191560D01*
X109917663Y-72519774D01*
X110350825Y-72605935D01*
X110643337Y-72605935D01*
X111076499Y-72519774D01*
X111567706Y-72191560D01*
X111767081Y-71893174D01*
X111966456Y-72191560D01*
X112457663Y-72519774D01*
X112890825Y-72605935D01*
X113183337Y-72605935D01*
X113616499Y-72519774D01*
X114107706Y-72191560D01*
X114307081Y-71893174D01*
X114506456Y-72191560D01*
X114997663Y-72519774D01*
X115430825Y-72605935D01*
X115723337Y-72605935D01*
X116156499Y-72519774D01*
X116647706Y-72191560D01*
X116847081Y-71893174D01*
X117046456Y-72191560D01*
X117537663Y-72519774D01*
X117970825Y-72605935D01*
X118263337Y-72605935D01*
X118696499Y-72519774D01*
X119187706Y-72191560D01*
X119387081Y-71893174D01*
X119586456Y-72191560D01*
X120077663Y-72519774D01*
X120510825Y-72605935D01*
X120803337Y-72605935D01*
X121236499Y-72519774D01*
X121727706Y-72191560D01*
X121927081Y-71893174D01*
X122126456Y-72191560D01*
X122617663Y-72519774D01*
X123050825Y-72605935D01*
X123343337Y-72605935D01*
X123776499Y-72519774D01*
X124267706Y-72191560D01*
X124467081Y-71893174D01*
X124666456Y-72191560D01*
X125157663Y-72519774D01*
X125590825Y-72605935D01*
X125883337Y-72605935D01*
X126316499Y-72519774D01*
X126807706Y-72191560D01*
X127007081Y-71893174D01*
X127206456Y-72191560D01*
X127697663Y-72519774D01*
X128130825Y-72605935D01*
X128423337Y-72605935D01*
X128856499Y-72519774D01*
X129347706Y-72191560D01*
X129547081Y-71893174D01*
X129746456Y-72191560D01*
X130237663Y-72519774D01*
X130670825Y-72605935D01*
X130963337Y-72605935D01*
X131396499Y-72519774D01*
X131887706Y-72191560D01*
X132087081Y-71893174D01*
X132286456Y-72191560D01*
X132777663Y-72519774D01*
X133210825Y-72605935D01*
X133503337Y-72605935D01*
X133936499Y-72519774D01*
X134427706Y-72191560D01*
X134627081Y-71893174D01*
X134826456Y-72191560D01*
X135317663Y-72519774D01*
X135750825Y-72605935D01*
X136043337Y-72605935D01*
X136476499Y-72519774D01*
X136967706Y-72191560D01*
X137167081Y-71893174D01*
X137366456Y-72191560D01*
X137857663Y-72519774D01*
X138290825Y-72605935D01*
X138583337Y-72605935D01*
X139016499Y-72519774D01*
X139507706Y-72191560D01*
X139707081Y-71893174D01*
X139906456Y-72191560D01*
X140397663Y-72519774D01*
X140830825Y-72605935D01*
X141123337Y-72605935D01*
X141556499Y-72519774D01*
X142047706Y-72191560D01*
X142247081Y-71893174D01*
X142446456Y-72191560D01*
X142937663Y-72519774D01*
X143370825Y-72605935D01*
X143663337Y-72605935D01*
X144096499Y-72519774D01*
X144587706Y-72191560D01*
X144787081Y-71893174D01*
X144986456Y-72191560D01*
X145477663Y-72519774D01*
X145910825Y-72605935D01*
X146203337Y-72605935D01*
X146636499Y-72519774D01*
X147127706Y-72191560D01*
X147327081Y-71893174D01*
X147526456Y-72191560D01*
X148017663Y-72519774D01*
X148450825Y-72605935D01*
X148743337Y-72605935D01*
X149176499Y-72519774D01*
X149667706Y-72191560D01*
X149867081Y-71893174D01*
X150066456Y-72191560D01*
X150557663Y-72519774D01*
X150990825Y-72605935D01*
X151283337Y-72605935D01*
X151716499Y-72519774D01*
X152207706Y-72191560D01*
X152407081Y-71893174D01*
X152606456Y-72191560D01*
X153097663Y-72519774D01*
X153530825Y-72605935D01*
X153823337Y-72605935D01*
X154256499Y-72519774D01*
X154747706Y-72191560D01*
X154947081Y-71893174D01*
X155146456Y-72191560D01*
X155637663Y-72519774D01*
X156070825Y-72605935D01*
X156363337Y-72605935D01*
X156796499Y-72519774D01*
X157287706Y-72191560D01*
X157487081Y-71893174D01*
X157686456Y-72191560D01*
X158177663Y-72519774D01*
X158610825Y-72605935D01*
X158903337Y-72605935D01*
X159336499Y-72519774D01*
X159827706Y-72191560D01*
X160155920Y-71700353D01*
X160271173Y-71120935D01*
X160155920Y-70541517D01*
X159827706Y-70050310D01*
X159529320Y-69850935D01*
X159827706Y-69651560D01*
X160155920Y-69160353D01*
X160271173Y-68580935D01*
X160155920Y-68001517D01*
X159827706Y-67510310D01*
X159529320Y-67310935D01*
X159827706Y-67111560D01*
X160155920Y-66620353D01*
X160271173Y-66040935D01*
X160155920Y-65461517D01*
X159827706Y-64970310D01*
X159529320Y-64770935D01*
X159827706Y-64571560D01*
X160026627Y-64273854D01*
X160600038Y-65658191D01*
X161671809Y-66729962D01*
X163072144Y-67310000D01*
X164587856Y-67310000D01*
X165988191Y-66729962D01*
X166168000Y-66550153D01*
X166168001Y-81337069D01*
X166154091Y-81407000D01*
X166209195Y-81684028D01*
X166366119Y-81918881D01*
X166600972Y-82075805D01*
X166808074Y-82117000D01*
X166808075Y-82117000D01*
X166878000Y-82130909D01*
X166947926Y-82117000D01*
X170740000Y-82117000D01*
X170740001Y-153595000D01*
X138378000Y-153595000D01*
X138378000Y-151453926D01*
X138391909Y-151384000D01*
X138336805Y-151106972D01*
X138179881Y-150872119D01*
X137945028Y-150715195D01*
X137737926Y-150674000D01*
X137737925Y-150674000D01*
X137668000Y-150660091D01*
X137598074Y-150674000D01*
X117417926Y-150674000D01*
X117348000Y-150660091D01*
X117278075Y-150674000D01*
X117278074Y-150674000D01*
X117070972Y-150715195D01*
X116836119Y-150872119D01*
X116679195Y-151106972D01*
X116624091Y-151384000D01*
X116638001Y-151453930D01*
X116638000Y-153595000D01*
X81990000Y-153595000D01*
X81990000Y-148467144D01*
X82550000Y-148467144D01*
X82550000Y-149982856D01*
X83130038Y-151383191D01*
X84201809Y-152454962D01*
X85602144Y-153035000D01*
X87117856Y-153035000D01*
X88518191Y-152454962D01*
X89589962Y-151383191D01*
X90170000Y-149982856D01*
X90170000Y-148467144D01*
X162560000Y-148467144D01*
X162560000Y-149982856D01*
X163140038Y-151383191D01*
X164211809Y-152454962D01*
X165612144Y-153035000D01*
X167127856Y-153035000D01*
X168528191Y-152454962D01*
X169599962Y-151383191D01*
X170180000Y-149982856D01*
X170180000Y-148467144D01*
X169599962Y-147066809D01*
X168528191Y-145995038D01*
X167127856Y-145415000D01*
X165612144Y-145415000D01*
X164211809Y-145995038D01*
X163140038Y-147066809D01*
X162560000Y-148467144D01*
X90170000Y-148467144D01*
X89589962Y-147066809D01*
X88518191Y-145995038D01*
X87117856Y-145415000D01*
X85602144Y-145415000D01*
X84201809Y-145995038D01*
X83130038Y-147066809D01*
X82550000Y-148467144D01*
X81990000Y-148467144D01*
X81990000Y-138472617D01*
X122483600Y-138472617D01*
X122483600Y-138844583D01*
X122625945Y-139188235D01*
X122888965Y-139451255D01*
X123232617Y-139593600D01*
X123604583Y-139593600D01*
X123948235Y-139451255D01*
X124211255Y-139188235D01*
X124353600Y-138844583D01*
X124353600Y-138472617D01*
X124211255Y-138128965D01*
X123948235Y-137865945D01*
X123604583Y-137723600D01*
X123232617Y-137723600D01*
X122888965Y-137865945D01*
X122625945Y-138128965D01*
X122483600Y-138472617D01*
X81990000Y-138472617D01*
X81990000Y-128682306D01*
X86372000Y-128682306D01*
X86372000Y-129233294D01*
X86582853Y-129742340D01*
X86997860Y-130157347D01*
X87506906Y-130368200D01*
X88057894Y-130368200D01*
X88566940Y-130157347D01*
X88956547Y-129767740D01*
X89167400Y-129258694D01*
X89167400Y-128707706D01*
X88956547Y-128198660D01*
X88541540Y-127783653D01*
X88096719Y-127599403D01*
X88116698Y-127591127D01*
X88257000Y-127450825D01*
X88422702Y-127616527D01*
X88656091Y-127713200D01*
X88908709Y-127713200D01*
X89142098Y-127616527D01*
X89320727Y-127437898D01*
X89417400Y-127204509D01*
X89417400Y-126951891D01*
X89320727Y-126718502D01*
X89142098Y-126539873D01*
X88908709Y-126443200D01*
X88656091Y-126443200D01*
X88422702Y-126539873D01*
X88282400Y-126680175D01*
X88116698Y-126514473D01*
X87883309Y-126417800D01*
X87630691Y-126417800D01*
X87397302Y-126514473D01*
X87218673Y-126693102D01*
X87122000Y-126926491D01*
X87122000Y-127179109D01*
X87218673Y-127412498D01*
X87397302Y-127591127D01*
X87417281Y-127599403D01*
X86972460Y-127783653D01*
X86582853Y-128173260D01*
X86372000Y-128682306D01*
X81990000Y-128682306D01*
X81990000Y-125583950D01*
X84567400Y-125583950D01*
X84567400Y-125754509D01*
X84664073Y-125987898D01*
X84842701Y-126166527D01*
X85076090Y-126263200D01*
X85591650Y-126263200D01*
X85750400Y-126104450D01*
X85750400Y-125425200D01*
X86004400Y-125425200D01*
X86004400Y-126104450D01*
X86163150Y-126263200D01*
X86678710Y-126263200D01*
X86912099Y-126166527D01*
X87090727Y-125987898D01*
X87187400Y-125754509D01*
X87187400Y-125583950D01*
X88377400Y-125583950D01*
X88377400Y-125754509D01*
X88474073Y-125987898D01*
X88652701Y-126166527D01*
X88886090Y-126263200D01*
X89401650Y-126263200D01*
X89560400Y-126104450D01*
X89560400Y-125425200D01*
X89814400Y-125425200D01*
X89814400Y-126104450D01*
X89973150Y-126263200D01*
X90488710Y-126263200D01*
X90722099Y-126166527D01*
X90900727Y-125987898D01*
X90997400Y-125754509D01*
X90997400Y-125583950D01*
X90838650Y-125425200D01*
X89814400Y-125425200D01*
X89560400Y-125425200D01*
X88536150Y-125425200D01*
X88377400Y-125583950D01*
X87187400Y-125583950D01*
X87028650Y-125425200D01*
X86004400Y-125425200D01*
X85750400Y-125425200D01*
X84726150Y-125425200D01*
X84567400Y-125583950D01*
X81990000Y-125583950D01*
X81990000Y-123698200D01*
X84554960Y-123698200D01*
X84554960Y-124358200D01*
X84604243Y-124605965D01*
X84641826Y-124662211D01*
X84567400Y-124841891D01*
X84567400Y-125012450D01*
X84726150Y-125171200D01*
X85750400Y-125171200D01*
X85750400Y-125151200D01*
X86004400Y-125151200D01*
X86004400Y-125171200D01*
X87028650Y-125171200D01*
X87187400Y-125012450D01*
X87187400Y-124841891D01*
X87112974Y-124662211D01*
X87150557Y-124605965D01*
X87199840Y-124358200D01*
X87199840Y-123698200D01*
X88364960Y-123698200D01*
X88364960Y-124358200D01*
X88414243Y-124605965D01*
X88451826Y-124662211D01*
X88377400Y-124841891D01*
X88377400Y-125012450D01*
X88536150Y-125171200D01*
X89560400Y-125171200D01*
X89560400Y-125151200D01*
X89814400Y-125151200D01*
X89814400Y-125171200D01*
X90838650Y-125171200D01*
X90997400Y-125012450D01*
X90997400Y-124841891D01*
X90922974Y-124662211D01*
X90960557Y-124605965D01*
X91009840Y-124358200D01*
X91009840Y-123698200D01*
X90960557Y-123450435D01*
X90922974Y-123394189D01*
X90997400Y-123214509D01*
X90997400Y-123043950D01*
X90838650Y-122885200D01*
X89814400Y-122885200D01*
X89814400Y-122905200D01*
X89560400Y-122905200D01*
X89560400Y-122885200D01*
X88536150Y-122885200D01*
X88377400Y-123043950D01*
X88377400Y-123214509D01*
X88451826Y-123394189D01*
X88414243Y-123450435D01*
X88364960Y-123698200D01*
X87199840Y-123698200D01*
X87150557Y-123450435D01*
X87112974Y-123394189D01*
X87187400Y-123214509D01*
X87187400Y-123043950D01*
X87028650Y-122885200D01*
X86004400Y-122885200D01*
X86004400Y-122905200D01*
X85750400Y-122905200D01*
X85750400Y-122885200D01*
X84726150Y-122885200D01*
X84567400Y-123043950D01*
X84567400Y-123214509D01*
X84641826Y-123394189D01*
X84604243Y-123450435D01*
X84554960Y-123698200D01*
X81990000Y-123698200D01*
X81990000Y-121158200D01*
X84554960Y-121158200D01*
X84554960Y-121818200D01*
X84604243Y-122065965D01*
X84641826Y-122122211D01*
X84567400Y-122301891D01*
X84567400Y-122472450D01*
X84726150Y-122631200D01*
X85750400Y-122631200D01*
X85750400Y-122611200D01*
X86004400Y-122611200D01*
X86004400Y-122631200D01*
X87028650Y-122631200D01*
X87187400Y-122472450D01*
X87187400Y-122301891D01*
X87112974Y-122122211D01*
X87150557Y-122065965D01*
X87199840Y-121818200D01*
X87199840Y-121158200D01*
X88364960Y-121158200D01*
X88364960Y-121818200D01*
X88414243Y-122065965D01*
X88451826Y-122122211D01*
X88377400Y-122301891D01*
X88377400Y-122472450D01*
X88536150Y-122631200D01*
X89560400Y-122631200D01*
X89560400Y-122611200D01*
X89814400Y-122611200D01*
X89814400Y-122631200D01*
X90838650Y-122631200D01*
X90997400Y-122472450D01*
X90997400Y-122301891D01*
X90922974Y-122122211D01*
X90960557Y-122065965D01*
X91009840Y-121818200D01*
X91009840Y-121158200D01*
X90960557Y-120910435D01*
X90922974Y-120854189D01*
X90997400Y-120674509D01*
X90997400Y-120503950D01*
X90838650Y-120345200D01*
X89814400Y-120345200D01*
X89814400Y-120365200D01*
X89560400Y-120365200D01*
X89560400Y-120345200D01*
X88536150Y-120345200D01*
X88377400Y-120503950D01*
X88377400Y-120674509D01*
X88451826Y-120854189D01*
X88414243Y-120910435D01*
X88364960Y-121158200D01*
X87199840Y-121158200D01*
X87150557Y-120910435D01*
X87112974Y-120854189D01*
X87187400Y-120674509D01*
X87187400Y-120503950D01*
X87028650Y-120345200D01*
X86004400Y-120345200D01*
X86004400Y-120365200D01*
X85750400Y-120365200D01*
X85750400Y-120345200D01*
X84726150Y-120345200D01*
X84567400Y-120503950D01*
X84567400Y-120674509D01*
X84641826Y-120854189D01*
X84604243Y-120910435D01*
X84554960Y-121158200D01*
X81990000Y-121158200D01*
X81990000Y-118618200D01*
X84554960Y-118618200D01*
X84554960Y-119278200D01*
X84604243Y-119525965D01*
X84641826Y-119582211D01*
X84567400Y-119761891D01*
X84567400Y-119932450D01*
X84726150Y-120091200D01*
X85750400Y-120091200D01*
X85750400Y-120071200D01*
X86004400Y-120071200D01*
X86004400Y-120091200D01*
X87028650Y-120091200D01*
X87187400Y-119932450D01*
X87187400Y-119761891D01*
X87112974Y-119582211D01*
X87150557Y-119525965D01*
X87199840Y-119278200D01*
X87199840Y-118618200D01*
X88364960Y-118618200D01*
X88364960Y-119278200D01*
X88414243Y-119525965D01*
X88451826Y-119582211D01*
X88377400Y-119761891D01*
X88377400Y-119932450D01*
X88536150Y-120091200D01*
X89560400Y-120091200D01*
X89560400Y-120071200D01*
X89814400Y-120071200D01*
X89814400Y-120091200D01*
X90838650Y-120091200D01*
X90997400Y-119932450D01*
X90997400Y-119761891D01*
X90922974Y-119582211D01*
X90960557Y-119525965D01*
X91009840Y-119278200D01*
X91009840Y-118618200D01*
X90960557Y-118370435D01*
X90922974Y-118314189D01*
X90997400Y-118134509D01*
X90997400Y-117963950D01*
X90838650Y-117805200D01*
X89814400Y-117805200D01*
X89814400Y-117825200D01*
X89560400Y-117825200D01*
X89560400Y-117805200D01*
X88536150Y-117805200D01*
X88377400Y-117963950D01*
X88377400Y-118134509D01*
X88451826Y-118314189D01*
X88414243Y-118370435D01*
X88364960Y-118618200D01*
X87199840Y-118618200D01*
X87150557Y-118370435D01*
X87112974Y-118314189D01*
X87187400Y-118134509D01*
X87187400Y-117963950D01*
X87028650Y-117805200D01*
X86004400Y-117805200D01*
X86004400Y-117825200D01*
X85750400Y-117825200D01*
X85750400Y-117805200D01*
X84726150Y-117805200D01*
X84567400Y-117963950D01*
X84567400Y-118134509D01*
X84641826Y-118314189D01*
X84604243Y-118370435D01*
X84554960Y-118618200D01*
X81990000Y-118618200D01*
X81990000Y-117219800D01*
X83115075Y-117219800D01*
X83185000Y-117233709D01*
X83462028Y-117178605D01*
X83696881Y-117021681D01*
X83853805Y-116786828D01*
X83895000Y-116579726D01*
X83908909Y-116509800D01*
X83895000Y-116439874D01*
X83895000Y-116078200D01*
X84554960Y-116078200D01*
X84554960Y-116738200D01*
X84604243Y-116985965D01*
X84641826Y-117042211D01*
X84567400Y-117221891D01*
X84567400Y-117392450D01*
X84726150Y-117551200D01*
X85750400Y-117551200D01*
X85750400Y-117531200D01*
X86004400Y-117531200D01*
X86004400Y-117551200D01*
X87028650Y-117551200D01*
X87187400Y-117392450D01*
X87187400Y-117221891D01*
X87112974Y-117042211D01*
X87150557Y-116985965D01*
X87199840Y-116738200D01*
X87199840Y-116078200D01*
X88364960Y-116078200D01*
X88364960Y-116738200D01*
X88414243Y-116985965D01*
X88451826Y-117042211D01*
X88377400Y-117221891D01*
X88377400Y-117392450D01*
X88536150Y-117551200D01*
X89560400Y-117551200D01*
X89560400Y-117531200D01*
X89814400Y-117531200D01*
X89814400Y-117551200D01*
X90838650Y-117551200D01*
X90997400Y-117392450D01*
X90997400Y-117221891D01*
X90922974Y-117042211D01*
X90960557Y-116985965D01*
X91009840Y-116738200D01*
X91009840Y-116078200D01*
X90960557Y-115830435D01*
X90922974Y-115774189D01*
X90997400Y-115594509D01*
X90997400Y-115423950D01*
X90838650Y-115265200D01*
X89814400Y-115265200D01*
X89814400Y-115285200D01*
X89560400Y-115285200D01*
X89560400Y-115265200D01*
X88536150Y-115265200D01*
X88377400Y-115423950D01*
X88377400Y-115594509D01*
X88451826Y-115774189D01*
X88414243Y-115830435D01*
X88364960Y-116078200D01*
X87199840Y-116078200D01*
X87150557Y-115830435D01*
X87112974Y-115774189D01*
X87187400Y-115594509D01*
X87187400Y-115423950D01*
X87028650Y-115265200D01*
X86004400Y-115265200D01*
X86004400Y-115285200D01*
X85750400Y-115285200D01*
X85750400Y-115265200D01*
X84726150Y-115265200D01*
X84567400Y-115423950D01*
X84567400Y-115594509D01*
X84641826Y-115774189D01*
X84604243Y-115830435D01*
X84554960Y-116078200D01*
X83895000Y-116078200D01*
X83895000Y-113538200D01*
X84554960Y-113538200D01*
X84554960Y-114198200D01*
X84604243Y-114445965D01*
X84641826Y-114502211D01*
X84567400Y-114681891D01*
X84567400Y-114852450D01*
X84726150Y-115011200D01*
X85750400Y-115011200D01*
X85750400Y-114991200D01*
X86004400Y-114991200D01*
X86004400Y-115011200D01*
X87028650Y-115011200D01*
X87187400Y-114852450D01*
X87187400Y-114681891D01*
X87112974Y-114502211D01*
X87150557Y-114445965D01*
X87199840Y-114198200D01*
X87199840Y-113538200D01*
X88364960Y-113538200D01*
X88364960Y-114198200D01*
X88414243Y-114445965D01*
X88451826Y-114502211D01*
X88377400Y-114681891D01*
X88377400Y-114852450D01*
X88536150Y-115011200D01*
X89560400Y-115011200D01*
X89560400Y-114991200D01*
X89814400Y-114991200D01*
X89814400Y-115011200D01*
X90838650Y-115011200D01*
X90997400Y-114852450D01*
X90997400Y-114681891D01*
X90922974Y-114502211D01*
X90960557Y-114445965D01*
X91009840Y-114198200D01*
X91009840Y-113538200D01*
X90960557Y-113290435D01*
X90922974Y-113234189D01*
X90997400Y-113054509D01*
X90997400Y-112883950D01*
X90838650Y-112725200D01*
X89814400Y-112725200D01*
X89814400Y-112745200D01*
X89560400Y-112745200D01*
X89560400Y-112725200D01*
X88536150Y-112725200D01*
X88377400Y-112883950D01*
X88377400Y-113054509D01*
X88451826Y-113234189D01*
X88414243Y-113290435D01*
X88364960Y-113538200D01*
X87199840Y-113538200D01*
X87150557Y-113290435D01*
X87112974Y-113234189D01*
X87187400Y-113054509D01*
X87187400Y-112883950D01*
X87028650Y-112725200D01*
X86004400Y-112725200D01*
X86004400Y-112745200D01*
X85750400Y-112745200D01*
X85750400Y-112725200D01*
X84726150Y-112725200D01*
X84567400Y-112883950D01*
X84567400Y-113054509D01*
X84641826Y-113234189D01*
X84604243Y-113290435D01*
X84554960Y-113538200D01*
X83895000Y-113538200D01*
X83895000Y-100838200D01*
X84554960Y-100838200D01*
X84554960Y-101498200D01*
X84604243Y-101745965D01*
X84641826Y-101802211D01*
X84567400Y-101981891D01*
X84567400Y-102152450D01*
X84726150Y-102311200D01*
X85750400Y-102311200D01*
X85750400Y-102291200D01*
X86004400Y-102291200D01*
X86004400Y-102311200D01*
X86024400Y-102311200D01*
X86024400Y-102565200D01*
X86004400Y-102565200D01*
X86004400Y-102585200D01*
X85750400Y-102585200D01*
X85750400Y-102565200D01*
X84726150Y-102565200D01*
X84567400Y-102723950D01*
X84567400Y-102894509D01*
X84641826Y-103074189D01*
X84604243Y-103130435D01*
X84554960Y-103378200D01*
X84554960Y-104038200D01*
X84604243Y-104285965D01*
X84641826Y-104342211D01*
X84567400Y-104521891D01*
X84567400Y-104692450D01*
X84726150Y-104851200D01*
X85750400Y-104851200D01*
X85750400Y-104831200D01*
X86004400Y-104831200D01*
X86004400Y-104851200D01*
X86024400Y-104851200D01*
X86024400Y-105105200D01*
X86004400Y-105105200D01*
X86004400Y-105125200D01*
X85750400Y-105125200D01*
X85750400Y-105105200D01*
X84726150Y-105105200D01*
X84567400Y-105263950D01*
X84567400Y-105434509D01*
X84641826Y-105614189D01*
X84604243Y-105670435D01*
X84554960Y-105918200D01*
X84554960Y-106578200D01*
X84604243Y-106825965D01*
X84641826Y-106882211D01*
X84567400Y-107061891D01*
X84567400Y-107232450D01*
X84726150Y-107391200D01*
X85750400Y-107391200D01*
X85750400Y-107371200D01*
X86004400Y-107371200D01*
X86004400Y-107391200D01*
X87028650Y-107391200D01*
X87187400Y-107232450D01*
X87187400Y-107061891D01*
X87112974Y-106882211D01*
X87150557Y-106825965D01*
X87199840Y-106578200D01*
X87199840Y-105918200D01*
X87193793Y-105887800D01*
X87333383Y-105887800D01*
X87677035Y-105745455D01*
X87782400Y-105640090D01*
X87887765Y-105745455D01*
X88231417Y-105887800D01*
X88371007Y-105887800D01*
X88364960Y-105918200D01*
X88364960Y-106578200D01*
X88414243Y-106825965D01*
X88451826Y-106882211D01*
X88377400Y-107061891D01*
X88377400Y-107232450D01*
X88536150Y-107391200D01*
X89560400Y-107391200D01*
X89560400Y-107371200D01*
X89814400Y-107371200D01*
X89814400Y-107391200D01*
X89834400Y-107391200D01*
X89834400Y-107645200D01*
X89814400Y-107645200D01*
X89814400Y-107665200D01*
X89560400Y-107665200D01*
X89560400Y-107645200D01*
X88536150Y-107645200D01*
X88377400Y-107803950D01*
X88377400Y-107853200D01*
X88206017Y-107853200D01*
X87862365Y-107995545D01*
X87757000Y-108100910D01*
X87651635Y-107995545D01*
X87307983Y-107853200D01*
X87187400Y-107853200D01*
X87187400Y-107803950D01*
X87028650Y-107645200D01*
X86004400Y-107645200D01*
X86004400Y-107665200D01*
X85750400Y-107665200D01*
X85750400Y-107645200D01*
X84726150Y-107645200D01*
X84567400Y-107803950D01*
X84567400Y-107974509D01*
X84641826Y-108154189D01*
X84604243Y-108210435D01*
X84554960Y-108458200D01*
X84554960Y-109118200D01*
X84604243Y-109365965D01*
X84641826Y-109422211D01*
X84567400Y-109601891D01*
X84567400Y-109772450D01*
X84726150Y-109931200D01*
X85750400Y-109931200D01*
X85750400Y-109911200D01*
X86004400Y-109911200D01*
X86004400Y-109931200D01*
X87028650Y-109931200D01*
X87187400Y-109772450D01*
X87187400Y-109723200D01*
X87307983Y-109723200D01*
X87651635Y-109580855D01*
X87757000Y-109475490D01*
X87862365Y-109580855D01*
X88206017Y-109723200D01*
X88377400Y-109723200D01*
X88377400Y-109772450D01*
X88536150Y-109931200D01*
X89560400Y-109931200D01*
X89560400Y-109911200D01*
X89814400Y-109911200D01*
X89814400Y-109931200D01*
X89834400Y-109931200D01*
X89834400Y-110185200D01*
X89814400Y-110185200D01*
X89814400Y-110205200D01*
X89560400Y-110205200D01*
X89560400Y-110185200D01*
X88536150Y-110185200D01*
X88377400Y-110343950D01*
X88377400Y-110367800D01*
X88256817Y-110367800D01*
X87913165Y-110510145D01*
X87795100Y-110628210D01*
X87677035Y-110510145D01*
X87333383Y-110367800D01*
X87187400Y-110367800D01*
X87187400Y-110343950D01*
X87028650Y-110185200D01*
X86004400Y-110185200D01*
X86004400Y-110205200D01*
X85750400Y-110205200D01*
X85750400Y-110185200D01*
X84726150Y-110185200D01*
X84567400Y-110343950D01*
X84567400Y-110514509D01*
X84641826Y-110694189D01*
X84604243Y-110750435D01*
X84554960Y-110998200D01*
X84554960Y-111658200D01*
X84604243Y-111905965D01*
X84641826Y-111962211D01*
X84567400Y-112141891D01*
X84567400Y-112312450D01*
X84726150Y-112471200D01*
X85750400Y-112471200D01*
X85750400Y-112451200D01*
X86004400Y-112451200D01*
X86004400Y-112471200D01*
X87028650Y-112471200D01*
X87187400Y-112312450D01*
X87187400Y-112237800D01*
X87333383Y-112237800D01*
X87677035Y-112095455D01*
X87795100Y-111977390D01*
X87913165Y-112095455D01*
X88256817Y-112237800D01*
X88377400Y-112237800D01*
X88377400Y-112312450D01*
X88536150Y-112471200D01*
X89560400Y-112471200D01*
X89560400Y-112451200D01*
X89814400Y-112451200D01*
X89814400Y-112471200D01*
X90838650Y-112471200D01*
X90997400Y-112312450D01*
X90997400Y-112141891D01*
X90922974Y-111962211D01*
X90960557Y-111905965D01*
X91009840Y-111658200D01*
X91009840Y-110998200D01*
X91007358Y-110985720D01*
X91025417Y-110993200D01*
X91397383Y-110993200D01*
X91741035Y-110850855D01*
X92004055Y-110587835D01*
X92146400Y-110244183D01*
X92146400Y-110096402D01*
X92280073Y-109962729D01*
X92343529Y-109920329D01*
X92446889Y-109765640D01*
X92511504Y-109668938D01*
X92524840Y-109601891D01*
X92555600Y-109447252D01*
X92555600Y-109447248D01*
X92570488Y-109372400D01*
X92555600Y-109297552D01*
X92555600Y-106900417D01*
X134523200Y-106900417D01*
X134523200Y-107272383D01*
X134665545Y-107616035D01*
X134928565Y-107879055D01*
X135272217Y-108021400D01*
X135644183Y-108021400D01*
X135987835Y-107879055D01*
X136250855Y-107616035D01*
X136393200Y-107272383D01*
X136393200Y-106900417D01*
X136250855Y-106556765D01*
X135987835Y-106293745D01*
X135644183Y-106151400D01*
X135272217Y-106151400D01*
X134928565Y-106293745D01*
X134665545Y-106556765D01*
X134523200Y-106900417D01*
X92555600Y-106900417D01*
X92555600Y-104694000D01*
X92794383Y-104694000D01*
X93138035Y-104551655D01*
X93401055Y-104288635D01*
X93543400Y-103944983D01*
X93543400Y-103573017D01*
X93401055Y-103229365D01*
X93138035Y-102966345D01*
X92794383Y-102824000D01*
X92422417Y-102824000D01*
X92078765Y-102966345D01*
X92046110Y-102999000D01*
X91870452Y-102999000D01*
X91795600Y-102984111D01*
X91720748Y-102999000D01*
X91499063Y-103043096D01*
X91247671Y-103211071D01*
X91079696Y-103462463D01*
X91020711Y-103759000D01*
X91035600Y-103833852D01*
X91035600Y-105480751D01*
X90998201Y-105473312D01*
X90979812Y-105476970D01*
X90997400Y-105434509D01*
X90997400Y-105263950D01*
X90838650Y-105105200D01*
X89814400Y-105105200D01*
X89814400Y-105125200D01*
X89560400Y-105125200D01*
X89560400Y-105105200D01*
X89540400Y-105105200D01*
X89540400Y-104851200D01*
X89560400Y-104851200D01*
X89560400Y-104831200D01*
X89814400Y-104831200D01*
X89814400Y-104851200D01*
X90838650Y-104851200D01*
X90997400Y-104692450D01*
X90997400Y-104521891D01*
X90922974Y-104342211D01*
X90960557Y-104285965D01*
X91009840Y-104038200D01*
X91009840Y-103378200D01*
X90960557Y-103130435D01*
X90922974Y-103074189D01*
X90997400Y-102894509D01*
X90997400Y-102723950D01*
X90838650Y-102565200D01*
X89814400Y-102565200D01*
X89814400Y-102585200D01*
X89560400Y-102585200D01*
X89560400Y-102565200D01*
X89540400Y-102565200D01*
X89540400Y-102311200D01*
X89560400Y-102311200D01*
X89560400Y-102291200D01*
X89814400Y-102291200D01*
X89814400Y-102311200D01*
X90838650Y-102311200D01*
X90997400Y-102152450D01*
X90997400Y-101981891D01*
X90922974Y-101802211D01*
X90960557Y-101745965D01*
X91009840Y-101498200D01*
X91009840Y-100838200D01*
X90960557Y-100590435D01*
X90922974Y-100534189D01*
X90997400Y-100354509D01*
X90997400Y-100183950D01*
X90838650Y-100025200D01*
X89814400Y-100025200D01*
X89814400Y-100045200D01*
X89560400Y-100045200D01*
X89560400Y-100025200D01*
X88536150Y-100025200D01*
X88377400Y-100183950D01*
X88377400Y-100354509D01*
X88451826Y-100534189D01*
X88414243Y-100590435D01*
X88364960Y-100838200D01*
X88364960Y-101477800D01*
X88104417Y-101477800D01*
X87760765Y-101620145D01*
X87718900Y-101662010D01*
X87677035Y-101620145D01*
X87333383Y-101477800D01*
X87199840Y-101477800D01*
X87199840Y-100838200D01*
X87150557Y-100590435D01*
X87112974Y-100534189D01*
X87187400Y-100354509D01*
X87187400Y-100183950D01*
X87028650Y-100025200D01*
X86004400Y-100025200D01*
X86004400Y-100045200D01*
X85750400Y-100045200D01*
X85750400Y-100025200D01*
X84726150Y-100025200D01*
X84567400Y-100183950D01*
X84567400Y-100354509D01*
X84641826Y-100534189D01*
X84604243Y-100590435D01*
X84554960Y-100838200D01*
X83895000Y-100838200D01*
X83895000Y-98298200D01*
X84554960Y-98298200D01*
X84554960Y-98958200D01*
X84604243Y-99205965D01*
X84641826Y-99262211D01*
X84567400Y-99441891D01*
X84567400Y-99612450D01*
X84726150Y-99771200D01*
X85750400Y-99771200D01*
X85750400Y-99751200D01*
X86004400Y-99751200D01*
X86004400Y-99771200D01*
X87028650Y-99771200D01*
X87187400Y-99612450D01*
X87187400Y-99441891D01*
X87112974Y-99262211D01*
X87150557Y-99205965D01*
X87199840Y-98958200D01*
X87199840Y-98298200D01*
X88364960Y-98298200D01*
X88364960Y-98958200D01*
X88414243Y-99205965D01*
X88451826Y-99262211D01*
X88377400Y-99441891D01*
X88377400Y-99612450D01*
X88536150Y-99771200D01*
X89560400Y-99771200D01*
X89560400Y-99751200D01*
X89814400Y-99751200D01*
X89814400Y-99771200D01*
X90838650Y-99771200D01*
X90997400Y-99612450D01*
X90997400Y-99441891D01*
X90922974Y-99262211D01*
X90960557Y-99205965D01*
X91009840Y-98958200D01*
X91009840Y-98298200D01*
X90960557Y-98050435D01*
X90922974Y-97994189D01*
X90997400Y-97814509D01*
X90997400Y-97643950D01*
X90838650Y-97485200D01*
X89814400Y-97485200D01*
X89814400Y-97505200D01*
X89560400Y-97505200D01*
X89560400Y-97485200D01*
X88536150Y-97485200D01*
X88377400Y-97643950D01*
X88377400Y-97814509D01*
X88451826Y-97994189D01*
X88414243Y-98050435D01*
X88364960Y-98298200D01*
X87199840Y-98298200D01*
X87150557Y-98050435D01*
X87112974Y-97994189D01*
X87187400Y-97814509D01*
X87187400Y-97643950D01*
X87028650Y-97485200D01*
X86004400Y-97485200D01*
X86004400Y-97505200D01*
X85750400Y-97505200D01*
X85750400Y-97485200D01*
X84726150Y-97485200D01*
X84567400Y-97643950D01*
X84567400Y-97814509D01*
X84641826Y-97994189D01*
X84604243Y-98050435D01*
X84554960Y-98298200D01*
X83895000Y-98298200D01*
X83895000Y-96285126D01*
X83908909Y-96215200D01*
X83853805Y-95938172D01*
X83733552Y-95758200D01*
X84554960Y-95758200D01*
X84554960Y-96418200D01*
X84604243Y-96665965D01*
X84641826Y-96722211D01*
X84567400Y-96901891D01*
X84567400Y-97072450D01*
X84726150Y-97231200D01*
X85750400Y-97231200D01*
X85750400Y-97211200D01*
X86004400Y-97211200D01*
X86004400Y-97231200D01*
X87028650Y-97231200D01*
X87187400Y-97072450D01*
X87187400Y-96901891D01*
X87112974Y-96722211D01*
X87150557Y-96665965D01*
X87199840Y-96418200D01*
X87199840Y-95758200D01*
X88364960Y-95758200D01*
X88364960Y-96418200D01*
X88414243Y-96665965D01*
X88451826Y-96722211D01*
X88377400Y-96901891D01*
X88377400Y-97072450D01*
X88536150Y-97231200D01*
X89560400Y-97231200D01*
X89560400Y-97211200D01*
X89814400Y-97211200D01*
X89814400Y-97231200D01*
X90838650Y-97231200D01*
X90997400Y-97072450D01*
X90997400Y-96901891D01*
X90922974Y-96722211D01*
X90960557Y-96665965D01*
X91009840Y-96418200D01*
X91009840Y-95758200D01*
X90960557Y-95510435D01*
X90922974Y-95454189D01*
X90997400Y-95274509D01*
X90997400Y-95103950D01*
X90838650Y-94945200D01*
X89814400Y-94945200D01*
X89814400Y-94965200D01*
X89560400Y-94965200D01*
X89560400Y-94945200D01*
X88536150Y-94945200D01*
X88377400Y-95103950D01*
X88377400Y-95274509D01*
X88451826Y-95454189D01*
X88414243Y-95510435D01*
X88364960Y-95758200D01*
X87199840Y-95758200D01*
X87150557Y-95510435D01*
X87112974Y-95454189D01*
X87187400Y-95274509D01*
X87187400Y-95103950D01*
X87028650Y-94945200D01*
X86004400Y-94945200D01*
X86004400Y-94965200D01*
X85750400Y-94965200D01*
X85750400Y-94945200D01*
X84726150Y-94945200D01*
X84567400Y-95103950D01*
X84567400Y-95274509D01*
X84641826Y-95454189D01*
X84604243Y-95510435D01*
X84554960Y-95758200D01*
X83733552Y-95758200D01*
X83696881Y-95703319D01*
X83462028Y-95546395D01*
X83254926Y-95505200D01*
X83254925Y-95505200D01*
X83185000Y-95491291D01*
X83115074Y-95505200D01*
X81990000Y-95505200D01*
X81990000Y-93218200D01*
X84554960Y-93218200D01*
X84554960Y-93878200D01*
X84604243Y-94125965D01*
X84641826Y-94182211D01*
X84567400Y-94361891D01*
X84567400Y-94532450D01*
X84726150Y-94691200D01*
X85750400Y-94691200D01*
X85750400Y-94671200D01*
X86004400Y-94671200D01*
X86004400Y-94691200D01*
X87028650Y-94691200D01*
X87187400Y-94532450D01*
X87187400Y-94361891D01*
X87112974Y-94182211D01*
X87150557Y-94125965D01*
X87199840Y-93878200D01*
X87199840Y-93218200D01*
X88364960Y-93218200D01*
X88364960Y-93878200D01*
X88414243Y-94125965D01*
X88451826Y-94182211D01*
X88377400Y-94361891D01*
X88377400Y-94532450D01*
X88536150Y-94691200D01*
X89560400Y-94691200D01*
X89560400Y-94671200D01*
X89814400Y-94671200D01*
X89814400Y-94691200D01*
X90838650Y-94691200D01*
X90997400Y-94532450D01*
X90997400Y-94361891D01*
X90922974Y-94182211D01*
X90960557Y-94125965D01*
X91009840Y-93878200D01*
X91009840Y-93218200D01*
X90960557Y-92970435D01*
X90922974Y-92914189D01*
X90997400Y-92734509D01*
X90997400Y-92563950D01*
X90838650Y-92405200D01*
X89814400Y-92405200D01*
X89814400Y-92425200D01*
X89560400Y-92425200D01*
X89560400Y-92405200D01*
X88536150Y-92405200D01*
X88377400Y-92563950D01*
X88377400Y-92734509D01*
X88451826Y-92914189D01*
X88414243Y-92970435D01*
X88364960Y-93218200D01*
X87199840Y-93218200D01*
X87150557Y-92970435D01*
X87112974Y-92914189D01*
X87187400Y-92734509D01*
X87187400Y-92563950D01*
X87028650Y-92405200D01*
X86004400Y-92405200D01*
X86004400Y-92425200D01*
X85750400Y-92425200D01*
X85750400Y-92405200D01*
X84726150Y-92405200D01*
X84567400Y-92563950D01*
X84567400Y-92734509D01*
X84641826Y-92914189D01*
X84604243Y-92970435D01*
X84554960Y-93218200D01*
X81990000Y-93218200D01*
X81990000Y-90678200D01*
X84554960Y-90678200D01*
X84554960Y-91338200D01*
X84604243Y-91585965D01*
X84641826Y-91642211D01*
X84567400Y-91821891D01*
X84567400Y-91992450D01*
X84726150Y-92151200D01*
X85750400Y-92151200D01*
X85750400Y-92131200D01*
X86004400Y-92131200D01*
X86004400Y-92151200D01*
X87028650Y-92151200D01*
X87187400Y-91992450D01*
X87187400Y-91821891D01*
X87112974Y-91642211D01*
X87150557Y-91585965D01*
X87199840Y-91338200D01*
X87199840Y-90678200D01*
X88364960Y-90678200D01*
X88364960Y-91338200D01*
X88414243Y-91585965D01*
X88451826Y-91642211D01*
X88377400Y-91821891D01*
X88377400Y-91992450D01*
X88536150Y-92151200D01*
X89560400Y-92151200D01*
X89560400Y-92131200D01*
X89814400Y-92131200D01*
X89814400Y-92151200D01*
X90838650Y-92151200D01*
X90997400Y-91992450D01*
X90997400Y-91821891D01*
X90922974Y-91642211D01*
X90960557Y-91585965D01*
X91009840Y-91338200D01*
X91009840Y-90678200D01*
X90960557Y-90430435D01*
X90922974Y-90374189D01*
X90997400Y-90194509D01*
X90997400Y-90023950D01*
X90838650Y-89865200D01*
X89814400Y-89865200D01*
X89814400Y-89885200D01*
X89560400Y-89885200D01*
X89560400Y-89865200D01*
X88536150Y-89865200D01*
X88377400Y-90023950D01*
X88377400Y-90194509D01*
X88451826Y-90374189D01*
X88414243Y-90430435D01*
X88364960Y-90678200D01*
X87199840Y-90678200D01*
X87150557Y-90430435D01*
X87112974Y-90374189D01*
X87187400Y-90194509D01*
X87187400Y-90023950D01*
X87028650Y-89865200D01*
X86004400Y-89865200D01*
X86004400Y-89885200D01*
X85750400Y-89885200D01*
X85750400Y-89865200D01*
X84726150Y-89865200D01*
X84567400Y-90023950D01*
X84567400Y-90194509D01*
X84641826Y-90374189D01*
X84604243Y-90430435D01*
X84554960Y-90678200D01*
X81990000Y-90678200D01*
X81990000Y-88753950D01*
X84567400Y-88753950D01*
X84567400Y-88924509D01*
X84641416Y-89103200D01*
X84567400Y-89281891D01*
X84567400Y-89452450D01*
X84726150Y-89611200D01*
X85750400Y-89611200D01*
X85750400Y-88595200D01*
X86004400Y-88595200D01*
X86004400Y-89611200D01*
X87028650Y-89611200D01*
X87187400Y-89452450D01*
X87187400Y-89281891D01*
X87113384Y-89103200D01*
X87187400Y-88924509D01*
X87187400Y-88753950D01*
X88377400Y-88753950D01*
X88377400Y-88924509D01*
X88451416Y-89103200D01*
X88377400Y-89281891D01*
X88377400Y-89452450D01*
X88536150Y-89611200D01*
X89560400Y-89611200D01*
X89560400Y-88595200D01*
X89814400Y-88595200D01*
X89814400Y-89611200D01*
X90838650Y-89611200D01*
X90997400Y-89452450D01*
X90997400Y-89281891D01*
X90923384Y-89103200D01*
X90997400Y-88924509D01*
X90997400Y-88753950D01*
X90838650Y-88595200D01*
X89814400Y-88595200D01*
X89560400Y-88595200D01*
X88536150Y-88595200D01*
X88377400Y-88753950D01*
X87187400Y-88753950D01*
X87028650Y-88595200D01*
X86004400Y-88595200D01*
X85750400Y-88595200D01*
X84726150Y-88595200D01*
X84567400Y-88753950D01*
X81990000Y-88753950D01*
X81990000Y-88011891D01*
X84567400Y-88011891D01*
X84567400Y-88182450D01*
X84726150Y-88341200D01*
X85750400Y-88341200D01*
X85750400Y-87661950D01*
X86004400Y-87661950D01*
X86004400Y-88341200D01*
X87028650Y-88341200D01*
X87187400Y-88182450D01*
X87187400Y-88011891D01*
X88377400Y-88011891D01*
X88377400Y-88182450D01*
X88536150Y-88341200D01*
X89560400Y-88341200D01*
X89560400Y-87661950D01*
X89814400Y-87661950D01*
X89814400Y-88341200D01*
X90838650Y-88341200D01*
X90997400Y-88182450D01*
X90997400Y-88011891D01*
X90900727Y-87778502D01*
X90722099Y-87599873D01*
X90488710Y-87503200D01*
X89973150Y-87503200D01*
X89814400Y-87661950D01*
X89560400Y-87661950D01*
X89401650Y-87503200D01*
X88886090Y-87503200D01*
X88652701Y-87599873D01*
X88474073Y-87778502D01*
X88377400Y-88011891D01*
X87187400Y-88011891D01*
X87090727Y-87778502D01*
X86912099Y-87599873D01*
X86678710Y-87503200D01*
X86163150Y-87503200D01*
X86004400Y-87661950D01*
X85750400Y-87661950D01*
X85591650Y-87503200D01*
X85076090Y-87503200D01*
X84842701Y-87599873D01*
X84664073Y-87778502D01*
X84567400Y-88011891D01*
X81990000Y-88011891D01*
X81990000Y-84482306D01*
X86372000Y-84482306D01*
X86372000Y-85033294D01*
X86582853Y-85542340D01*
X86997860Y-85957347D01*
X87442681Y-86141597D01*
X87422702Y-86149873D01*
X87244073Y-86328502D01*
X87147400Y-86561891D01*
X87147400Y-86814509D01*
X87244073Y-87047898D01*
X87422702Y-87226527D01*
X87656091Y-87323200D01*
X87908709Y-87323200D01*
X88142098Y-87226527D01*
X88282400Y-87086225D01*
X88397302Y-87201127D01*
X88630691Y-87297800D01*
X88883309Y-87297800D01*
X89116698Y-87201127D01*
X89295327Y-87022498D01*
X89392000Y-86789109D01*
X89392000Y-86536491D01*
X89295327Y-86303102D01*
X89116698Y-86124473D01*
X88883309Y-86027800D01*
X88630691Y-86027800D01*
X88397302Y-86124473D01*
X88257000Y-86264775D01*
X88142098Y-86149873D01*
X88122119Y-86141597D01*
X88566940Y-85957347D01*
X88956547Y-85567740D01*
X89167400Y-85058694D01*
X89167400Y-84507706D01*
X88956547Y-83998660D01*
X88541540Y-83583653D01*
X88032494Y-83372800D01*
X87481506Y-83372800D01*
X86972460Y-83583653D01*
X86582853Y-83973260D01*
X86372000Y-84482306D01*
X81990000Y-84482306D01*
X81990000Y-78274617D01*
X150703000Y-78274617D01*
X150703000Y-78646583D01*
X150845345Y-78990235D01*
X151108365Y-79253255D01*
X151452017Y-79395600D01*
X151823983Y-79395600D01*
X152167635Y-79253255D01*
X152430655Y-78990235D01*
X152573000Y-78646583D01*
X152573000Y-78274617D01*
X152430655Y-77930965D01*
X152167635Y-77667945D01*
X151823983Y-77525600D01*
X151452017Y-77525600D01*
X151108365Y-77667945D01*
X150845345Y-77930965D01*
X150703000Y-78274617D01*
X81990000Y-78274617D01*
X81990000Y-59130000D01*
X116638000Y-59130000D01*
X116638001Y-61271070D01*
X116638001Y-61271070D01*
G37*
X116638001Y-61271070D02*
X116624091Y-61341000D01*
X116679195Y-61618028D01*
X116836119Y-61852881D01*
X117070972Y-62009805D01*
X117278074Y-62051000D01*
X117278075Y-62051000D01*
X117348000Y-62064909D01*
X117417926Y-62051000D01*
X117794541Y-62051000D01*
X117537663Y-62102096D01*
X117046456Y-62430310D01*
X116847081Y-62728696D01*
X116647706Y-62430310D01*
X116156499Y-62102096D01*
X115723337Y-62015935D01*
X115430825Y-62015935D01*
X114997663Y-62102096D01*
X114506456Y-62430310D01*
X114307081Y-62728696D01*
X114107706Y-62430310D01*
X113616499Y-62102096D01*
X113183337Y-62015935D01*
X112890825Y-62015935D01*
X112457663Y-62102096D01*
X111966456Y-62430310D01*
X111753238Y-62749413D01*
X111692264Y-62619577D01*
X111264005Y-62229290D01*
X110853971Y-62059459D01*
X110624081Y-62180780D01*
X110624081Y-63373935D01*
X110644081Y-63373935D01*
X110644081Y-63627935D01*
X110624081Y-63627935D01*
X110624081Y-63647935D01*
X110370081Y-63647935D01*
X110370081Y-63627935D01*
X110350081Y-63627935D01*
X110350081Y-63373935D01*
X110370081Y-63373935D01*
X110370081Y-62180780D01*
X110140191Y-62059459D01*
X109730157Y-62229290D01*
X109301898Y-62619577D01*
X109240924Y-62749413D01*
X109027706Y-62430310D01*
X108536499Y-62102096D01*
X108103337Y-62015935D01*
X107810825Y-62015935D01*
X107377663Y-62102096D01*
X106886456Y-62430310D01*
X106687081Y-62728696D01*
X106487706Y-62430310D01*
X105996499Y-62102096D01*
X105563337Y-62015935D01*
X105270825Y-62015935D01*
X104837663Y-62102096D01*
X104346456Y-62430310D01*
X104147081Y-62728696D01*
X103947706Y-62430310D01*
X103456499Y-62102096D01*
X103023337Y-62015935D01*
X102730825Y-62015935D01*
X102297663Y-62102096D01*
X101806456Y-62430310D01*
X101607081Y-62728696D01*
X101407706Y-62430310D01*
X100916499Y-62102096D01*
X100483337Y-62015935D01*
X100190825Y-62015935D01*
X99757663Y-62102096D01*
X99266456Y-62430310D01*
X99067081Y-62728696D01*
X98867706Y-62430310D01*
X98376499Y-62102096D01*
X97943337Y-62015935D01*
X97650825Y-62015935D01*
X97217663Y-62102096D01*
X96726456Y-62430310D01*
X96527081Y-62728696D01*
X96327706Y-62430310D01*
X95836499Y-62102096D01*
X95403337Y-62015935D01*
X95110825Y-62015935D01*
X94677663Y-62102096D01*
X94186456Y-62430310D01*
X93979271Y-62740384D01*
X93399962Y-61341809D01*
X92328191Y-60270038D01*
X90927856Y-59690000D01*
X89412144Y-59690000D01*
X88011809Y-60270038D01*
X86940038Y-61341809D01*
X86360000Y-62742144D01*
X86360000Y-64257856D01*
X86940038Y-65658191D01*
X88011809Y-66729962D01*
X89412144Y-67310000D01*
X90927856Y-67310000D01*
X92328191Y-66729962D01*
X93399962Y-65658191D01*
X93978793Y-64260770D01*
X94186456Y-64571560D01*
X94204700Y-64583751D01*
X94159316Y-64592778D01*
X93949272Y-64733126D01*
X93808924Y-64943170D01*
X93759641Y-65190935D01*
X93759641Y-66890935D01*
X93808924Y-67138700D01*
X93949272Y-67348744D01*
X94159316Y-67489092D01*
X94204700Y-67498119D01*
X94186456Y-67510310D01*
X93858242Y-68001517D01*
X93742989Y-68580935D01*
X93858242Y-69160353D01*
X94186456Y-69651560D01*
X94204700Y-69663751D01*
X94159316Y-69672778D01*
X93949272Y-69813126D01*
X93808924Y-70023170D01*
X93759641Y-70270935D01*
X93759641Y-71970935D01*
X93808924Y-72218700D01*
X93949272Y-72428744D01*
X94159316Y-72569092D01*
X94407081Y-72618375D01*
X96107081Y-72618375D01*
X96354846Y-72569092D01*
X96564890Y-72428744D01*
X96705238Y-72218700D01*
X96714265Y-72173316D01*
X96726456Y-72191560D01*
X97217663Y-72519774D01*
X97650825Y-72605935D01*
X97943337Y-72605935D01*
X98376499Y-72519774D01*
X98867706Y-72191560D01*
X99067081Y-71893174D01*
X99266456Y-72191560D01*
X99757663Y-72519774D01*
X100190825Y-72605935D01*
X100483337Y-72605935D01*
X100916499Y-72519774D01*
X101407706Y-72191560D01*
X101607081Y-71893174D01*
X101806456Y-72191560D01*
X102297663Y-72519774D01*
X102730825Y-72605935D01*
X103023337Y-72605935D01*
X103456499Y-72519774D01*
X103947706Y-72191560D01*
X104147081Y-71893174D01*
X104346456Y-72191560D01*
X104837663Y-72519774D01*
X105270825Y-72605935D01*
X105563337Y-72605935D01*
X105996499Y-72519774D01*
X106487706Y-72191560D01*
X106687081Y-71893174D01*
X106886456Y-72191560D01*
X107377663Y-72519774D01*
X107810825Y-72605935D01*
X108103337Y-72605935D01*
X108536499Y-72519774D01*
X109027706Y-72191560D01*
X109227081Y-71893174D01*
X109426456Y-72191560D01*
X109917663Y-72519774D01*
X110350825Y-72605935D01*
X110643337Y-72605935D01*
X111076499Y-72519774D01*
X111567706Y-72191560D01*
X111767081Y-71893174D01*
X111966456Y-72191560D01*
X112457663Y-72519774D01*
X112890825Y-72605935D01*
X113183337Y-72605935D01*
X113616499Y-72519774D01*
X114107706Y-72191560D01*
X114307081Y-71893174D01*
X114506456Y-72191560D01*
X114997663Y-72519774D01*
X115430825Y-72605935D01*
X115723337Y-72605935D01*
X116156499Y-72519774D01*
X116647706Y-72191560D01*
X116847081Y-71893174D01*
X117046456Y-72191560D01*
X117537663Y-72519774D01*
X117970825Y-72605935D01*
X118263337Y-72605935D01*
X118696499Y-72519774D01*
X119187706Y-72191560D01*
X119387081Y-71893174D01*
X119586456Y-72191560D01*
X120077663Y-72519774D01*
X120510825Y-72605935D01*
X120803337Y-72605935D01*
X121236499Y-72519774D01*
X121727706Y-72191560D01*
X121927081Y-71893174D01*
X122126456Y-72191560D01*
X122617663Y-72519774D01*
X123050825Y-72605935D01*
X123343337Y-72605935D01*
X123776499Y-72519774D01*
X124267706Y-72191560D01*
X124467081Y-71893174D01*
X124666456Y-72191560D01*
X125157663Y-72519774D01*
X125590825Y-72605935D01*
X125883337Y-72605935D01*
X126316499Y-72519774D01*
X126807706Y-72191560D01*
X127007081Y-71893174D01*
X127206456Y-72191560D01*
X127697663Y-72519774D01*
X128130825Y-72605935D01*
X128423337Y-72605935D01*
X128856499Y-72519774D01*
X129347706Y-72191560D01*
X129547081Y-71893174D01*
X129746456Y-72191560D01*
X130237663Y-72519774D01*
X130670825Y-72605935D01*
X130963337Y-72605935D01*
X131396499Y-72519774D01*
X131887706Y-72191560D01*
X132087081Y-71893174D01*
X132286456Y-72191560D01*
X132777663Y-72519774D01*
X133210825Y-72605935D01*
X133503337Y-72605935D01*
X133936499Y-72519774D01*
X134427706Y-72191560D01*
X134627081Y-71893174D01*
X134826456Y-72191560D01*
X135317663Y-72519774D01*
X135750825Y-72605935D01*
X136043337Y-72605935D01*
X136476499Y-72519774D01*
X136967706Y-72191560D01*
X137167081Y-71893174D01*
X137366456Y-72191560D01*
X137857663Y-72519774D01*
X138290825Y-72605935D01*
X138583337Y-72605935D01*
X139016499Y-72519774D01*
X139507706Y-72191560D01*
X139707081Y-71893174D01*
X139906456Y-72191560D01*
X140397663Y-72519774D01*
X140830825Y-72605935D01*
X141123337Y-72605935D01*
X141556499Y-72519774D01*
X142047706Y-72191560D01*
X142247081Y-71893174D01*
X142446456Y-72191560D01*
X142937663Y-72519774D01*
X143370825Y-72605935D01*
X143663337Y-72605935D01*
X144096499Y-72519774D01*
X144587706Y-72191560D01*
X144787081Y-71893174D01*
X144986456Y-72191560D01*
X145477663Y-72519774D01*
X145910825Y-72605935D01*
X146203337Y-72605935D01*
X146636499Y-72519774D01*
X147127706Y-72191560D01*
X147327081Y-71893174D01*
X147526456Y-72191560D01*
X148017663Y-72519774D01*
X148450825Y-72605935D01*
X148743337Y-72605935D01*
X149176499Y-72519774D01*
X149667706Y-72191560D01*
X149867081Y-71893174D01*
X150066456Y-72191560D01*
X150557663Y-72519774D01*
X150990825Y-72605935D01*
X151283337Y-72605935D01*
X151716499Y-72519774D01*
X152207706Y-72191560D01*
X152407081Y-71893174D01*
X152606456Y-72191560D01*
X153097663Y-72519774D01*
X153530825Y-72605935D01*
X153823337Y-72605935D01*
X154256499Y-72519774D01*
X154747706Y-72191560D01*
X154947081Y-71893174D01*
X155146456Y-72191560D01*
X155637663Y-72519774D01*
X156070825Y-72605935D01*
X156363337Y-72605935D01*
X156796499Y-72519774D01*
X157287706Y-72191560D01*
X157487081Y-71893174D01*
X157686456Y-72191560D01*
X158177663Y-72519774D01*
X158610825Y-72605935D01*
X158903337Y-72605935D01*
X159336499Y-72519774D01*
X159827706Y-72191560D01*
X160155920Y-71700353D01*
X160271173Y-71120935D01*
X160155920Y-70541517D01*
X159827706Y-70050310D01*
X159529320Y-69850935D01*
X159827706Y-69651560D01*
X160155920Y-69160353D01*
X160271173Y-68580935D01*
X160155920Y-68001517D01*
X159827706Y-67510310D01*
X159529320Y-67310935D01*
X159827706Y-67111560D01*
X160155920Y-66620353D01*
X160271173Y-66040935D01*
X160155920Y-65461517D01*
X159827706Y-64970310D01*
X159529320Y-64770935D01*
X159827706Y-64571560D01*
X160026627Y-64273854D01*
X160600038Y-65658191D01*
X161671809Y-66729962D01*
X163072144Y-67310000D01*
X164587856Y-67310000D01*
X165988191Y-66729962D01*
X166168000Y-66550153D01*
X166168001Y-81337069D01*
X166154091Y-81407000D01*
X166209195Y-81684028D01*
X166366119Y-81918881D01*
X166600972Y-82075805D01*
X166808074Y-82117000D01*
X166808075Y-82117000D01*
X166878000Y-82130909D01*
X166947926Y-82117000D01*
X170740000Y-82117000D01*
X170740001Y-153595000D01*
X138378000Y-153595000D01*
X138378000Y-151453926D01*
X138391909Y-151384000D01*
X138336805Y-151106972D01*
X138179881Y-150872119D01*
X137945028Y-150715195D01*
X137737926Y-150674000D01*
X137737925Y-150674000D01*
X137668000Y-150660091D01*
X137598074Y-150674000D01*
X117417926Y-150674000D01*
X117348000Y-150660091D01*
X117278075Y-150674000D01*
X117278074Y-150674000D01*
X117070972Y-150715195D01*
X116836119Y-150872119D01*
X116679195Y-151106972D01*
X116624091Y-151384000D01*
X116638001Y-151453930D01*
X116638000Y-153595000D01*
X81990000Y-153595000D01*
X81990000Y-148467144D01*
X82550000Y-148467144D01*
X82550000Y-149982856D01*
X83130038Y-151383191D01*
X84201809Y-152454962D01*
X85602144Y-153035000D01*
X87117856Y-153035000D01*
X88518191Y-152454962D01*
X89589962Y-151383191D01*
X90170000Y-149982856D01*
X90170000Y-148467144D01*
X162560000Y-148467144D01*
X162560000Y-149982856D01*
X163140038Y-151383191D01*
X164211809Y-152454962D01*
X165612144Y-153035000D01*
X167127856Y-153035000D01*
X168528191Y-152454962D01*
X169599962Y-151383191D01*
X170180000Y-149982856D01*
X170180000Y-148467144D01*
X169599962Y-147066809D01*
X168528191Y-145995038D01*
X167127856Y-145415000D01*
X165612144Y-145415000D01*
X164211809Y-145995038D01*
X163140038Y-147066809D01*
X162560000Y-148467144D01*
X90170000Y-148467144D01*
X89589962Y-147066809D01*
X88518191Y-145995038D01*
X87117856Y-145415000D01*
X85602144Y-145415000D01*
X84201809Y-145995038D01*
X83130038Y-147066809D01*
X82550000Y-148467144D01*
X81990000Y-148467144D01*
X81990000Y-138472617D01*
X122483600Y-138472617D01*
X122483600Y-138844583D01*
X122625945Y-139188235D01*
X122888965Y-139451255D01*
X123232617Y-139593600D01*
X123604583Y-139593600D01*
X123948235Y-139451255D01*
X124211255Y-139188235D01*
X124353600Y-138844583D01*
X124353600Y-138472617D01*
X124211255Y-138128965D01*
X123948235Y-137865945D01*
X123604583Y-137723600D01*
X123232617Y-137723600D01*
X122888965Y-137865945D01*
X122625945Y-138128965D01*
X122483600Y-138472617D01*
X81990000Y-138472617D01*
X81990000Y-128682306D01*
X86372000Y-128682306D01*
X86372000Y-129233294D01*
X86582853Y-129742340D01*
X86997860Y-130157347D01*
X87506906Y-130368200D01*
X88057894Y-130368200D01*
X88566940Y-130157347D01*
X88956547Y-129767740D01*
X89167400Y-129258694D01*
X89167400Y-128707706D01*
X88956547Y-128198660D01*
X88541540Y-127783653D01*
X88096719Y-127599403D01*
X88116698Y-127591127D01*
X88257000Y-127450825D01*
X88422702Y-127616527D01*
X88656091Y-127713200D01*
X88908709Y-127713200D01*
X89142098Y-127616527D01*
X89320727Y-127437898D01*
X89417400Y-127204509D01*
X89417400Y-126951891D01*
X89320727Y-126718502D01*
X89142098Y-126539873D01*
X88908709Y-126443200D01*
X88656091Y-126443200D01*
X88422702Y-126539873D01*
X88282400Y-126680175D01*
X88116698Y-126514473D01*
X87883309Y-126417800D01*
X87630691Y-126417800D01*
X87397302Y-126514473D01*
X87218673Y-126693102D01*
X87122000Y-126926491D01*
X87122000Y-127179109D01*
X87218673Y-127412498D01*
X87397302Y-127591127D01*
X87417281Y-127599403D01*
X86972460Y-127783653D01*
X86582853Y-128173260D01*
X86372000Y-128682306D01*
X81990000Y-128682306D01*
X81990000Y-125583950D01*
X84567400Y-125583950D01*
X84567400Y-125754509D01*
X84664073Y-125987898D01*
X84842701Y-126166527D01*
X85076090Y-126263200D01*
X85591650Y-126263200D01*
X85750400Y-126104450D01*
X85750400Y-125425200D01*
X86004400Y-125425200D01*
X86004400Y-126104450D01*
X86163150Y-126263200D01*
X86678710Y-126263200D01*
X86912099Y-126166527D01*
X87090727Y-125987898D01*
X87187400Y-125754509D01*
X87187400Y-125583950D01*
X88377400Y-125583950D01*
X88377400Y-125754509D01*
X88474073Y-125987898D01*
X88652701Y-126166527D01*
X88886090Y-126263200D01*
X89401650Y-126263200D01*
X89560400Y-126104450D01*
X89560400Y-125425200D01*
X89814400Y-125425200D01*
X89814400Y-126104450D01*
X89973150Y-126263200D01*
X90488710Y-126263200D01*
X90722099Y-126166527D01*
X90900727Y-125987898D01*
X90997400Y-125754509D01*
X90997400Y-125583950D01*
X90838650Y-125425200D01*
X89814400Y-125425200D01*
X89560400Y-125425200D01*
X88536150Y-125425200D01*
X88377400Y-125583950D01*
X87187400Y-125583950D01*
X87028650Y-125425200D01*
X86004400Y-125425200D01*
X85750400Y-125425200D01*
X84726150Y-125425200D01*
X84567400Y-125583950D01*
X81990000Y-125583950D01*
X81990000Y-123698200D01*
X84554960Y-123698200D01*
X84554960Y-124358200D01*
X84604243Y-124605965D01*
X84641826Y-124662211D01*
X84567400Y-124841891D01*
X84567400Y-125012450D01*
X84726150Y-125171200D01*
X85750400Y-125171200D01*
X85750400Y-125151200D01*
X86004400Y-125151200D01*
X86004400Y-125171200D01*
X87028650Y-125171200D01*
X87187400Y-125012450D01*
X87187400Y-124841891D01*
X87112974Y-124662211D01*
X87150557Y-124605965D01*
X87199840Y-124358200D01*
X87199840Y-123698200D01*
X88364960Y-123698200D01*
X88364960Y-124358200D01*
X88414243Y-124605965D01*
X88451826Y-124662211D01*
X88377400Y-124841891D01*
X88377400Y-125012450D01*
X88536150Y-125171200D01*
X89560400Y-125171200D01*
X89560400Y-125151200D01*
X89814400Y-125151200D01*
X89814400Y-125171200D01*
X90838650Y-125171200D01*
X90997400Y-125012450D01*
X90997400Y-124841891D01*
X90922974Y-124662211D01*
X90960557Y-124605965D01*
X91009840Y-124358200D01*
X91009840Y-123698200D01*
X90960557Y-123450435D01*
X90922974Y-123394189D01*
X90997400Y-123214509D01*
X90997400Y-123043950D01*
X90838650Y-122885200D01*
X89814400Y-122885200D01*
X89814400Y-122905200D01*
X89560400Y-122905200D01*
X89560400Y-122885200D01*
X88536150Y-122885200D01*
X88377400Y-123043950D01*
X88377400Y-123214509D01*
X88451826Y-123394189D01*
X88414243Y-123450435D01*
X88364960Y-123698200D01*
X87199840Y-123698200D01*
X87150557Y-123450435D01*
X87112974Y-123394189D01*
X87187400Y-123214509D01*
X87187400Y-123043950D01*
X87028650Y-122885200D01*
X86004400Y-122885200D01*
X86004400Y-122905200D01*
X85750400Y-122905200D01*
X85750400Y-122885200D01*
X84726150Y-122885200D01*
X84567400Y-123043950D01*
X84567400Y-123214509D01*
X84641826Y-123394189D01*
X84604243Y-123450435D01*
X84554960Y-123698200D01*
X81990000Y-123698200D01*
X81990000Y-121158200D01*
X84554960Y-121158200D01*
X84554960Y-121818200D01*
X84604243Y-122065965D01*
X84641826Y-122122211D01*
X84567400Y-122301891D01*
X84567400Y-122472450D01*
X84726150Y-122631200D01*
X85750400Y-122631200D01*
X85750400Y-122611200D01*
X86004400Y-122611200D01*
X86004400Y-122631200D01*
X87028650Y-122631200D01*
X87187400Y-122472450D01*
X87187400Y-122301891D01*
X87112974Y-122122211D01*
X87150557Y-122065965D01*
X87199840Y-121818200D01*
X87199840Y-121158200D01*
X88364960Y-121158200D01*
X88364960Y-121818200D01*
X88414243Y-122065965D01*
X88451826Y-122122211D01*
X88377400Y-122301891D01*
X88377400Y-122472450D01*
X88536150Y-122631200D01*
X89560400Y-122631200D01*
X89560400Y-122611200D01*
X89814400Y-122611200D01*
X89814400Y-122631200D01*
X90838650Y-122631200D01*
X90997400Y-122472450D01*
X90997400Y-122301891D01*
X90922974Y-122122211D01*
X90960557Y-122065965D01*
X91009840Y-121818200D01*
X91009840Y-121158200D01*
X90960557Y-120910435D01*
X90922974Y-120854189D01*
X90997400Y-120674509D01*
X90997400Y-120503950D01*
X90838650Y-120345200D01*
X89814400Y-120345200D01*
X89814400Y-120365200D01*
X89560400Y-120365200D01*
X89560400Y-120345200D01*
X88536150Y-120345200D01*
X88377400Y-120503950D01*
X88377400Y-120674509D01*
X88451826Y-120854189D01*
X88414243Y-120910435D01*
X88364960Y-121158200D01*
X87199840Y-121158200D01*
X87150557Y-120910435D01*
X87112974Y-120854189D01*
X87187400Y-120674509D01*
X87187400Y-120503950D01*
X87028650Y-120345200D01*
X86004400Y-120345200D01*
X86004400Y-120365200D01*
X85750400Y-120365200D01*
X85750400Y-120345200D01*
X84726150Y-120345200D01*
X84567400Y-120503950D01*
X84567400Y-120674509D01*
X84641826Y-120854189D01*
X84604243Y-120910435D01*
X84554960Y-121158200D01*
X81990000Y-121158200D01*
X81990000Y-118618200D01*
X84554960Y-118618200D01*
X84554960Y-119278200D01*
X84604243Y-119525965D01*
X84641826Y-119582211D01*
X84567400Y-119761891D01*
X84567400Y-119932450D01*
X84726150Y-120091200D01*
X85750400Y-120091200D01*
X85750400Y-120071200D01*
X86004400Y-120071200D01*
X86004400Y-120091200D01*
X87028650Y-120091200D01*
X87187400Y-119932450D01*
X87187400Y-119761891D01*
X87112974Y-119582211D01*
X87150557Y-119525965D01*
X87199840Y-119278200D01*
X87199840Y-118618200D01*
X88364960Y-118618200D01*
X88364960Y-119278200D01*
X88414243Y-119525965D01*
X88451826Y-119582211D01*
X88377400Y-119761891D01*
X88377400Y-119932450D01*
X88536150Y-120091200D01*
X89560400Y-120091200D01*
X89560400Y-120071200D01*
X89814400Y-120071200D01*
X89814400Y-120091200D01*
X90838650Y-120091200D01*
X90997400Y-119932450D01*
X90997400Y-119761891D01*
X90922974Y-119582211D01*
X90960557Y-119525965D01*
X91009840Y-119278200D01*
X91009840Y-118618200D01*
X90960557Y-118370435D01*
X90922974Y-118314189D01*
X90997400Y-118134509D01*
X90997400Y-117963950D01*
X90838650Y-117805200D01*
X89814400Y-117805200D01*
X89814400Y-117825200D01*
X89560400Y-117825200D01*
X89560400Y-117805200D01*
X88536150Y-117805200D01*
X88377400Y-117963950D01*
X88377400Y-118134509D01*
X88451826Y-118314189D01*
X88414243Y-118370435D01*
X88364960Y-118618200D01*
X87199840Y-118618200D01*
X87150557Y-118370435D01*
X87112974Y-118314189D01*
X87187400Y-118134509D01*
X87187400Y-117963950D01*
X87028650Y-117805200D01*
X86004400Y-117805200D01*
X86004400Y-117825200D01*
X85750400Y-117825200D01*
X85750400Y-117805200D01*
X84726150Y-117805200D01*
X84567400Y-117963950D01*
X84567400Y-118134509D01*
X84641826Y-118314189D01*
X84604243Y-118370435D01*
X84554960Y-118618200D01*
X81990000Y-118618200D01*
X81990000Y-117219800D01*
X83115075Y-117219800D01*
X83185000Y-117233709D01*
X83462028Y-117178605D01*
X83696881Y-117021681D01*
X83853805Y-116786828D01*
X83895000Y-116579726D01*
X83908909Y-116509800D01*
X83895000Y-116439874D01*
X83895000Y-116078200D01*
X84554960Y-116078200D01*
X84554960Y-116738200D01*
X84604243Y-116985965D01*
X84641826Y-117042211D01*
X84567400Y-117221891D01*
X84567400Y-117392450D01*
X84726150Y-117551200D01*
X85750400Y-117551200D01*
X85750400Y-117531200D01*
X86004400Y-117531200D01*
X86004400Y-117551200D01*
X87028650Y-117551200D01*
X87187400Y-117392450D01*
X87187400Y-117221891D01*
X87112974Y-117042211D01*
X87150557Y-116985965D01*
X87199840Y-116738200D01*
X87199840Y-116078200D01*
X88364960Y-116078200D01*
X88364960Y-116738200D01*
X88414243Y-116985965D01*
X88451826Y-117042211D01*
X88377400Y-117221891D01*
X88377400Y-117392450D01*
X88536150Y-117551200D01*
X89560400Y-117551200D01*
X89560400Y-117531200D01*
X89814400Y-117531200D01*
X89814400Y-117551200D01*
X90838650Y-117551200D01*
X90997400Y-117392450D01*
X90997400Y-117221891D01*
X90922974Y-117042211D01*
X90960557Y-116985965D01*
X91009840Y-116738200D01*
X91009840Y-116078200D01*
X90960557Y-115830435D01*
X90922974Y-115774189D01*
X90997400Y-115594509D01*
X90997400Y-115423950D01*
X90838650Y-115265200D01*
X89814400Y-115265200D01*
X89814400Y-115285200D01*
X89560400Y-115285200D01*
X89560400Y-115265200D01*
X88536150Y-115265200D01*
X88377400Y-115423950D01*
X88377400Y-115594509D01*
X88451826Y-115774189D01*
X88414243Y-115830435D01*
X88364960Y-116078200D01*
X87199840Y-116078200D01*
X87150557Y-115830435D01*
X87112974Y-115774189D01*
X87187400Y-115594509D01*
X87187400Y-115423950D01*
X87028650Y-115265200D01*
X86004400Y-115265200D01*
X86004400Y-115285200D01*
X85750400Y-115285200D01*
X85750400Y-115265200D01*
X84726150Y-115265200D01*
X84567400Y-115423950D01*
X84567400Y-115594509D01*
X84641826Y-115774189D01*
X84604243Y-115830435D01*
X84554960Y-116078200D01*
X83895000Y-116078200D01*
X83895000Y-113538200D01*
X84554960Y-113538200D01*
X84554960Y-114198200D01*
X84604243Y-114445965D01*
X84641826Y-114502211D01*
X84567400Y-114681891D01*
X84567400Y-114852450D01*
X84726150Y-115011200D01*
X85750400Y-115011200D01*
X85750400Y-114991200D01*
X86004400Y-114991200D01*
X86004400Y-115011200D01*
X87028650Y-115011200D01*
X87187400Y-114852450D01*
X87187400Y-114681891D01*
X87112974Y-114502211D01*
X87150557Y-114445965D01*
X87199840Y-114198200D01*
X87199840Y-113538200D01*
X88364960Y-113538200D01*
X88364960Y-114198200D01*
X88414243Y-114445965D01*
X88451826Y-114502211D01*
X88377400Y-114681891D01*
X88377400Y-114852450D01*
X88536150Y-115011200D01*
X89560400Y-115011200D01*
X89560400Y-114991200D01*
X89814400Y-114991200D01*
X89814400Y-115011200D01*
X90838650Y-115011200D01*
X90997400Y-114852450D01*
X90997400Y-114681891D01*
X90922974Y-114502211D01*
X90960557Y-114445965D01*
X91009840Y-114198200D01*
X91009840Y-113538200D01*
X90960557Y-113290435D01*
X90922974Y-113234189D01*
X90997400Y-113054509D01*
X90997400Y-112883950D01*
X90838650Y-112725200D01*
X89814400Y-112725200D01*
X89814400Y-112745200D01*
X89560400Y-112745200D01*
X89560400Y-112725200D01*
X88536150Y-112725200D01*
X88377400Y-112883950D01*
X88377400Y-113054509D01*
X88451826Y-113234189D01*
X88414243Y-113290435D01*
X88364960Y-113538200D01*
X87199840Y-113538200D01*
X87150557Y-113290435D01*
X87112974Y-113234189D01*
X87187400Y-113054509D01*
X87187400Y-112883950D01*
X87028650Y-112725200D01*
X86004400Y-112725200D01*
X86004400Y-112745200D01*
X85750400Y-112745200D01*
X85750400Y-112725200D01*
X84726150Y-112725200D01*
X84567400Y-112883950D01*
X84567400Y-113054509D01*
X84641826Y-113234189D01*
X84604243Y-113290435D01*
X84554960Y-113538200D01*
X83895000Y-113538200D01*
X83895000Y-100838200D01*
X84554960Y-100838200D01*
X84554960Y-101498200D01*
X84604243Y-101745965D01*
X84641826Y-101802211D01*
X84567400Y-101981891D01*
X84567400Y-102152450D01*
X84726150Y-102311200D01*
X85750400Y-102311200D01*
X85750400Y-102291200D01*
X86004400Y-102291200D01*
X86004400Y-102311200D01*
X86024400Y-102311200D01*
X86024400Y-102565200D01*
X86004400Y-102565200D01*
X86004400Y-102585200D01*
X85750400Y-102585200D01*
X85750400Y-102565200D01*
X84726150Y-102565200D01*
X84567400Y-102723950D01*
X84567400Y-102894509D01*
X84641826Y-103074189D01*
X84604243Y-103130435D01*
X84554960Y-103378200D01*
X84554960Y-104038200D01*
X84604243Y-104285965D01*
X84641826Y-104342211D01*
X84567400Y-104521891D01*
X84567400Y-104692450D01*
X84726150Y-104851200D01*
X85750400Y-104851200D01*
X85750400Y-104831200D01*
X86004400Y-104831200D01*
X86004400Y-104851200D01*
X86024400Y-104851200D01*
X86024400Y-105105200D01*
X86004400Y-105105200D01*
X86004400Y-105125200D01*
X85750400Y-105125200D01*
X85750400Y-105105200D01*
X84726150Y-105105200D01*
X84567400Y-105263950D01*
X84567400Y-105434509D01*
X84641826Y-105614189D01*
X84604243Y-105670435D01*
X84554960Y-105918200D01*
X84554960Y-106578200D01*
X84604243Y-106825965D01*
X84641826Y-106882211D01*
X84567400Y-107061891D01*
X84567400Y-107232450D01*
X84726150Y-107391200D01*
X85750400Y-107391200D01*
X85750400Y-107371200D01*
X86004400Y-107371200D01*
X86004400Y-107391200D01*
X87028650Y-107391200D01*
X87187400Y-107232450D01*
X87187400Y-107061891D01*
X87112974Y-106882211D01*
X87150557Y-106825965D01*
X87199840Y-106578200D01*
X87199840Y-105918200D01*
X87193793Y-105887800D01*
X87333383Y-105887800D01*
X87677035Y-105745455D01*
X87782400Y-105640090D01*
X87887765Y-105745455D01*
X88231417Y-105887800D01*
X88371007Y-105887800D01*
X88364960Y-105918200D01*
X88364960Y-106578200D01*
X88414243Y-106825965D01*
X88451826Y-106882211D01*
X88377400Y-107061891D01*
X88377400Y-107232450D01*
X88536150Y-107391200D01*
X89560400Y-107391200D01*
X89560400Y-107371200D01*
X89814400Y-107371200D01*
X89814400Y-107391200D01*
X89834400Y-107391200D01*
X89834400Y-107645200D01*
X89814400Y-107645200D01*
X89814400Y-107665200D01*
X89560400Y-107665200D01*
X89560400Y-107645200D01*
X88536150Y-107645200D01*
X88377400Y-107803950D01*
X88377400Y-107853200D01*
X88206017Y-107853200D01*
X87862365Y-107995545D01*
X87757000Y-108100910D01*
X87651635Y-107995545D01*
X87307983Y-107853200D01*
X87187400Y-107853200D01*
X87187400Y-107803950D01*
X87028650Y-107645200D01*
X86004400Y-107645200D01*
X86004400Y-107665200D01*
X85750400Y-107665200D01*
X85750400Y-107645200D01*
X84726150Y-107645200D01*
X84567400Y-107803950D01*
X84567400Y-107974509D01*
X84641826Y-108154189D01*
X84604243Y-108210435D01*
X84554960Y-108458200D01*
X84554960Y-109118200D01*
X84604243Y-109365965D01*
X84641826Y-109422211D01*
X84567400Y-109601891D01*
X84567400Y-109772450D01*
X84726150Y-109931200D01*
X85750400Y-109931200D01*
X85750400Y-109911200D01*
X86004400Y-109911200D01*
X86004400Y-109931200D01*
X87028650Y-109931200D01*
X87187400Y-109772450D01*
X87187400Y-109723200D01*
X87307983Y-109723200D01*
X87651635Y-109580855D01*
X87757000Y-109475490D01*
X87862365Y-109580855D01*
X88206017Y-109723200D01*
X88377400Y-109723200D01*
X88377400Y-109772450D01*
X88536150Y-109931200D01*
X89560400Y-109931200D01*
X89560400Y-109911200D01*
X89814400Y-109911200D01*
X89814400Y-109931200D01*
X89834400Y-109931200D01*
X89834400Y-110185200D01*
X89814400Y-110185200D01*
X89814400Y-110205200D01*
X89560400Y-110205200D01*
X89560400Y-110185200D01*
X88536150Y-110185200D01*
X88377400Y-110343950D01*
X88377400Y-110367800D01*
X88256817Y-110367800D01*
X87913165Y-110510145D01*
X87795100Y-110628210D01*
X87677035Y-110510145D01*
X87333383Y-110367800D01*
X87187400Y-110367800D01*
X87187400Y-110343950D01*
X87028650Y-110185200D01*
X86004400Y-110185200D01*
X86004400Y-110205200D01*
X85750400Y-110205200D01*
X85750400Y-110185200D01*
X84726150Y-110185200D01*
X84567400Y-110343950D01*
X84567400Y-110514509D01*
X84641826Y-110694189D01*
X84604243Y-110750435D01*
X84554960Y-110998200D01*
X84554960Y-111658200D01*
X84604243Y-111905965D01*
X84641826Y-111962211D01*
X84567400Y-112141891D01*
X84567400Y-112312450D01*
X84726150Y-112471200D01*
X85750400Y-112471200D01*
X85750400Y-112451200D01*
X86004400Y-112451200D01*
X86004400Y-112471200D01*
X87028650Y-112471200D01*
X87187400Y-112312450D01*
X87187400Y-112237800D01*
X87333383Y-112237800D01*
X87677035Y-112095455D01*
X87795100Y-111977390D01*
X87913165Y-112095455D01*
X88256817Y-112237800D01*
X88377400Y-112237800D01*
X88377400Y-112312450D01*
X88536150Y-112471200D01*
X89560400Y-112471200D01*
X89560400Y-112451200D01*
X89814400Y-112451200D01*
X89814400Y-112471200D01*
X90838650Y-112471200D01*
X90997400Y-112312450D01*
X90997400Y-112141891D01*
X90922974Y-111962211D01*
X90960557Y-111905965D01*
X91009840Y-111658200D01*
X91009840Y-110998200D01*
X91007358Y-110985720D01*
X91025417Y-110993200D01*
X91397383Y-110993200D01*
X91741035Y-110850855D01*
X92004055Y-110587835D01*
X92146400Y-110244183D01*
X92146400Y-110096402D01*
X92280073Y-109962729D01*
X92343529Y-109920329D01*
X92446889Y-109765640D01*
X92511504Y-109668938D01*
X92524840Y-109601891D01*
X92555600Y-109447252D01*
X92555600Y-109447248D01*
X92570488Y-109372400D01*
X92555600Y-109297552D01*
X92555600Y-106900417D01*
X134523200Y-106900417D01*
X134523200Y-107272383D01*
X134665545Y-107616035D01*
X134928565Y-107879055D01*
X135272217Y-108021400D01*
X135644183Y-108021400D01*
X135987835Y-107879055D01*
X136250855Y-107616035D01*
X136393200Y-107272383D01*
X136393200Y-106900417D01*
X136250855Y-106556765D01*
X135987835Y-106293745D01*
X135644183Y-106151400D01*
X135272217Y-106151400D01*
X134928565Y-106293745D01*
X134665545Y-106556765D01*
X134523200Y-106900417D01*
X92555600Y-106900417D01*
X92555600Y-104694000D01*
X92794383Y-104694000D01*
X93138035Y-104551655D01*
X93401055Y-104288635D01*
X93543400Y-103944983D01*
X93543400Y-103573017D01*
X93401055Y-103229365D01*
X93138035Y-102966345D01*
X92794383Y-102824000D01*
X92422417Y-102824000D01*
X92078765Y-102966345D01*
X92046110Y-102999000D01*
X91870452Y-102999000D01*
X91795600Y-102984111D01*
X91720748Y-102999000D01*
X91499063Y-103043096D01*
X91247671Y-103211071D01*
X91079696Y-103462463D01*
X91020711Y-103759000D01*
X91035600Y-103833852D01*
X91035600Y-105480751D01*
X90998201Y-105473312D01*
X90979812Y-105476970D01*
X90997400Y-105434509D01*
X90997400Y-105263950D01*
X90838650Y-105105200D01*
X89814400Y-105105200D01*
X89814400Y-105125200D01*
X89560400Y-105125200D01*
X89560400Y-105105200D01*
X89540400Y-105105200D01*
X89540400Y-104851200D01*
X89560400Y-104851200D01*
X89560400Y-104831200D01*
X89814400Y-104831200D01*
X89814400Y-104851200D01*
X90838650Y-104851200D01*
X90997400Y-104692450D01*
X90997400Y-104521891D01*
X90922974Y-104342211D01*
X90960557Y-104285965D01*
X91009840Y-104038200D01*
X91009840Y-103378200D01*
X90960557Y-103130435D01*
X90922974Y-103074189D01*
X90997400Y-102894509D01*
X90997400Y-102723950D01*
X90838650Y-102565200D01*
X89814400Y-102565200D01*
X89814400Y-102585200D01*
X89560400Y-102585200D01*
X89560400Y-102565200D01*
X89540400Y-102565200D01*
X89540400Y-102311200D01*
X89560400Y-102311200D01*
X89560400Y-102291200D01*
X89814400Y-102291200D01*
X89814400Y-102311200D01*
X90838650Y-102311200D01*
X90997400Y-102152450D01*
X90997400Y-101981891D01*
X90922974Y-101802211D01*
X90960557Y-101745965D01*
X91009840Y-101498200D01*
X91009840Y-100838200D01*
X90960557Y-100590435D01*
X90922974Y-100534189D01*
X90997400Y-100354509D01*
X90997400Y-100183950D01*
X90838650Y-100025200D01*
X89814400Y-100025200D01*
X89814400Y-100045200D01*
X89560400Y-100045200D01*
X89560400Y-100025200D01*
X88536150Y-100025200D01*
X88377400Y-100183950D01*
X88377400Y-100354509D01*
X88451826Y-100534189D01*
X88414243Y-100590435D01*
X88364960Y-100838200D01*
X88364960Y-101477800D01*
X88104417Y-101477800D01*
X87760765Y-101620145D01*
X87718900Y-101662010D01*
X87677035Y-101620145D01*
X87333383Y-101477800D01*
X87199840Y-101477800D01*
X87199840Y-100838200D01*
X87150557Y-100590435D01*
X87112974Y-100534189D01*
X87187400Y-100354509D01*
X87187400Y-100183950D01*
X87028650Y-100025200D01*
X86004400Y-100025200D01*
X86004400Y-100045200D01*
X85750400Y-100045200D01*
X85750400Y-100025200D01*
X84726150Y-100025200D01*
X84567400Y-100183950D01*
X84567400Y-100354509D01*
X84641826Y-100534189D01*
X84604243Y-100590435D01*
X84554960Y-100838200D01*
X83895000Y-100838200D01*
X83895000Y-98298200D01*
X84554960Y-98298200D01*
X84554960Y-98958200D01*
X84604243Y-99205965D01*
X84641826Y-99262211D01*
X84567400Y-99441891D01*
X84567400Y-99612450D01*
X84726150Y-99771200D01*
X85750400Y-99771200D01*
X85750400Y-99751200D01*
X86004400Y-99751200D01*
X86004400Y-99771200D01*
X87028650Y-99771200D01*
X87187400Y-99612450D01*
X87187400Y-99441891D01*
X87112974Y-99262211D01*
X87150557Y-99205965D01*
X87199840Y-98958200D01*
X87199840Y-98298200D01*
X88364960Y-98298200D01*
X88364960Y-98958200D01*
X88414243Y-99205965D01*
X88451826Y-99262211D01*
X88377400Y-99441891D01*
X88377400Y-99612450D01*
X88536150Y-99771200D01*
X89560400Y-99771200D01*
X89560400Y-99751200D01*
X89814400Y-99751200D01*
X89814400Y-99771200D01*
X90838650Y-99771200D01*
X90997400Y-99612450D01*
X90997400Y-99441891D01*
X90922974Y-99262211D01*
X90960557Y-99205965D01*
X91009840Y-98958200D01*
X91009840Y-98298200D01*
X90960557Y-98050435D01*
X90922974Y-97994189D01*
X90997400Y-97814509D01*
X90997400Y-97643950D01*
X90838650Y-97485200D01*
X89814400Y-97485200D01*
X89814400Y-97505200D01*
X89560400Y-97505200D01*
X89560400Y-97485200D01*
X88536150Y-97485200D01*
X88377400Y-97643950D01*
X88377400Y-97814509D01*
X88451826Y-97994189D01*
X88414243Y-98050435D01*
X88364960Y-98298200D01*
X87199840Y-98298200D01*
X87150557Y-98050435D01*
X87112974Y-97994189D01*
X87187400Y-97814509D01*
X87187400Y-97643950D01*
X87028650Y-97485200D01*
X86004400Y-97485200D01*
X86004400Y-97505200D01*
X85750400Y-97505200D01*
X85750400Y-97485200D01*
X84726150Y-97485200D01*
X84567400Y-97643950D01*
X84567400Y-97814509D01*
X84641826Y-97994189D01*
X84604243Y-98050435D01*
X84554960Y-98298200D01*
X83895000Y-98298200D01*
X83895000Y-96285126D01*
X83908909Y-96215200D01*
X83853805Y-95938172D01*
X83733552Y-95758200D01*
X84554960Y-95758200D01*
X84554960Y-96418200D01*
X84604243Y-96665965D01*
X84641826Y-96722211D01*
X84567400Y-96901891D01*
X84567400Y-97072450D01*
X84726150Y-97231200D01*
X85750400Y-97231200D01*
X85750400Y-97211200D01*
X86004400Y-97211200D01*
X86004400Y-97231200D01*
X87028650Y-97231200D01*
X87187400Y-97072450D01*
X87187400Y-96901891D01*
X87112974Y-96722211D01*
X87150557Y-96665965D01*
X87199840Y-96418200D01*
X87199840Y-95758200D01*
X88364960Y-95758200D01*
X88364960Y-96418200D01*
X88414243Y-96665965D01*
X88451826Y-96722211D01*
X88377400Y-96901891D01*
X88377400Y-97072450D01*
X88536150Y-97231200D01*
X89560400Y-97231200D01*
X89560400Y-97211200D01*
X89814400Y-97211200D01*
X89814400Y-97231200D01*
X90838650Y-97231200D01*
X90997400Y-97072450D01*
X90997400Y-96901891D01*
X90922974Y-96722211D01*
X90960557Y-96665965D01*
X91009840Y-96418200D01*
X91009840Y-95758200D01*
X90960557Y-95510435D01*
X90922974Y-95454189D01*
X90997400Y-95274509D01*
X90997400Y-95103950D01*
X90838650Y-94945200D01*
X89814400Y-94945200D01*
X89814400Y-94965200D01*
X89560400Y-94965200D01*
X89560400Y-94945200D01*
X88536150Y-94945200D01*
X88377400Y-95103950D01*
X88377400Y-95274509D01*
X88451826Y-95454189D01*
X88414243Y-95510435D01*
X88364960Y-95758200D01*
X87199840Y-95758200D01*
X87150557Y-95510435D01*
X87112974Y-95454189D01*
X87187400Y-95274509D01*
X87187400Y-95103950D01*
X87028650Y-94945200D01*
X86004400Y-94945200D01*
X86004400Y-94965200D01*
X85750400Y-94965200D01*
X85750400Y-94945200D01*
X84726150Y-94945200D01*
X84567400Y-95103950D01*
X84567400Y-95274509D01*
X84641826Y-95454189D01*
X84604243Y-95510435D01*
X84554960Y-95758200D01*
X83733552Y-95758200D01*
X83696881Y-95703319D01*
X83462028Y-95546395D01*
X83254926Y-95505200D01*
X83254925Y-95505200D01*
X83185000Y-95491291D01*
X83115074Y-95505200D01*
X81990000Y-95505200D01*
X81990000Y-93218200D01*
X84554960Y-93218200D01*
X84554960Y-93878200D01*
X84604243Y-94125965D01*
X84641826Y-94182211D01*
X84567400Y-94361891D01*
X84567400Y-94532450D01*
X84726150Y-94691200D01*
X85750400Y-94691200D01*
X85750400Y-94671200D01*
X86004400Y-94671200D01*
X86004400Y-94691200D01*
X87028650Y-94691200D01*
X87187400Y-94532450D01*
X87187400Y-94361891D01*
X87112974Y-94182211D01*
X87150557Y-94125965D01*
X87199840Y-93878200D01*
X87199840Y-93218200D01*
X88364960Y-93218200D01*
X88364960Y-93878200D01*
X88414243Y-94125965D01*
X88451826Y-94182211D01*
X88377400Y-94361891D01*
X88377400Y-94532450D01*
X88536150Y-94691200D01*
X89560400Y-94691200D01*
X89560400Y-94671200D01*
X89814400Y-94671200D01*
X89814400Y-94691200D01*
X90838650Y-94691200D01*
X90997400Y-94532450D01*
X90997400Y-94361891D01*
X90922974Y-94182211D01*
X90960557Y-94125965D01*
X91009840Y-93878200D01*
X91009840Y-93218200D01*
X90960557Y-92970435D01*
X90922974Y-92914189D01*
X90997400Y-92734509D01*
X90997400Y-92563950D01*
X90838650Y-92405200D01*
X89814400Y-92405200D01*
X89814400Y-92425200D01*
X89560400Y-92425200D01*
X89560400Y-92405200D01*
X88536150Y-92405200D01*
X88377400Y-92563950D01*
X88377400Y-92734509D01*
X88451826Y-92914189D01*
X88414243Y-92970435D01*
X88364960Y-93218200D01*
X87199840Y-93218200D01*
X87150557Y-92970435D01*
X87112974Y-92914189D01*
X87187400Y-92734509D01*
X87187400Y-92563950D01*
X87028650Y-92405200D01*
X86004400Y-92405200D01*
X86004400Y-92425200D01*
X85750400Y-92425200D01*
X85750400Y-92405200D01*
X84726150Y-92405200D01*
X84567400Y-92563950D01*
X84567400Y-92734509D01*
X84641826Y-92914189D01*
X84604243Y-92970435D01*
X84554960Y-93218200D01*
X81990000Y-93218200D01*
X81990000Y-90678200D01*
X84554960Y-90678200D01*
X84554960Y-91338200D01*
X84604243Y-91585965D01*
X84641826Y-91642211D01*
X84567400Y-91821891D01*
X84567400Y-91992450D01*
X84726150Y-92151200D01*
X85750400Y-92151200D01*
X85750400Y-92131200D01*
X86004400Y-92131200D01*
X86004400Y-92151200D01*
X87028650Y-92151200D01*
X87187400Y-91992450D01*
X87187400Y-91821891D01*
X87112974Y-91642211D01*
X87150557Y-91585965D01*
X87199840Y-91338200D01*
X87199840Y-90678200D01*
X88364960Y-90678200D01*
X88364960Y-91338200D01*
X88414243Y-91585965D01*
X88451826Y-91642211D01*
X88377400Y-91821891D01*
X88377400Y-91992450D01*
X88536150Y-92151200D01*
X89560400Y-92151200D01*
X89560400Y-92131200D01*
X89814400Y-92131200D01*
X89814400Y-92151200D01*
X90838650Y-92151200D01*
X90997400Y-91992450D01*
X90997400Y-91821891D01*
X90922974Y-91642211D01*
X90960557Y-91585965D01*
X91009840Y-91338200D01*
X91009840Y-90678200D01*
X90960557Y-90430435D01*
X90922974Y-90374189D01*
X90997400Y-90194509D01*
X90997400Y-90023950D01*
X90838650Y-89865200D01*
X89814400Y-89865200D01*
X89814400Y-89885200D01*
X89560400Y-89885200D01*
X89560400Y-89865200D01*
X88536150Y-89865200D01*
X88377400Y-90023950D01*
X88377400Y-90194509D01*
X88451826Y-90374189D01*
X88414243Y-90430435D01*
X88364960Y-90678200D01*
X87199840Y-90678200D01*
X87150557Y-90430435D01*
X87112974Y-90374189D01*
X87187400Y-90194509D01*
X87187400Y-90023950D01*
X87028650Y-89865200D01*
X86004400Y-89865200D01*
X86004400Y-89885200D01*
X85750400Y-89885200D01*
X85750400Y-89865200D01*
X84726150Y-89865200D01*
X84567400Y-90023950D01*
X84567400Y-90194509D01*
X84641826Y-90374189D01*
X84604243Y-90430435D01*
X84554960Y-90678200D01*
X81990000Y-90678200D01*
X81990000Y-88753950D01*
X84567400Y-88753950D01*
X84567400Y-88924509D01*
X84641416Y-89103200D01*
X84567400Y-89281891D01*
X84567400Y-89452450D01*
X84726150Y-89611200D01*
X85750400Y-89611200D01*
X85750400Y-88595200D01*
X86004400Y-88595200D01*
X86004400Y-89611200D01*
X87028650Y-89611200D01*
X87187400Y-89452450D01*
X87187400Y-89281891D01*
X87113384Y-89103200D01*
X87187400Y-88924509D01*
X87187400Y-88753950D01*
X88377400Y-88753950D01*
X88377400Y-88924509D01*
X88451416Y-89103200D01*
X88377400Y-89281891D01*
X88377400Y-89452450D01*
X88536150Y-89611200D01*
X89560400Y-89611200D01*
X89560400Y-88595200D01*
X89814400Y-88595200D01*
X89814400Y-89611200D01*
X90838650Y-89611200D01*
X90997400Y-89452450D01*
X90997400Y-89281891D01*
X90923384Y-89103200D01*
X90997400Y-88924509D01*
X90997400Y-88753950D01*
X90838650Y-88595200D01*
X89814400Y-88595200D01*
X89560400Y-88595200D01*
X88536150Y-88595200D01*
X88377400Y-88753950D01*
X87187400Y-88753950D01*
X87028650Y-88595200D01*
X86004400Y-88595200D01*
X85750400Y-88595200D01*
X84726150Y-88595200D01*
X84567400Y-88753950D01*
X81990000Y-88753950D01*
X81990000Y-88011891D01*
X84567400Y-88011891D01*
X84567400Y-88182450D01*
X84726150Y-88341200D01*
X85750400Y-88341200D01*
X85750400Y-87661950D01*
X86004400Y-87661950D01*
X86004400Y-88341200D01*
X87028650Y-88341200D01*
X87187400Y-88182450D01*
X87187400Y-88011891D01*
X88377400Y-88011891D01*
X88377400Y-88182450D01*
X88536150Y-88341200D01*
X89560400Y-88341200D01*
X89560400Y-87661950D01*
X89814400Y-87661950D01*
X89814400Y-88341200D01*
X90838650Y-88341200D01*
X90997400Y-88182450D01*
X90997400Y-88011891D01*
X90900727Y-87778502D01*
X90722099Y-87599873D01*
X90488710Y-87503200D01*
X89973150Y-87503200D01*
X89814400Y-87661950D01*
X89560400Y-87661950D01*
X89401650Y-87503200D01*
X88886090Y-87503200D01*
X88652701Y-87599873D01*
X88474073Y-87778502D01*
X88377400Y-88011891D01*
X87187400Y-88011891D01*
X87090727Y-87778502D01*
X86912099Y-87599873D01*
X86678710Y-87503200D01*
X86163150Y-87503200D01*
X86004400Y-87661950D01*
X85750400Y-87661950D01*
X85591650Y-87503200D01*
X85076090Y-87503200D01*
X84842701Y-87599873D01*
X84664073Y-87778502D01*
X84567400Y-88011891D01*
X81990000Y-88011891D01*
X81990000Y-84482306D01*
X86372000Y-84482306D01*
X86372000Y-85033294D01*
X86582853Y-85542340D01*
X86997860Y-85957347D01*
X87442681Y-86141597D01*
X87422702Y-86149873D01*
X87244073Y-86328502D01*
X87147400Y-86561891D01*
X87147400Y-86814509D01*
X87244073Y-87047898D01*
X87422702Y-87226527D01*
X87656091Y-87323200D01*
X87908709Y-87323200D01*
X88142098Y-87226527D01*
X88282400Y-87086225D01*
X88397302Y-87201127D01*
X88630691Y-87297800D01*
X88883309Y-87297800D01*
X89116698Y-87201127D01*
X89295327Y-87022498D01*
X89392000Y-86789109D01*
X89392000Y-86536491D01*
X89295327Y-86303102D01*
X89116698Y-86124473D01*
X88883309Y-86027800D01*
X88630691Y-86027800D01*
X88397302Y-86124473D01*
X88257000Y-86264775D01*
X88142098Y-86149873D01*
X88122119Y-86141597D01*
X88566940Y-85957347D01*
X88956547Y-85567740D01*
X89167400Y-85058694D01*
X89167400Y-84507706D01*
X88956547Y-83998660D01*
X88541540Y-83583653D01*
X88032494Y-83372800D01*
X87481506Y-83372800D01*
X86972460Y-83583653D01*
X86582853Y-83973260D01*
X86372000Y-84482306D01*
X81990000Y-84482306D01*
X81990000Y-78274617D01*
X150703000Y-78274617D01*
X150703000Y-78646583D01*
X150845345Y-78990235D01*
X151108365Y-79253255D01*
X151452017Y-79395600D01*
X151823983Y-79395600D01*
X152167635Y-79253255D01*
X152430655Y-78990235D01*
X152573000Y-78646583D01*
X152573000Y-78274617D01*
X152430655Y-77930965D01*
X152167635Y-77667945D01*
X151823983Y-77525600D01*
X151452017Y-77525600D01*
X151108365Y-77667945D01*
X150845345Y-77930965D01*
X150703000Y-78274617D01*
X81990000Y-78274617D01*
X81990000Y-59130000D01*
X116638000Y-59130000D01*
X116638001Y-61271070D01*
G36*
X105544081Y-65913935D02*
X105564081Y-65913935D01*
X105564081Y-66167935D01*
X105544081Y-66167935D01*
X105544081Y-66187935D01*
X105290081Y-66187935D01*
X105290081Y-66167935D01*
X105270081Y-66167935D01*
X105270081Y-65913935D01*
X105290081Y-65913935D01*
X105290081Y-65893935D01*
X105544081Y-65893935D01*
X105544081Y-65913935D01*
X105544081Y-65913935D01*
G37*
X105544081Y-65913935D02*
X105564081Y-65913935D01*
X105564081Y-66167935D01*
X105544081Y-66167935D01*
X105544081Y-66187935D01*
X105290081Y-66187935D01*
X105290081Y-66167935D01*
X105270081Y-66167935D01*
X105270081Y-65913935D01*
X105290081Y-65913935D01*
X105290081Y-65893935D01*
X105544081Y-65893935D01*
X105544081Y-65913935D01*
G36*
X115704081Y-65913935D02*
X115724081Y-65913935D01*
X115724081Y-66167935D01*
X115704081Y-66167935D01*
X115704081Y-66187935D01*
X115450081Y-66187935D01*
X115450081Y-66167935D01*
X115430081Y-66167935D01*
X115430081Y-65913935D01*
X115450081Y-65913935D01*
X115450081Y-65893935D01*
X115704081Y-65893935D01*
X115704081Y-65913935D01*
X115704081Y-65913935D01*
G37*
X115704081Y-65913935D02*
X115724081Y-65913935D01*
X115724081Y-66167935D01*
X115704081Y-66167935D01*
X115704081Y-66187935D01*
X115450081Y-66187935D01*
X115450081Y-66167935D01*
X115430081Y-66167935D01*
X115430081Y-65913935D01*
X115450081Y-65913935D01*
X115450081Y-65893935D01*
X115704081Y-65893935D01*
X115704081Y-65913935D01*
G36*
X166168000Y-60449847D02*
X165988191Y-60270038D01*
X164587856Y-59690000D01*
X163072144Y-59690000D01*
X161671809Y-60270038D01*
X160600038Y-61341809D01*
X160026149Y-62727300D01*
X159827706Y-62430310D01*
X159336499Y-62102096D01*
X158903337Y-62015935D01*
X158610825Y-62015935D01*
X158177663Y-62102096D01*
X157686456Y-62430310D01*
X157487081Y-62728696D01*
X157287706Y-62430310D01*
X156796499Y-62102096D01*
X156363337Y-62015935D01*
X156070825Y-62015935D01*
X155637663Y-62102096D01*
X155146456Y-62430310D01*
X154933238Y-62749413D01*
X154872264Y-62619577D01*
X154444005Y-62229290D01*
X154033971Y-62059459D01*
X153804081Y-62180780D01*
X153804081Y-63373935D01*
X153824081Y-63373935D01*
X153824081Y-63627935D01*
X153804081Y-63627935D01*
X153804081Y-65913935D01*
X153824081Y-65913935D01*
X153824081Y-66167935D01*
X153804081Y-66167935D01*
X153804081Y-66187935D01*
X153550081Y-66187935D01*
X153550081Y-66167935D01*
X153530081Y-66167935D01*
X153530081Y-65913935D01*
X153550081Y-65913935D01*
X153550081Y-63627935D01*
X153530081Y-63627935D01*
X153530081Y-63373935D01*
X153550081Y-63373935D01*
X153550081Y-62180780D01*
X153320191Y-62059459D01*
X152910157Y-62229290D01*
X152481898Y-62619577D01*
X152420924Y-62749413D01*
X152207706Y-62430310D01*
X151716499Y-62102096D01*
X151283337Y-62015935D01*
X150990825Y-62015935D01*
X150557663Y-62102096D01*
X150066456Y-62430310D01*
X149867081Y-62728696D01*
X149667706Y-62430310D01*
X149176499Y-62102096D01*
X148743337Y-62015935D01*
X148450825Y-62015935D01*
X148017663Y-62102096D01*
X147526456Y-62430310D01*
X147327081Y-62728696D01*
X147127706Y-62430310D01*
X146636499Y-62102096D01*
X146203337Y-62015935D01*
X145910825Y-62015935D01*
X145477663Y-62102096D01*
X144986456Y-62430310D01*
X144787081Y-62728696D01*
X144587706Y-62430310D01*
X144096499Y-62102096D01*
X143663337Y-62015935D01*
X143370825Y-62015935D01*
X142937663Y-62102096D01*
X142446456Y-62430310D01*
X142247081Y-62728696D01*
X142047706Y-62430310D01*
X141556499Y-62102096D01*
X141123337Y-62015935D01*
X140830825Y-62015935D01*
X140397663Y-62102096D01*
X139906456Y-62430310D01*
X139707081Y-62728696D01*
X139507706Y-62430310D01*
X139016499Y-62102096D01*
X138583337Y-62015935D01*
X138290825Y-62015935D01*
X137857663Y-62102096D01*
X137366456Y-62430310D01*
X137167081Y-62728696D01*
X136967706Y-62430310D01*
X136476499Y-62102096D01*
X136219621Y-62051000D01*
X137598074Y-62051000D01*
X137668000Y-62064909D01*
X137737925Y-62051000D01*
X137737926Y-62051000D01*
X137945028Y-62009805D01*
X138179881Y-61852881D01*
X138336805Y-61618028D01*
X138391909Y-61341000D01*
X138378000Y-61271074D01*
X138378000Y-59130000D01*
X166168000Y-59130000D01*
X166168000Y-60449847D01*
X166168000Y-60449847D01*
G37*
X166168000Y-60449847D02*
X165988191Y-60270038D01*
X164587856Y-59690000D01*
X163072144Y-59690000D01*
X161671809Y-60270038D01*
X160600038Y-61341809D01*
X160026149Y-62727300D01*
X159827706Y-62430310D01*
X159336499Y-62102096D01*
X158903337Y-62015935D01*
X158610825Y-62015935D01*
X158177663Y-62102096D01*
X157686456Y-62430310D01*
X157487081Y-62728696D01*
X157287706Y-62430310D01*
X156796499Y-62102096D01*
X156363337Y-62015935D01*
X156070825Y-62015935D01*
X155637663Y-62102096D01*
X155146456Y-62430310D01*
X154933238Y-62749413D01*
X154872264Y-62619577D01*
X154444005Y-62229290D01*
X154033971Y-62059459D01*
X153804081Y-62180780D01*
X153804081Y-63373935D01*
X153824081Y-63373935D01*
X153824081Y-63627935D01*
X153804081Y-63627935D01*
X153804081Y-65913935D01*
X153824081Y-65913935D01*
X153824081Y-66167935D01*
X153804081Y-66167935D01*
X153804081Y-66187935D01*
X153550081Y-66187935D01*
X153550081Y-66167935D01*
X153530081Y-66167935D01*
X153530081Y-65913935D01*
X153550081Y-65913935D01*
X153550081Y-63627935D01*
X153530081Y-63627935D01*
X153530081Y-63373935D01*
X153550081Y-63373935D01*
X153550081Y-62180780D01*
X153320191Y-62059459D01*
X152910157Y-62229290D01*
X152481898Y-62619577D01*
X152420924Y-62749413D01*
X152207706Y-62430310D01*
X151716499Y-62102096D01*
X151283337Y-62015935D01*
X150990825Y-62015935D01*
X150557663Y-62102096D01*
X150066456Y-62430310D01*
X149867081Y-62728696D01*
X149667706Y-62430310D01*
X149176499Y-62102096D01*
X148743337Y-62015935D01*
X148450825Y-62015935D01*
X148017663Y-62102096D01*
X147526456Y-62430310D01*
X147327081Y-62728696D01*
X147127706Y-62430310D01*
X146636499Y-62102096D01*
X146203337Y-62015935D01*
X145910825Y-62015935D01*
X145477663Y-62102096D01*
X144986456Y-62430310D01*
X144787081Y-62728696D01*
X144587706Y-62430310D01*
X144096499Y-62102096D01*
X143663337Y-62015935D01*
X143370825Y-62015935D01*
X142937663Y-62102096D01*
X142446456Y-62430310D01*
X142247081Y-62728696D01*
X142047706Y-62430310D01*
X141556499Y-62102096D01*
X141123337Y-62015935D01*
X140830825Y-62015935D01*
X140397663Y-62102096D01*
X139906456Y-62430310D01*
X139707081Y-62728696D01*
X139507706Y-62430310D01*
X139016499Y-62102096D01*
X138583337Y-62015935D01*
X138290825Y-62015935D01*
X137857663Y-62102096D01*
X137366456Y-62430310D01*
X137167081Y-62728696D01*
X136967706Y-62430310D01*
X136476499Y-62102096D01*
X136219621Y-62051000D01*
X137598074Y-62051000D01*
X137668000Y-62064909D01*
X137737925Y-62051000D01*
X137737926Y-62051000D01*
X137945028Y-62009805D01*
X138179881Y-61852881D01*
X138336805Y-61618028D01*
X138391909Y-61341000D01*
X138378000Y-61271074D01*
X138378000Y-59130000D01*
X166168000Y-59130000D01*
X166168000Y-60449847D01*
G36*
X120784081Y-63373935D02*
X120804081Y-63373935D01*
X120804081Y-63627935D01*
X120784081Y-63627935D01*
X120784081Y-65913935D01*
X120804081Y-65913935D01*
X120804081Y-66167935D01*
X120784081Y-66167935D01*
X120784081Y-66187935D01*
X120530081Y-66187935D01*
X120530081Y-66167935D01*
X120510081Y-66167935D01*
X120510081Y-65913935D01*
X120530081Y-65913935D01*
X120530081Y-63627935D01*
X120510081Y-63627935D01*
X120510081Y-63373935D01*
X120530081Y-63373935D01*
X120530081Y-63353935D01*
X120784081Y-63353935D01*
X120784081Y-63373935D01*
X120784081Y-63373935D01*
G37*
X120784081Y-63373935D02*
X120804081Y-63373935D01*
X120804081Y-63627935D01*
X120784081Y-63627935D01*
X120784081Y-65913935D01*
X120804081Y-65913935D01*
X120804081Y-66167935D01*
X120784081Y-66167935D01*
X120784081Y-66187935D01*
X120530081Y-66187935D01*
X120530081Y-66167935D01*
X120510081Y-66167935D01*
X120510081Y-65913935D01*
X120530081Y-65913935D01*
X120530081Y-63627935D01*
X120510081Y-63627935D01*
X120510081Y-63373935D01*
X120530081Y-63373935D01*
X120530081Y-63353935D01*
X120784081Y-63353935D01*
X120784081Y-63373935D01*
G36*
X130944081Y-63373935D02*
X133230081Y-63373935D01*
X133230081Y-63353935D01*
X133484081Y-63353935D01*
X133484081Y-63373935D01*
X133504081Y-63373935D01*
X133504081Y-63627935D01*
X133484081Y-63627935D01*
X133484081Y-63647935D01*
X133230081Y-63647935D01*
X133230081Y-63627935D01*
X130944081Y-63627935D01*
X130944081Y-65913935D01*
X130964081Y-65913935D01*
X130964081Y-66167935D01*
X130944081Y-66167935D01*
X130944081Y-66187935D01*
X130690081Y-66187935D01*
X130690081Y-66167935D01*
X130670081Y-66167935D01*
X130670081Y-65913935D01*
X130690081Y-65913935D01*
X130690081Y-63627935D01*
X130670081Y-63627935D01*
X130670081Y-63373935D01*
X130690081Y-63373935D01*
X130690081Y-63353935D01*
X130944081Y-63353935D01*
X130944081Y-63373935D01*
X130944081Y-63373935D01*
G37*
X130944081Y-63373935D02*
X133230081Y-63373935D01*
X133230081Y-63353935D01*
X133484081Y-63353935D01*
X133484081Y-63373935D01*
X133504081Y-63373935D01*
X133504081Y-63627935D01*
X133484081Y-63627935D01*
X133484081Y-63647935D01*
X133230081Y-63647935D01*
X133230081Y-63627935D01*
X130944081Y-63627935D01*
X130944081Y-65913935D01*
X130964081Y-65913935D01*
X130964081Y-66167935D01*
X130944081Y-66167935D01*
X130944081Y-66187935D01*
X130690081Y-66187935D01*
X130690081Y-66167935D01*
X130670081Y-66167935D01*
X130670081Y-65913935D01*
X130690081Y-65913935D01*
X130690081Y-63627935D01*
X130670081Y-63627935D01*
X130670081Y-63373935D01*
X130690081Y-63373935D01*
X130690081Y-63353935D01*
X130944081Y-63353935D01*
X130944081Y-63373935D01*
G36*
X117046456Y-64571560D02*
X117344842Y-64770935D01*
X117046456Y-64970310D01*
X116833238Y-65289413D01*
X116772264Y-65159577D01*
X116347295Y-64772288D01*
X116647706Y-64571560D01*
X116847081Y-64273174D01*
X117046456Y-64571560D01*
X117046456Y-64571560D01*
G37*
X117046456Y-64571560D02*
X117344842Y-64770935D01*
X117046456Y-64970310D01*
X116833238Y-65289413D01*
X116772264Y-65159577D01*
X116347295Y-64772288D01*
X116647706Y-64571560D01*
X116847081Y-64273174D01*
X117046456Y-64571560D01*
G36*
X122126456Y-64571560D02*
X122424842Y-64770935D01*
X122126456Y-64970310D01*
X121913238Y-65289413D01*
X121852264Y-65159577D01*
X121425810Y-64770935D01*
X121852264Y-64382293D01*
X121913238Y-64252457D01*
X122126456Y-64571560D01*
X122126456Y-64571560D01*
G37*
X122126456Y-64571560D02*
X122424842Y-64770935D01*
X122126456Y-64970310D01*
X121913238Y-65289413D01*
X121852264Y-65159577D01*
X121425810Y-64770935D01*
X121852264Y-64382293D01*
X121913238Y-64252457D01*
X122126456Y-64571560D01*
G36*
X129621898Y-64382293D02*
X130048352Y-64770935D01*
X129621898Y-65159577D01*
X129560924Y-65289413D01*
X129347706Y-64970310D01*
X129049320Y-64770935D01*
X129347706Y-64571560D01*
X129560924Y-64252457D01*
X129621898Y-64382293D01*
X129621898Y-64382293D01*
G37*
X129621898Y-64382293D02*
X130048352Y-64770935D01*
X129621898Y-65159577D01*
X129560924Y-65289413D01*
X129347706Y-64970310D01*
X129049320Y-64770935D01*
X129347706Y-64571560D01*
X129560924Y-64252457D01*
X129621898Y-64382293D01*
G36*
X106886456Y-64571560D02*
X107184842Y-64770935D01*
X106886456Y-64970310D01*
X106673238Y-65289413D01*
X106612264Y-65159577D01*
X106187295Y-64772288D01*
X106487706Y-64571560D01*
X106687081Y-64273174D01*
X106886456Y-64571560D01*
X106886456Y-64571560D01*
G37*
X106886456Y-64571560D02*
X107184842Y-64770935D01*
X106886456Y-64970310D01*
X106673238Y-65289413D01*
X106612264Y-65159577D01*
X106187295Y-64772288D01*
X106487706Y-64571560D01*
X106687081Y-64273174D01*
X106886456Y-64571560D01*
G36*
X135317663Y-62102096D02*
X134826456Y-62430310D01*
X134613238Y-62749413D01*
X134552264Y-62619577D01*
X134124005Y-62229290D01*
X133713971Y-62059459D01*
X133484083Y-62180779D01*
X133484083Y-62051000D01*
X135574541Y-62051000D01*
X135317663Y-62102096D01*
X135317663Y-62102096D01*
G37*
X135317663Y-62102096D02*
X134826456Y-62430310D01*
X134613238Y-62749413D01*
X134552264Y-62619577D01*
X134124005Y-62229290D01*
X133713971Y-62059459D01*
X133484083Y-62180779D01*
X133484083Y-62051000D01*
X135574541Y-62051000D01*
X135317663Y-62102096D01*
G36*
X120530079Y-62180779D02*
X120300191Y-62059459D01*
X119890157Y-62229290D01*
X119461898Y-62619577D01*
X119400924Y-62749413D01*
X119187706Y-62430310D01*
X118696499Y-62102096D01*
X118439621Y-62051000D01*
X120530079Y-62051000D01*
X120530079Y-62180779D01*
X120530079Y-62180779D01*
G37*
X120530079Y-62180779D02*
X120300191Y-62059459D01*
X119890157Y-62229290D01*
X119461898Y-62619577D01*
X119400924Y-62749413D01*
X119187706Y-62430310D01*
X118696499Y-62102096D01*
X118439621Y-62051000D01*
X120530079Y-62051000D01*
X120530079Y-62180779D01*
G04 #@! TD*
M02*
